SplineFontDB: 3.2
FontName: ArundinaSans-Bold
FullName: Arundina Sans Bold
FamilyName: Arundina Sans
Weight: Bold
Copyright: Copyright (c) 2003 by Bitstream, Inc. All Rights Reserved.\nCopyright (c) 2007 by Software Industry Promotion Agency (Public Organization). All Rights Reserved.
Version: 2.03
ItalicAngle: 0
UnderlinePosition: -153
UnderlineWidth: 102
Ascent: 1638
Descent: 410
InvalidEm: 0
LayerCount: 3
Layer: 0 0 "Back" 1
Layer: 1 1 "Fore" 0
Layer: 2 0 "Cube" 0
XUID: [1021 375 425136265 4916284]
FSType: 0
OS2Version: 2
OS2_WeightWidthSlopeOnly: 0
OS2_UseTypoMetrics: 1
CreationTime: 1125072480
ModificationTime: 1579860465
PfmFamily: 33
TTFWeight: 700
TTFWidth: 5
LineGap: 25
VLineGap: 0
Panose: 2 11 3 0 2 2 2 2 2 4
OS2TypoAscent: 0
OS2TypoAOffset: 1
OS2TypoDescent: 0
OS2TypoDOffset: 1
OS2TypoLinegap: 0
OS2WinAscent: 2
OS2WinAOffset: 1
OS2WinDescent: -31
OS2WinDOffset: 1
HheadAscent: 2
HheadAOffset: 1
HheadDescent: 31
HheadDOffset: 1
OS2SubXSize: 1434
OS2SubYSize: 1331
OS2SubXOff: 0
OS2SubYOff: 287
OS2SupXSize: 1434
OS2SupYSize: 1331
OS2SupXOff: 0
OS2SupYOff: 977
OS2StrikeYSize: 102
OS2StrikeYPos: 512
OS2FamilyClass: 2063
OS2Vendor: 'BLWK'
Lookup: 4 0 0 "'frac' Diagonal Fractions in Latin lookup 0" { "'frac' Diagonal Fractions in Latin lookup 0 subtable"  } ['frac' ('latn' <'dflt' > ) ]
Lookup: 6 0 0 "'liga' Standard Ligatures in Latin lookup 1" { "'liga' Standard Ligatures in Latin lookup 1 subtable"  } ['liga' ('latn' <'dflt' > 'thai' <'dflt' > ) ]
Lookup: 6 0 0 "'liga' Standard Ligatures in Latin lookup 2" { "'liga' Standard Ligatures in Latin lookup 2 subtable"  } ['liga' ('latn' <'dflt' > 'thai' <'dflt' > ) ]
Lookup: 6 0 0 "'liga' Standard Ligatures in Latin lookup 3" { "'liga' Standard Ligatures in Latin lookup 3 subtable"  } ['liga' ('latn' <'dflt' > 'thai' <'dflt' > ) ]
Lookup: 6 0 0 "'liga' Standard Ligatures in Latin lookup 4" { "'liga' Standard Ligatures in Latin lookup 4 subtable"  } ['liga' ('latn' <'dflt' > 'thai' <'dflt' > ) ]

StartChar: .notdef
Encoding: 389 -1 0
Width: 1222
VWidth: 3555
Flags: W
HStem: -359 118<214 1007> 1319 113<214 1007>
VStem: 99 115<-241 1319> 1007 109<-241 1319>
LayerCount: 3
Fore
SplineSet
99 1432 m 1,0,-1
 1116 1432 l 1,1,-1
 1116 -359 l 1,2,-1
 99 -359 l 1,3,-1
 99 1432 l 1,0,-1
1007 -241 m 1,4,-1
 1007 1319 l 1,5,-1
 214 1319 l 1,6,-1
 214 -241 l 1,7,-1
 1007 -241 l 1,4,-1
EndSplineSet
Layer: 2
SplineSet
99 1432 m 1
 1116 1432 l 1
 1116 -359 l 1
 99 -359 l 1
 99 1432 l 1
1007 -241 m 1
 1007 1319 l 1
 214 1319 l 1
 214 -241 l 1
 1007 -241 l 1
EndSplineSet
EndChar

StartChar: exclam
Encoding: 2 33 4
Width: 927
VWidth: 3555
Flags: W
HStem: 0 356<285 644> 1463 20G<285 644>
VStem: 285 359<0 356 801.684 1483>
LayerCount: 3
Fore
SplineSet
644 1483 m 1,0,-1
 644 910 l 1,1,-1
 590 502 l 1,2,-1
 339 502 l 1,3,-1
 285 910 l 1,4,-1
 285 1483 l 1,5,-1
 644 1483 l 1,0,-1
644 356 m 1,6,-1
 644 0 l 1,7,-1
 285 0 l 1,8,-1
 285 356 l 1,9,-1
 644 356 l 1,6,-1
EndSplineSet
Layer: 2
SplineSet
644 1483 m 1
 644 910 l 1
 590 502 l 1
 339 502 l 1
 285 910 l 1
 285 1483 l 1
 644 1483 l 1
644 356 m 1
 644 0 l 1
 285 0 l 1
 285 356 l 1
 644 356 l 1
EndSplineSet
EndChar

StartChar: quotedbl
Encoding: 3 34 5
Width: 1058
VWidth: 3555
Flags: W
HStem: 932 551<193 431 628 868>
VStem: 193 238<932 1483> 628 240<932 1483>
LayerCount: 3
Fore
SplineSet
868 932 m 1,0,-1
 628 932 l 1,1,-1
 628 1483 l 1,2,-1
 868 1483 l 1,3,-1
 868 932 l 1,0,-1
431 932 m 1,4,-1
 193 932 l 1,5,-1
 193 1483 l 1,6,-1
 431 1483 l 1,7,-1
 431 932 l 1,4,-1
EndSplineSet
Layer: 2
SplineSet
868 932 m 1
 628 932 l 1
 628 1483 l 1
 868 1483 l 1
 868 932 l 1
431 932 m 1
 193 932 l 1
 193 1483 l 1
 431 1483 l 1
 431 932 l 1
EndSplineSet
EndChar

StartChar: numbersign
Encoding: 4 35 6
Width: 1701
VWidth: 3555
Flags: W
HStem: 0 21G<316 541.316 804 1028.84> 380 214<139 417 686 896 1170 1455> 868 214<248 529 811 1017 1286 1564>
VStem: 316 220<0 220> 682 221<1241 1462> 804 220<0 220> 1170 217<1245 1462>
DStem2: 316 0 536 0 0.243472 0.969908<53.5639 393.156 666.21 893.74 1169.96 1507.12> 804 0 1024 0 0.242848 0.970064<53.4265 390.966 665.101 893.742 1166.66 1507.12>
LayerCount: 3
Fore
SplineSet
811 1082 m 1,0,-1
 1073 1082 l 1,1,-1
 1170 1462 l 1,2,-1
 1387 1462 l 1,3,-1
 1286 1082 l 1,4,-1
 1564 1082 l 1,5,-1
 1564 868 l 1,6,-1
 1238 868 l 1,7,-1
 1170 594 l 1,8,-1
 1455 594 l 1,9,-1
 1455 380 l 1,10,-1
 1116 380 l 1,11,-1
 1024 0 l 1,12,-1
 804 0 l 1,13,-1
 896 380 l 1,14,-1
 637 380 l 1,15,-1
 536 0 l 1,16,-1
 316 0 l 1,17,-1
 417 380 l 1,18,-1
 139 380 l 1,19,-1
 139 594 l 1,20,-1
 462 594 l 1,21,-1
 529 868 l 1,22,-1
 248 868 l 1,23,-1
 248 1082 l 1,24,-1
 587 1082 l 1,25,-1
 682 1462 l 1,26,-1
 903 1462 l 1,27,-1
 811 1082 l 1,0,-1
753 868 m 1,28,-1
 686 594 l 1,29,-1
 946 594 l 1,30,-1
 1017 868 l 1,31,-1
 753 868 l 1,28,-1
EndSplineSet
Layer: 2
SplineSet
811 1082 m 1xfa
 1073 1082 l 1
 1170 1462 l 1
 1387 1462 l 1
 1286 1082 l 1
 1564 1082 l 1
 1564 868 l 1
 1238 868 l 1
 1170 594 l 1
 1455 594 l 1
 1455 380 l 1
 1116 380 l 1
 1024 0 l 1
 804 0 l 1xf6
 896 380 l 1
 637 380 l 1
 536 0 l 1
 316 0 l 1
 417 380 l 1
 139 380 l 1
 139 594 l 1
 462 594 l 1
 529 868 l 1
 248 868 l 1
 248 1082 l 1
 587 1082 l 1
 682 1462 l 1
 903 1462 l 1
 811 1082 l 1xfa
753 868 m 1
 686 594 l 1
 946 594 l 1
 1017 868 l 1
 753 868 l 1
EndSplineSet
EndChar

StartChar: dollar
Encoding: 5 36 7
Width: 1414
VWidth: 3555
Flags: W
HStem: 0 231<348.185 628 790 928.746> 1092 227<518.092 628 790 1044.6>
VStem: 160 312<868.506 1047.01> 628 162<-299 0 231 509 832 1088 1316 1547> 960 312<264.655 468.201>
LayerCount: 3
Fore
SplineSet
790 1319 m 1,0,1
 984 1305 984 1305 1187 1248 c 1,2,-1
 1187 998 l 1,3,4
 974 1085 974 1085 790 1092 c 1,5,-1
 790 807 l 1,6,7
 1050 762 1050 762 1161 675.5 c 128,-1,8
 1272 589 1272 589 1272 391 c 259,9,10
 1272 24 1272 24 790 0 c 1,11,-1
 790 -299 l 1,12,-1
 628 -299 l 1,13,-1
 628 0 l 1,14,15
 416 5 416 5 160 92 c 1,16,-1
 160 352 l 1,17,18
 372 240 372 240 628 224 c 1,19,-1
 628 533 l 1,20,21
 338 580 338 580 249 679 c 128,-1,22
 160 778 160 778 160 929 c 259,23,24
 160 1123 160 1123 289 1216.5 c 128,-1,25
 418 1310 418 1310 628 1316 c 1,26,-1
 628 1547 l 1,27,-1
 790 1547 l 1,28,-1
 790 1319 l 1,0,1
628 1088 m 1,29,30
 562 1085 562 1085 517 1052.5 c 128,-1,31
 472 1020 472 1020 472 963 c 259,32,33
 472 846 472 846 628 832 c 1,34,-1
 628 1088 l 1,29,30
790 231 m 1,35,36
 960 231 960 231 960 363 c 259,37,38
 960 437 960 437 918.5 467.5 c 128,-1,39
 877 498 877 498 790 509 c 1,40,-1
 790 231 l 1,35,36
EndSplineSet
Layer: 2
SplineSet
790 1319 m 1
 928 1309 1066 1282 1187 1248 c 1
 1187 998 l 1
 1069 1046 939 1086 790 1092 c 1
 790 807 l 1
 1086 756 1272 685 1272 391 c 3
 1272 146 1111 16 790 0 c 1
 790 -299 l 1
 628 -299 l 1
 628 0 l 1
 453 4 298 45 160 92 c 1
 160 352 l 1
 294 281 449 235 628 224 c 1
 628 533 l 1
 342 580 160 662 160 929 c 3
 160 1193 356 1308 628 1316 c 1
 628 1547 l 1
 790 1547 l 1
 790 1319 l 1
628 1088 m 1
 547 1084 472 1043 472 963 c 3
 472 884 524 841 628 832 c 1
 628 1088 l 1
790 231 m 1
 903 231 960 275 960 363 c 3
 960 468 895 496 790 509 c 1
 790 231 l 1
EndSplineSet
EndChar

StartChar: percent
Encoding: 6 37 8
Width: 2036
VWidth: 3555
Flags: W
HStem: -28 170<1474.24 1666.13> 611 168<1474.86 1666.93> 705 166<360.324 555.253> 1340 167<360.324 555.253>
VStem: 68 241<925.185 1286.37> 448 217<-28 189> 608 253<924.857 1286.84> 1177 248<194.147 562.128> 1373 221<1286 1507> 1720 254<196.126 555.955>
DStem2: 448 -28 665 -28 0.51777 0.85552<112.356 1792.16>
LayerCount: 3
Fore
SplineSet
1575 611 m 259,0,1
 1425 611 1425 611 1425 377 c 259,2,3
 1425 142 1425 142 1575 142 c 259,4,5
 1642 142 1642 142 1681 203 c 128,-1,6
 1720 264 1720 264 1720 377 c 259,7,8
 1720 491 1720 491 1681 551 c 128,-1,9
 1642 611 1642 611 1575 611 c 259,0,1
1575 779 m 259,10,11
 1760 779 1760 779 1867 670.5 c 128,-1,12
 1974 562 1974 562 1974 377 c 259,13,14
 1974 184 1974 184 1867 78 c 128,-1,15
 1760 -28 1760 -28 1575 -28 c 259,16,17
 1391 -28 1391 -28 1284 78 c 128,-1,18
 1177 184 1177 184 1177 377 c 259,19,20
 1177 562 1177 562 1284 670.5 c 128,-1,21
 1391 779 1391 779 1575 779 c 259,10,11
448 -28 m 1,22,-1
 1373 1507 l 1,23,-1
 1594 1507 l 1,24,-1
 665 -28 l 1,25,-1
 448 -28 l 1,22,-1
462 1507 m 259,26,27
 648 1507 648 1507 754.5 1403 c 128,-1,28
 861 1299 861 1299 861 1106 c 259,29,30
 861 913 861 913 754.5 809 c 128,-1,31
 648 705 648 705 462 705 c 259,32,33
 278 705 278 705 173 809 c 128,-1,34
 68 913 68 913 68 1106 c 259,35,36
 68 1299 68 1299 173 1403 c 128,-1,37
 278 1507 278 1507 462 1507 c 259,26,27
462 1340 m 259,38,39
 309 1340 309 1340 309 1106 c 259,40,41
 309 871 309 871 462 871 c 259,42,43
 529 871 529 871 568.5 929.5 c 128,-1,44
 608 988 608 988 608 1106 c 259,45,46
 608 1224 608 1224 568.5 1282 c 128,-1,47
 529 1340 529 1340 462 1340 c 259,38,39
EndSplineSet
Layer: 2
SplineSet
1720 377 m 259xd940
 1720 500 1683 611 1575 611 c 3
 1475 611 1425 533 1425 377 c 259
 1425 220 1475 142 1575 142 c 3
 1683 142 1720 255 1720 377 c 259xd940
1177 377 m 3
 1177 622 1330 779 1575 779 c 259
 1821 779 1974 623 1974 377 c 3
 1974 124 1825 -28 1575 -28 c 259
 1326 -28 1177 125 1177 377 c 3
448 -28 m 1x9cc0
 1373 1507 l 1
 1594 1507 l 1
 665 -28 l 1
 448 -28 l 1x9cc0
68 1106 m 259
 68 1358 213 1507 462 1507 c 259
 713 1507 861 1359 861 1106 c 259
 861 853 713 705 462 705 c 259xba40
 213 705 68 854 68 1106 c 259
608 1106 m 259
 608 1232 572 1340 462 1340 c 3
 360 1340 309 1262 309 1106 c 259
 309 949 360 871 462 871 c 3
 572 871 608 980 608 1106 c 259
EndSplineSet
EndChar

StartChar: ampersand
Encoding: 7 38 9
Width: 1768
VWidth: 3555
Flags: W
HStem: -28 255<600.697 927.851> 0 21G<1247.89 1689> 1266 241<722.586 1100.6>
VStem: 125 340<361.119 647.36> 345 348<1047.21 1232.91> 1312 306<660.235 885>
DStem2: 793 981 594 740 0.674394 -0.738371<42.0823 601.705 893.107 1043.33>
LayerCount: 3
Fore
SplineSet
1198 1177 m 1,0,1
 1034 1266 1034 1266 861 1266 c 259,2,3
 783 1266 783 1266 738 1237 c 128,-1,4
 693 1208 693 1208 693 1160 c 259,5,6
 693 1090 693 1090 793 981 c 2,7,-1
 1198 536 l 1,8,9
 1305 672 1305 672 1312 885 c 1,10,-1
 1618 885 l 1,11,12
 1594 536 1594 536 1397 316 c 1,13,-1
 1689 0 l 1,14,-1
 1266 0 l 1,15,-1
 1170 106 l 1,16,17
 951 -28 951 -28 708 -28 c 259,18,19
 441 -28 441 -28 283 105 c 128,-1,20
 125 238 125 238 125 462 c 259,21,22
 125 611 125 611 194.5 721.5 c 128,-1,23
 264 832 264 832 427 936 c 1,24,25
 345 1038 345 1038 345 1156 c 259,26,27
 345 1316 345 1316 469.5 1411.5 c 128,-1,28
 594 1507 594 1507 807 1507 c 259,29,30
 968 1507 968 1507 1198 1455 c 1,31,-1
 1198 1177 l 1,0,1
594 740 m 1,32,33
 465 641 465 641 465 505 c 259,34,35
 465 387 465 387 549.5 307 c 128,-1,36
 634 227 634 227 753 227 c 259,37,38
 879 227 879 227 981 306 c 1,39,-1
 594 740 l 1,32,33
EndSplineSet
Layer: 2
SplineSet
861 1266 m 3xac
 776 1266 693 1236 693 1160 c 3
 693 1090 749 1029 793 981 c 2
 1198 536 l 1
 1269 627 1307 743 1312 885 c 1
 1618 885 l 1
 1602 652 1528 463 1397 316 c 1
 1689 0 l 1
 1266 0 l 1x6c
 1170 106 l 1
 1041 27 900 -28 708 -28 c 3
 378 -28 125 144 125 462 c 3xb4
 125 696 250 824 427 936 c 1
 372 1004 345 1077 345 1156 c 3
 345 1393 555 1507 807 1507 c 3
 942 1507 1077 1482 1198 1455 c 1
 1198 1177 l 1
 1098 1231 994 1266 861 1266 c 3xac
465 505 m 3xb4
 465 348 596 227 753 227 c 3
 849 227 925 263 981 306 c 1
 594 740 l 1
 508 674 465 596 465 505 c 3xb4
EndSplineSet
EndChar

StartChar: quotesingle
Encoding: 8 39 10
Width: 618
VWidth: 3555
Flags: W
HStem: 932 551<193 431>
VStem: 193 238<932 1483>
LayerCount: 3
Fore
SplineSet
431 932 m 1,0,-1
 193 932 l 1,1,-1
 193 1483 l 1,2,-1
 431 1483 l 1,3,-1
 431 932 l 1,0,-1
EndSplineSet
Layer: 2
SplineSet
431 932 m 1
 193 932 l 1
 193 1483 l 1
 431 1483 l 1
 431 932 l 1
EndSplineSet
EndChar

StartChar: parenleft
Encoding: 9 40 11
Width: 927
VWidth: 3555
Flags: W
VStem: 174 342<281.792 989.05>
LayerCount: 3
Fore
SplineSet
469 -271 m 1,0,1
 174 211 174 211 174 637 c 259,2,3
 174 861 174 861 246.5 1080 c 128,-1,4
 319 1299 319 1299 469 1543 c 1,5,-1
 767 1543 l 1,6,7
 516 1082 516 1082 516 641 c 259,8,9
 516 200 516 200 767 -271 c 1,10,-1
 469 -271 l 1,0,1
EndSplineSet
Layer: 2
SplineSet
469 -271 m 1
 302 2 174 262 174 637 c 3
 174 1014 304 1274 469 1543 c 1
 767 1543 l 1
 600 1236 516 935 516 641 c 259
 516 347 600 43 767 -271 c 1
 469 -271 l 1
EndSplineSet
EndChar

StartChar: parenright
Encoding: 10 41 12
Width: 927
VWidth: 3555
Flags: W
VStem: 163 295<-271 24 1248 1543> 420 333<284.373 993.452>
LayerCount: 3
Fore
SplineSet
753 637 m 259,0,1
 753 221 753 221 458 -271 c 1,2,-1
 163 -271 l 1,3,4
 420 207 420 207 420 641 c 259,5,6
 420 1073 420 1073 163 1543 c 1,7,-1
 458 1543 l 1,8,9
 608 1299 608 1299 680.5 1080 c 128,-1,10
 753 861 753 861 753 637 c 259,0,1
EndSplineSet
Layer: 2
SplineSet
163 -271 m 1x80
 334 48 420 352 420 641 c 259x40
 420 929 334 1230 163 1543 c 1
 458 1543 l 1x80
 623 1274 753 1012 753 637 c 3x40
 753 266 621 1 458 -271 c 1
 163 -271 l 1x80
EndSplineSet
EndChar

StartChar: asterisk
Encoding: 11 42 13
Width: 1062
VWidth: 3555
Flags: W
HStem: 1487 20G<448 615>
VStem: 448 167<566 903 1170 1507>
DStem2: 118 1347 43 1208 0.884049 -0.467394<0 371.26 654.155 1022.24> 373 1035 448 903 0.882838 0.469678<-369.773 0 282.508 652.406>
LayerCount: 3
Fore
SplineSet
693 1035 m 1,0,-1
 1024 868 l 1,1,-1
 946 726 l 1,2,-1
 615 903 l 1,3,-1
 615 566 l 1,4,-1
 448 566 l 1,5,-1
 448 903 l 1,6,-1
 118 726 l 1,7,-1
 43 868 l 1,8,-1
 373 1035 l 1,9,-1
 43 1208 l 1,10,-1
 118 1347 l 1,11,-1
 448 1170 l 1,12,-1
 448 1507 l 1,13,-1
 615 1507 l 1,14,-1
 615 1170 l 1,15,-1
 946 1347 l 1,16,-1
 1024 1208 l 1,17,-1
 693 1035 l 1,0,-1
EndSplineSet
Layer: 2
SplineSet
693 1035 m 1
 1024 868 l 1
 946 726 l 1
 615 903 l 1
 615 566 l 1
 448 566 l 1
 448 903 l 1
 118 726 l 1
 43 868 l 1
 373 1035 l 1
 43 1208 l 1
 118 1347 l 1
 448 1170 l 1
 448 1507 l 1
 615 1507 l 1
 615 1170 l 1
 946 1347 l 1
 1024 1208 l 1
 693 1035 l 1
EndSplineSet
EndChar

StartChar: plus
Encoding: 12 43 14
Width: 1701
VWidth: 3555
Flags: W
HStem: 0 21G<733 967> 523 230<214 733 967 1486>
VStem: 733 234<0 523 753 1272>
LayerCount: 3
Fore
SplineSet
967 753 m 1,0,-1
 1486 753 l 1,1,-1
 1486 523 l 1,2,-1
 967 523 l 1,3,-1
 967 0 l 1,4,-1
 733 0 l 1,5,-1
 733 523 l 1,6,-1
 214 523 l 1,7,-1
 214 753 l 1,8,-1
 733 753 l 1,9,-1
 733 1272 l 1,10,-1
 967 1272 l 1,11,-1
 967 753 l 1,0,-1
EndSplineSet
Layer: 2
SplineSet
967 753 m 1
 1486 753 l 1
 1486 523 l 1
 967 523 l 1
 967 0 l 1
 733 0 l 1
 733 523 l 1
 214 523 l 1
 214 753 l 1
 733 753 l 1
 733 1272 l 1
 967 1272 l 1
 967 753 l 1
EndSplineSet
EndChar

StartChar: comma
Encoding: 13 44 15
Width: 770
VWidth: 3555
Flags: W
HStem: -288 672<207 316>
VStem: 207 359<82 384>
LayerCount: 3
Fore
SplineSet
566 384 m 1,0,-1
 566 82 l 1,1,-1
 316 -288 l 1,2,-1
 106 -288 l 1,3,-1
 207 82 l 1,4,-1
 207 384 l 1,5,-1
 566 384 l 1,0,-1
EndSplineSet
Layer: 2
SplineSet
566 384 m 1
 566 82 l 1
 316 -288 l 1
 106 -288 l 1
 207 82 l 1
 207 384 l 1
 566 384 l 1
EndSplineSet
EndChar

StartChar: hyphen
Encoding: 14 45 16
Width: 845
VWidth: 3555
Flags: W
HStem: 441 288<115 733>
VStem: 115 618<441 729>
LayerCount: 3
Fore
SplineSet
733 729 m 1,0,-1
 733 441 l 1,1,-1
 115 441 l 1,2,-1
 115 729 l 1,3,-1
 733 729 l 1,0,-1
EndSplineSet
Layer: 2
SplineSet
733 729 m 1
 733 441 l 1
 115 441 l 1
 115 729 l 1
 733 729 l 1
EndSplineSet
EndChar

StartChar: period
Encoding: 15 46 17
Width: 770
VWidth: 3555
Flags: W
HStem: 0 384<207 566>
VStem: 207 359<0 384>
LayerCount: 3
Fore
SplineSet
566 384 m 1,0,-1
 566 0 l 1,1,-1
 207 0 l 1,2,-1
 207 384 l 1,3,-1
 566 384 l 1,0,-1
EndSplineSet
Layer: 2
SplineSet
566 384 m 1
 566 0 l 1
 207 0 l 1
 207 384 l 1
 566 384 l 1
EndSplineSet
EndChar

StartChar: slash
Encoding: 16 47 18
Width: 743
VWidth: 3555
Flags: W
HStem: 1463 20G<516.744 743>
VStem: 0 220<-189 31> 523 220<1263 1483>
DStem2: 0 -189 220 -189 0.298535 0.954399<65.6777 1751.89>
LayerCount: 3
Fore
SplineSet
743 1483 m 1,0,-1
 220 -189 l 1,1,-1
 0 -189 l 1,2,-1
 523 1483 l 1,3,-1
 743 1483 l 1,0,-1
EndSplineSet
Layer: 2
SplineSet
743 1483 m 1
 220 -189 l 1
 0 -189 l 1
 523 1483 l 1
 743 1483 l 1
EndSplineSet
EndChar

StartChar: zero
Encoding: 17 48 19
Width: 1414
VWidth: 3555
Flags: W
HStem: -28 259<588.718 828.552> 1245 262<588.583 828.572>
VStem: 95 389<408.999 1072.33> 936 380<395.061 1086.57>
LayerCount: 3
Fore
SplineSet
936 743 m 259,0,1
 936 1021 936 1021 884 1133 c 128,-1,2
 832 1245 832 1245 708 1245 c 259,3,4
 583 1245 583 1245 533.5 1133 c 128,-1,5
 484 1021 484 1021 484 743 c 259,6,7
 484 462 484 462 533.5 346.5 c 128,-1,8
 583 231 583 231 708 231 c 259,9,10
 832 231 832 231 884 346.5 c 128,-1,11
 936 462 936 462 936 743 c 259,0,1
1316 740 m 259,12,13
 1316 373 1316 373 1161.5 172.5 c 128,-1,14
 1007 -28 1007 -28 708 -28 c 259,15,16
 417 -28 417 -28 256 172.5 c 128,-1,17
 95 373 95 373 95 740 c 259,18,19
 95 1113 95 1113 256 1310 c 128,-1,20
 417 1507 417 1507 708 1507 c 259,21,22
 1007 1507 1007 1507 1161.5 1310 c 128,-1,23
 1316 1113 1316 1113 1316 740 c 259,12,13
EndSplineSet
Layer: 2
SplineSet
936 743 m 3
 936 1014 923 1245 708 1245 c 259
 494 1245 484 1013 484 743 c 3
 484 471 493 231 708 231 c 259
 924 231 936 471 936 743 c 3
708 1507 m 3
 1140 1507 1316 1195 1316 740 c 3
 1316 291 1138 -28 708 -28 c 3
 285 -28 95 295 95 740 c 3
 95 1190 282 1507 708 1507 c 3
EndSplineSet
EndChar

StartChar: one
Encoding: 18 49 20
Width: 1414
VWidth: 3555
Flags: W
HStem: 0 264<234 576 936 1272> 1153 258<227 485> 1463 20G<476.889 936>
VStem: 576 360<264 1227>
LayerCount: 3
Fore
SplineSet
576 264 m 1,0,-1
 576 1227 l 1,1,-1
 227 1153 l 1,2,-1
 227 1411 l 1,3,-1
 573 1483 l 1,4,-1
 936 1483 l 1,5,-1
 936 264 l 1,6,-1
 1272 264 l 1,7,-1
 1272 0 l 1,8,-1
 234 0 l 1,9,-1
 234 264 l 1,10,-1
 576 264 l 1,0,-1
EndSplineSet
Layer: 2
SplineSet
576 264 m 1
 576 1227 l 1
 227 1153 l 1
 227 1411 l 1
 573 1483 l 1
 936 1483 l 1
 936 264 l 1
 1272 264 l 1
 1272 0 l 1
 234 0 l 1
 234 264 l 1
 576 264 l 1
EndSplineSet
EndChar

StartChar: two
Encoding: 19 50 21
Width: 1414
VWidth: 3555
Flags: W
HStem: 0 281<587 1238> 1245 262<362.449 745.661>
VStem: 845 386<877.708 1148.51>
DStem2: 160 281 587 281 0.753176 0.657819<321.606 914.887>
LayerCount: 3
Fore
SplineSet
587 1245 m 259,0,1
 395 1245 395 1245 163 1095 c 1,2,-1
 163 1422 l 1,3,4
 427 1507 427 1507 668 1507 c 259,5,6
 936 1507 936 1507 1083.5 1391.5 c 128,-1,7
 1231 1276 1231 1276 1231 1062 c 259,8,9
 1231 943 1231 943 1163 838.5 c 128,-1,10
 1095 734 1095 734 899 559 c 2,11,-1
 587 281 l 1,12,-1
 1238 281 l 1,13,-1
 1238 0 l 1,14,-1
 160 0 l 1,15,-1
 160 281 l 1,16,-1
 705 757 l 2,17,18
 845 879 845 879 845 1017 c 259,19,20
 845 1120 845 1120 775 1182.5 c 128,-1,21
 705 1245 705 1245 587 1245 c 259,0,1
EndSplineSet
Layer: 2
SplineSet
668 1507 m 3
 994 1507 1231 1372 1231 1062 c 3
 1231 853 1083 723 899 559 c 2
 587 281 l 1
 1238 281 l 1
 1238 0 l 1
 160 0 l 1
 160 281 l 1
 705 757 l 2
 777 820 845 929 845 1017 c 3
 845 1161 735 1245 587 1245 c 3
 422 1245 286 1175 163 1095 c 1
 163 1422 l 1
 339 1479 507 1507 668 1507 c 3
EndSplineSet
EndChar

StartChar: three
Encoding: 20 51 22
Width: 1414
VWidth: 3555
Flags: W
HStem: -28 259<294.021 775.413> 641 244<387 757.1> 1245 262<292.629 765.708>
VStem: 835 389<952.101 1178.12> 871 381<316.042 558.699>
LayerCount: 3
Fore
SplineSet
573 1245 m 259,0,1
 389 1245 389 1245 200 1167 c 1,2,-1
 200 1448 l 1,3,4
 424 1507 424 1507 644 1507 c 259,5,6
 1224 1507 1224 1507 1224 1127 c 259,7,8
 1224 865 1224 865 946 800 c 1,9,10
 1252 719 1252 719 1252 424 c 259,11,12
 1252 200 1252 200 1082.5 86 c 128,-1,13
 913 -28 913 -28 590 -28 c 259,14,15
 338 -28 338 -28 139 47 c 1,16,-1
 139 342 l 1,17,18
 345 231 345 231 559 231 c 259,19,20
 871 231 871 231 871 437 c 259,21,22
 871 533 871 533 791.5 587 c 128,-1,23
 712 641 712 641 540 641 c 2,24,-1
 387 641 l 1,25,-1
 387 885 l 1,26,-1
 547 885 l 2,27,28
 835 885 835 885 835 1066 c 259,29,30
 835 1245 835 1245 573 1245 c 259,0,1
EndSplineSet
Layer: 2
SplineSet
573 1245 m 3xf0
 435 1245 306 1211 200 1167 c 1
 200 1448 l 1
 349 1487 497 1507 644 1507 c 3
 1031 1507 1224 1380 1224 1127 c 3xf0
 1224 952 1131 843 946 800 c 1
 1150 746 1252 621 1252 424 c 3
 1252 84 961 -28 590 -28 c 3
 422 -28 267 -1 139 47 c 1
 139 342 l 1
 276 268 416 231 559 231 c 3
 767 231 871 300 871 437 c 3xe8
 871 596 724 641 540 641 c 2
 387 641 l 1
 387 885 l 1
 547 885 l 2
 739 885 835 945 835 1066 c 3
 835 1204 719 1245 573 1245 c 3xf0
EndSplineSet
EndChar

StartChar: four
Encoding: 21 52 23
Width: 1414
VWidth: 3555
Flags: W
HStem: 0 21G<750 1109> 271 272<326 750 1109 1319> 1463 20G<672.591 1109>
VStem: 750 359<0 271 543 1170>
DStem2: 92 597 326 543 0.556862 0.830605<85.453 842.352>
LayerCount: 3
Fore
SplineSet
326 543 m 1,0,-1
 750 543 l 1,1,-1
 750 1170 l 1,2,-1
 326 543 l 1,0,-1
1109 1483 m 1,3,-1
 1109 543 l 1,4,-1
 1319 543 l 1,5,-1
 1319 271 l 1,6,-1
 1109 271 l 1,7,-1
 1109 0 l 1,8,-1
 750 0 l 1,9,-1
 750 271 l 1,10,-1
 92 271 l 1,11,-1
 92 597 l 1,12,-1
 686 1483 l 1,13,-1
 1109 1483 l 1,3,-1
EndSplineSet
Layer: 2
SplineSet
326 543 m 1
 750 543 l 1
 750 1170 l 1
 326 543 l 1
1109 1483 m 1
 1109 543 l 1
 1319 543 l 1
 1319 271 l 1
 1109 271 l 1
 1109 0 l 1
 750 0 l 1
 750 271 l 1
 92 271 l 1
 92 597 l 1
 686 1483 l 1
 1109 1483 l 1
EndSplineSet
EndChar

StartChar: five
Encoding: 22 53 24
Width: 1414
VWidth: 3555
Flags: W
HStem: -28 259<357.163 770.018> 736 262<525.784 776.694> 1201 282<523 1167>
VStem: 214 309<970 1201> 889 380<337.425 631.318>
LayerCount: 3
Fore
SplineSet
590 736 m 259,0,1
 419 736 419 736 214 648 c 1,2,-1
 214 1483 l 1,3,-1
 1167 1483 l 1,4,-1
 1167 1201 l 1,5,-1
 523 1201 l 1,6,-1
 523 970 l 1,7,8
 622 998 622 998 696 998 c 259,9,10
 974 998 974 998 1121.5 862 c 128,-1,11
 1269 726 1269 726 1269 488 c 259,12,13
 1269 241 1269 241 1106 106.5 c 128,-1,14
 943 -28 943 -28 651 -28 c 259,15,16
 385 -28 385 -28 156 71 c 1,17,-1
 156 370 l 1,18,19
 405 231 405 231 590 231 c 259,20,21
 733 231 733 231 811 300.5 c 128,-1,22
 889 370 889 370 889 488 c 259,23,24
 889 601 889 601 811 668.5 c 128,-1,25
 733 736 733 736 590 736 c 259,0,1
EndSplineSet
Layer: 2
SplineSet
590 736 m 3
 452 736 327 696 214 648 c 1
 214 1483 l 1
 1167 1483 l 1
 1167 1201 l 1
 523 1201 l 1
 523 970 l 1
 572 984 634 998 696 998 c 3
 1045 998 1269 824 1269 488 c 3
 1269 138 1014 -28 651 -28 c 3
 459 -28 302 8 156 71 c 1
 156 370 l 1
 284 299 423 231 590 231 c 3
 767 231 889 319 889 488 c 3
 889 653 763 736 590 736 c 3
EndSplineSet
EndChar

StartChar: six
Encoding: 23 54 25
Width: 1414
VWidth: 3555
Flags: W
HStem: -28 238<604.262 866.271> 733 244<604.372 859.817> 1255 252<675.1 1109.95>
VStem: 128 405<394.669 880.992> 936 369<286.731 654.378>
LayerCount: 3
Fore
SplineSet
736 733 m 259,0,1
 533 733 533 733 533 469 c 259,2,3
 533 210 533 210 736 210 c 259,4,5
 936 210 936 210 936 469 c 259,6,7
 936 733 936 733 736 733 c 259,0,1
495 882 m 1,8,9
 614 977 614 977 800 977 c 259,10,11
 1028 977 1028 977 1166.5 844.5 c 128,-1,12
 1305 712 1305 712 1305 498 c 259,13,14
 1305 260 1305 260 1148 116 c 128,-1,15
 991 -28 991 -28 733 -28 c 259,16,17
 444 -28 444 -28 286 165.5 c 128,-1,18
 128 359 128 359 128 722 c 259,19,20
 128 1088 128 1088 313 1297.5 c 128,-1,21
 498 1507 498 1507 821 1507 c 259,22,23
 1010 1507 1010 1507 1208 1448 c 1,24,-1
 1208 1170 l 1,25,26
 1029 1255 1029 1255 871 1255 c 259,27,28
 523 1255 523 1255 495 882 c 1,8,9
EndSplineSet
Layer: 2
SplineSet
736 733 m 3
 601 733 533 645 533 469 c 3
 533 296 601 210 736 210 c 3
 869 210 936 296 936 469 c 3
 936 645 869 733 736 733 c 3
128 722 m 3
 128 1185 370 1507 821 1507 c 3
 947 1507 1076 1487 1208 1448 c 1
 1208 1170 l 1
 1104 1219 1003 1255 871 1255 c 3
 639 1255 514 1131 495 882 c 1
 568 940 674 977 800 977 c 3
 1095 977 1305 789 1305 498 c 3
 1305 172 1065 -28 733 -28 c 3
 314 -28 128 281 128 722 c 3
EndSplineSet
EndChar

StartChar: seven
Encoding: 24 55 26
Width: 1414
VWidth: 3555
Flags: W
HStem: 0 21G<302 684.115> 1201 282<139 854>
DStem2: 302 0 675 0 0.414723 0.909948<154.692 1321.77>
LayerCount: 3
Fore
SplineSet
1252 1483 m 1,0,-1
 1252 1266 l 1,1,-1
 675 0 l 1,2,-1
 302 0 l 1,3,-1
 854 1201 l 1,4,-1
 139 1201 l 1,5,-1
 139 1483 l 1,6,-1
 1252 1483 l 1,0,-1
EndSplineSet
Layer: 2
SplineSet
1252 1483 m 1
 1252 1266 l 1
 675 0 l 1
 302 0 l 1
 854 1201 l 1
 139 1201 l 1
 139 1483 l 1
 1252 1483 l 1
EndSplineSet
EndChar

StartChar: eight
Encoding: 25 56 27
Width: 1414
VWidth: 3555
Flags: W
HStem: -28 238<556.856 858.982> 661 238<575.988 839.806> 1266 241<566.623 840.215>
VStem: 128 360<280.54 586.253> 156 363<954.343 1215.16> 892 363<952.77 1214.9> 929 357<280.54 586.045>
LayerCount: 3
Fore
SplineSet
708 661 m 259,0,1
 601 661 601 661 544.5 602 c 128,-1,2
 488 543 488 543 488 437 c 259,3,4
 488 210 488 210 708 210 c 259,5,6
 929 210 929 210 929 437 c 259,7,8
 929 543 929 543 871.5 602 c 128,-1,9
 814 661 814 661 708 661 c 259,0,1
156 1123 m 259,10,11
 156 1507 156 1507 708 1507 c 259,12,13
 1255 1507 1255 1507 1255 1123 c 259,14,15
 1255 875 1255 875 981 790 c 1,16,17
 1286 705 1286 705 1286 420 c 259,18,19
 1286 -28 1286 -28 708 -28 c 259,20,21
 128 -28 128 -28 128 420 c 259,22,23
 128 705 128 705 431 790 c 1,24,25
 156 875 156 875 156 1123 c 259,10,11
519 1088 m 259,26,27
 519 998 519 998 567 948.5 c 128,-1,28
 615 899 615 899 708 899 c 259,29,30
 800 899 800 899 846 948.5 c 128,-1,31
 892 998 892 998 892 1088 c 259,32,33
 892 1266 892 1266 708 1266 c 259,34,35
 519 1266 519 1266 519 1088 c 259,26,27
EndSplineSet
Layer: 2
SplineSet
929 437 m 3xf2
 929 578 849 661 708 661 c 259
 566 661 488 579 488 437 c 3
 488 286 561 210 708 210 c 259
 855 210 929 286 929 437 c 3xf2
708 1507 m 3
 1019 1507 1255 1412 1255 1123 c 3xec
 1255 958 1164 847 981 790 c 1
 1184 733 1286 610 1286 420 c 3
 1286 121 1093 -28 708 -28 c 259
 321 -28 128 121 128 420 c 3xf2
 128 610 229 733 431 790 c 1
 248 847 156 958 156 1123 c 3xe8
 156 1414 394 1507 708 1507 c 3
708 899 m 259
 830 899 892 967 892 1088 c 3
 892 1207 831 1266 708 1266 c 3
 582 1266 519 1207 519 1088 c 3
 519 967 586 899 708 899 c 259
EndSplineSet
EndChar

StartChar: nine
Encoding: 26 57 28
Width: 1414
VWidth: 3555
Flags: W
HStem: -28 248<305.375 735.868> 502 244<543.657 805.344> 1266 241<548.666 805.678>
VStem: 102 370<822.569 1190.7> 878 405<607.422 1083.26>
LayerCount: 3
Fore
SplineSet
917 597 m 1,0,1
 813 502 813 502 611 502 c 259,2,3
 384 502 384 502 243 633 c 128,-1,4
 102 764 102 764 102 977 c 259,5,6
 102 1224 102 1224 259.5 1365.5 c 128,-1,7
 417 1507 417 1507 675 1507 c 259,8,9
 967 1507 967 1507 1125 1313.5 c 128,-1,10
 1283 1120 1283 1120 1283 757 c 259,11,12
 1283 391 1283 391 1096.5 181.5 c 128,-1,13
 910 -28 910 -28 590 -28 c 259,14,15
 380 -28 380 -28 203 31 c 1,16,-1
 203 306 l 1,17,18
 391 220 391 220 540 220 c 259,19,20
 889 220 889 220 917 597 c 1,0,1
675 746 m 259,21,22
 878 746 878 746 878 1007 c 259,23,24
 878 1266 878 1266 675 1266 c 259,25,26
 472 1266 472 1266 472 1007 c 259,27,28
 472 746 472 746 675 746 c 259,21,22
EndSplineSet
Layer: 2
SplineSet
1283 757 m 3
 1283 296 1038 -28 590 -28 c 3
 450 -28 321 -8 203 31 c 1
 203 306 l 1
 328 249 441 220 540 220 c 3
 773 220 898 346 917 597 c 1
 846 532 739 502 611 502 c 3
 317 502 102 687 102 977 c 3
 102 1311 338 1507 675 1507 c 3
 1097 1507 1283 1200 1283 757 c 3
675 746 m 259
 810 746 878 833 878 1007 c 259
 878 1180 810 1266 675 1266 c 259
 540 1266 472 1180 472 1007 c 259
 472 833 540 746 675 746 c 259
EndSplineSet
EndChar

StartChar: colon
Encoding: 27 58 29
Width: 812
VWidth: 3555
Flags: W
HStem: 0 384<227 587> 729 384<227 587>
VStem: 227 360<0 384 729 1113>
LayerCount: 3
Fore
SplineSet
587 1113 m 1,0,-1
 587 729 l 1,1,-1
 227 729 l 1,2,-1
 227 1113 l 1,3,-1
 587 1113 l 1,0,-1
587 384 m 1,4,-1
 587 0 l 1,5,-1
 227 0 l 1,6,-1
 227 384 l 1,7,-1
 587 384 l 1,4,-1
EndSplineSet
Layer: 2
SplineSet
587 1113 m 1
 587 729 l 1
 227 729 l 1
 227 1113 l 1
 587 1113 l 1
587 384 m 1
 587 0 l 1
 227 0 l 1
 227 384 l 1
 587 384 l 1
EndSplineSet
EndChar

StartChar: semicolon
Encoding: 28 59 30
Width: 812
VWidth: 3555
Flags: W
HStem: 729 384<227 587>
VStem: 227 360<82 384 729 1113>
LayerCount: 3
Fore
SplineSet
587 384 m 1,0,-1
 587 82 l 1,1,-1
 342 -288 l 1,2,-1
 132 -288 l 1,3,-1
 227 82 l 1,4,-1
 227 384 l 1,5,-1
 587 384 l 1,0,-1
587 1113 m 1,6,-1
 587 729 l 1,7,-1
 227 729 l 1,8,-1
 227 1113 l 1,9,-1
 587 1113 l 1,6,-1
EndSplineSet
Layer: 2
SplineSet
587 384 m 1
 587 82 l 1
 342 -288 l 1
 132 -288 l 1
 227 82 l 1
 227 384 l 1
 587 384 l 1
587 1113 m 1
 587 729 l 1
 227 729 l 1
 227 1113 l 1
 587 1113 l 1
EndSplineSet
EndChar

StartChar: less
Encoding: 29 60 31
Width: 1701
VWidth: 3555
Flags: W
HStem: 1195 20G<1430.94 1486>
DStem2: 214 753 529 637 0.939923 0.341387<256.475 1267.27> 529 637 214 523 0.940633 -0.339426<0 1012.54>
LayerCount: 3
Fore
SplineSet
529 637 m 1,0,-1
 1486 306 l 1,1,-1
 1486 64 l 1,2,-1
 214 523 l 1,3,-1
 214 753 l 1,4,-1
 1486 1215 l 1,5,-1
 1486 963 l 1,6,-1
 529 637 l 1,0,-1
EndSplineSet
Layer: 2
SplineSet
529 637 m 1
 1486 306 l 1
 1486 64 l 1
 214 523 l 1
 214 753 l 1
 1486 1215 l 1
 1486 963 l 1
 529 637 l 1
EndSplineSet
EndChar

StartChar: equal
Encoding: 30 61 32
Width: 1701
VWidth: 3555
Flags: W
HStem: 292 237<214 1486> 746 231<214 1486>
LayerCount: 3
Fore
SplineSet
1486 977 m 1,0,-1
 1486 746 l 1,1,-1
 214 746 l 1,2,-1
 214 977 l 1,3,-1
 1486 977 l 1,0,-1
1486 529 m 1,4,-1
 1486 292 l 1,5,-1
 214 292 l 1,6,-1
 214 529 l 1,7,-1
 1486 529 l 1,4,-1
EndSplineSet
Layer: 2
SplineSet
1486 977 m 1
 1486 746 l 1
 214 746 l 1
 214 977 l 1
 1486 977 l 1
1486 529 m 1
 1486 292 l 1
 214 292 l 1
 214 529 l 1
 1486 529 l 1
EndSplineSet
EndChar

StartChar: greater
Encoding: 31 62 33
Width: 1701
VWidth: 3555
Flags: W
HStem: 1195 20G<214 269.065>
DStem2: 214 306 214 64 0.940633 0.339426<0 1015.36>
LayerCount: 3
Fore
SplineSet
214 1215 m 1,0,-1
 1486 753 l 1,1,-1
 1486 523 l 1,2,-1
 214 64 l 1,3,-1
 214 306 l 1,4,-1
 1174 637 l 1,5,-1
 214 963 l 1,6,-1
 214 1215 l 1,0,-1
EndSplineSet
Layer: 2
SplineSet
214 1215 m 1
 1486 753 l 1
 1486 523 l 1
 214 64 l 1
 214 306 l 1
 1174 637 l 1
 214 963 l 1
 214 1215 l 1
EndSplineSet
EndChar

StartChar: question
Encoding: 32 63 34
Width: 1178
VWidth: 3555
Flags: W
HStem: 0 356<345 705> 1116 21G<142 192> 1245 262<292.709 648.793>
VStem: 345 360<0 356 502 664.245> 689 356<980.897 1203.63>
LayerCount: 3
Fore
SplineSet
142 1425 m 1,0,1
 362 1507 362 1507 547 1507 c 259,2,3
 1045 1507 1045 1507 1045 1123 c 259,4,5
 1045 932 1045 932 878 783 c 2,6,-1
 814 726 l 2,7,8
 746 665 746 665 725.5 627.5 c 128,-1,9
 705 590 705 590 705 540 c 2,10,-1
 705 502 l 1,11,-1
 345 502 l 1,12,-1
 345 543 l 2,13,14
 345 628 345 628 376.5 695.5 c 128,-1,15
 408 763 408 763 519 858 c 2,16,-1
 580 910 l 2,17,18
 689 1003 689 1003 689 1099 c 259,19,20
 689 1170 689 1170 641.5 1207.5 c 128,-1,21
 594 1245 594 1245 512 1245 c 259,22,23
 324 1245 324 1245 142 1116 c 1,24,-1
 142 1425 l 1,0,1
705 356 m 1,25,-1
 705 0 l 1,26,-1
 345 0 l 1,27,-1
 345 356 l 1,28,-1
 705 356 l 1,25,-1
EndSplineSet
Layer: 2
SplineSet
142 1425 m 1xe8
 273 1474 392 1507 547 1507 c 3
 879 1507 1045 1379 1045 1123 c 3xe8
 1045 958 980 874 878 783 c 2
 814 726 l 2
 745 665 705 636 705 540 c 2
 705 502 l 1
 345 502 l 1
 345 543 l 2xf0
 345 673 406 761 519 858 c 2
 580 910 l 2
 657 976 689 1044 689 1099 c 3
 689 1199 615 1245 512 1245 c 259
 366 1245 242 1187 142 1116 c 1
 142 1425 l 1xe8
705 356 m 1xf0
 705 0 l 1
 345 0 l 1
 345 356 l 1
 705 356 l 1xf0
EndSplineSet
EndChar

StartChar: at
Encoding: 33 64 35
Width: 2032
VWidth: 3555
Flags: W
HStem: -356 189<779.568 1275.82> 85 189<904.725 1133.71 1443 1554.08> 797 180<903.632 1134.15> 1241 188<792.765 1293.45>
VStem: 135 181<299.066 778.906> 597 228<356.664 714.312> 1212 231<360.855 713.675> 1234 209<832 960> 1703 189<440.964 864.494>
LayerCount: 3
Fore
SplineSet
825 533 m 259,0,1
 825 417 825 417 877 345.5 c 128,-1,2
 929 274 929 274 1017 274 c 259,3,4
 1106 274 1106 274 1159 345.5 c 128,-1,5
 1212 417 1212 417 1212 533 c 259,6,7
 1212 654 1212 654 1159 725.5 c 128,-1,8
 1106 797 1106 797 1017 797 c 259,9,10
 929 797 929 797 877 725.5 c 128,-1,11
 825 654 825 654 825 533 c 259,0,1
1601 -156 m 1,12,13
 1329 -356 1329 -356 1031 -356 c 259,14,15
 667 -356 667 -356 401 -104.5 c 128,-1,16
 135 147 135 147 135 536 c 259,17,18
 135 909 135 909 392.5 1169 c 152,-1,19
 650 1429 650 1429 1031 1429 c 259,20,21
 1375 1429 1375 1429 1633.5 1206 c 128,-1,22
 1892 983 1892 983 1892 651 c 259,23,24
 1892 380 1892 380 1730 231 c 128,-1,25
 1568 82 1568 82 1269 82 c 2,26,-1
 1234 82 l 1,27,-1
 1234 234 l 1,28,29
 1201 167 1201 167 1137 126 c 128,-1,30
 1073 85 1073 85 981 85 c 259,31,32
 811 85 811 85 704 210 c 128,-1,33
 597 335 597 335 597 529 c 259,34,35
 597 733 597 733 704 855 c 128,-1,36
 811 977 811 977 981 977 c 259,37,38
 1163 977 1163 977 1234 832 c 1,39,-1
 1234 960 l 1,40,-1
 1443 960 l 1,41,-1
 1443 274 l 1,42,43
 1564 292 1564 292 1633.5 393.5 c 128,-1,44
 1703 495 1703 495 1703 648 c 259,45,46
 1703 908 1703 908 1508 1074.5 c 128,-1,47
 1313 1241 1313 1241 1045 1241 c 259,48,49
 735 1241 735 1241 525.5 1033.5 c 128,-1,50
 316 826 316 826 316 536 c 259,51,52
 316 252 316 252 518 42.5 c 152,-1,53
 720 -167 720 -167 1028 -167 c 259,54,55
 1156 -167 1156 -167 1280 -121 c 128,-1,56
 1404 -75 1404 -75 1493 3 c 1,57,-1
 1601 -156 l 1,12,13
EndSplineSet
Layer: 2
SplineSet
1017 797 m 259xfe80
 885 797 825 674 825 533 c 3
 825 396 887 274 1017 274 c 259
 1148 274 1212 395 1212 533 c 3
 1212 675 1150 797 1017 797 c 259xfe80
1892 651 m 3
 1892 277 1652 82 1269 82 c 2
 1234 82 l 1
 1234 234 l 1
 1192 148 1107 85 981 85 c 3
 744 85 597 285 597 529 c 3
 597 781 739 977 981 977 c 3
 1107 977 1192 918 1234 832 c 1
 1234 960 l 1
 1443 960 l 1
 1443 274 l 1xfd80
 1610 299 1703 453 1703 648 c 3
 1703 1000 1405 1241 1045 1241 c 3
 622 1241 316 922 316 536 c 3
 316 155 607 -167 1028 -167 c 3
 1216 -167 1388 -89 1493 3 c 1
 1601 -156 l 1
 1456 -262 1263 -356 1031 -356 c 3
 540 -356 135 7 135 536 c 259
 135 1030 513 1429 1031 1429 c 3
 1507 1429 1892 1090 1892 651 c 3
EndSplineSet
EndChar

StartChar: A
Encoding: 34 65 36
Width: 1574
VWidth: 3555
Flags: W
HStem: 0 21G<10 398.38 1173.21 1564> 271 269<583 988> 1463 20G<551.596 1021.42>
DStem2: 1014 1483 790 1134 0.347726 -0.937596<249.33 875.112 1162.1 1427.86> 1564 0 988 540 0.347726 -0.937596<-1332.37 -706.592 -419.606 -133.527>
LayerCount: 3
Fore
SplineSet
491 271 m 1,0,-1
 391 0 l 1,1,-1
 10 0 l 1,2,-1
 559 1483 l 1,3,-1
 1014 1483 l 1,4,-1
 1564 0 l 1,5,-1
 1180 0 l 1,6,-1
 1088 271 l 1,7,-1
 491 271 l 1,0,-1
988 540 m 1,8,-1
 790 1134 l 1,9,-1
 583 540 l 1,10,-1
 988 540 l 1,8,-1
EndSplineSet
Layer: 2
SplineSet
491 271 m 1
 391 0 l 1
 10 0 l 1
 559 1483 l 1
 1014 1483 l 1
 1564 0 l 1
 1180 0 l 1
 1088 271 l 1
 491 271 l 1
988 540 m 1
 790 1134 l 1
 583 540 l 1
 988 540 l 1
EndSplineSet
EndChar

StartChar: B
Encoding: 35 66 37
Width: 1548
VWidth: 3555
Flags: W
HStem: 0 260<569 957.736> 648 258<569 919.723> 1227 256<569 915.784>
VStem: 184 385<260 648 906 1227> 963 381<946.588 1180.43> 1024 380<324.263 587.165>
LayerCount: 3
Fore
SplineSet
783 906 m 2,0,1
 963 906 963 906 963 1062 c 259,2,3
 963 1227 963 1227 783 1227 c 2,4,-1
 569 1227 l 1,5,-1
 569 906 l 1,6,-1
 783 906 l 2,0,1
793 260 m 2,7,8
 1024 260 1024 260 1024 455 c 259,9,10
 1024 648 1024 648 793 648 c 2,11,-1
 569 648 l 1,12,-1
 569 260 l 1,13,-1
 793 260 l 2,7,8
1153 793 m 1,14,15
 1269 757 1269 757 1336.5 661.5 c 128,-1,16
 1404 566 1404 566 1404 427 c 259,17,18
 1404 0 1404 0 821 0 c 2,19,-1
 184 0 l 1,20,-1
 184 1483 l 1,21,-1
 760 1483 l 2,22,23
 1069 1483 1069 1483 1206.5 1391 c 128,-1,24
 1344 1299 1344 1299 1344 1092 c 259,25,26
 1344 875 1344 875 1153 793 c 1,14,15
EndSplineSet
Layer: 2
SplineSet
783 906 m 2xf8
 903 906 963 958 963 1062 c 3
 963 1172 903 1227 783 1227 c 2
 569 1227 l 1
 569 906 l 1
 783 906 l 2xf8
793 260 m 2
 947 260 1024 325 1024 455 c 3xf4
 1024 584 947 648 793 648 c 2
 569 648 l 1
 569 260 l 1
 793 260 l 2
1153 793 m 1
 1301 747 1404 618 1404 427 c 3xf4
 1404 142 1210 0 821 0 c 2
 184 0 l 1
 184 1483 l 1
 760 1483 l 2
 1112 1483 1344 1410 1344 1092 c 3xf8
 1344 947 1280 848 1153 793 c 1
EndSplineSet
EndChar

StartChar: C
Encoding: 36 67 38
Width: 1492
VWidth: 3555
Flags: W
HStem: -28 273<743.485 1184.94> 1234 273<743.615 1184.74>
VStem: 99 399<501.977 977.47>
LayerCount: 3
Fore
SplineSet
936 245 m 259,0,1
 1160 245 1160 245 1361 387 c 1,2,-1
 1361 82 l 1,3,4
 1153 -28 1153 -28 903 -28 c 259,5,6
 529 -28 529 -28 314 181 c 128,-1,7
 99 390 99 390 99 740 c 259,8,9
 99 1089 99 1089 314 1298 c 128,-1,10
 529 1507 529 1507 903 1507 c 259,11,12
 1153 1507 1153 1507 1361 1397 c 1,13,-1
 1361 1092 l 1,14,15
 1160 1234 1160 1234 936 1234 c 259,16,17
 733 1234 733 1234 615.5 1100.5 c 128,-1,18
 498 967 498 967 498 740 c 259,19,20
 498 512 498 512 615.5 378.5 c 128,-1,21
 733 245 733 245 936 245 c 259,0,1
EndSplineSet
Layer: 2
SplineSet
936 245 m 3
 1119 245 1241 302 1361 387 c 1
 1361 82 l 1
 1222 9 1070 -28 903 -28 c 3
 412 -28 99 251 99 740 c 259
 99 1228 413 1507 903 1507 c 3
 1070 1507 1222 1470 1361 1397 c 1
 1361 1092 l 1
 1240 1177 1119 1234 936 1234 c 3
 654 1234 498 1028 498 740 c 259
 498 451 654 245 936 245 c 3
EndSplineSet
EndChar

StartChar: D
Encoding: 37 68 39
Width: 1687
VWidth: 3555
Flags: W
HStem: 0 288<569 954.328> 1194 289<569 949.342>
VStem: 184 385<288 1194> 1187 394<515.32 972.034>
LayerCount: 3
Fore
SplineSet
1187 743 m 259,0,1
 1187 968 1187 968 1064 1081 c 128,-1,2
 941 1194 941 1194 708 1194 c 2,3,-1
 569 1194 l 1,4,-1
 569 288 l 1,5,-1
 708 288 l 2,6,7
 941 288 941 288 1064 402.5 c 128,-1,8
 1187 517 1187 517 1187 743 c 259,0,1
590 1483 m 2,9,10
 890 1483 890 1483 1064.5 1443 c 128,-1,11
 1239 1403 1239 1403 1377 1269 c 256,12,13
 1581 1072 1581 1072 1581 743 c 259,14,15
 1581 401 1581 401 1377 210 c 280,16,17
 1211 55 1211 55 1025.5 27.5 c 128,-1,18
 840 0 840 0 590 0 c 2,19,-1
 184 0 l 1,20,-1
 184 1483 l 1,21,-1
 590 1483 l 2,9,10
EndSplineSet
Layer: 2
SplineSet
1187 743 m 259
 1187 1047 1015 1194 708 1194 c 2
 569 1194 l 1
 569 288 l 1
 708 288 l 2
 1015 288 1187 439 1187 743 c 259
590 1483 m 2
 983 1483 1190 1451 1377 1269 c 0
 1513 1138 1581 963 1581 743 c 3
 1581 517 1513 339 1377 210 c 0
 1178 28 1001 0 590 0 c 2
 184 0 l 1
 184 1483 l 1
 590 1483 l 2
EndSplineSet
EndChar

StartChar: E
Encoding: 38 69 40
Width: 1385
VWidth: 3555
Flags: W
HStem: 0 288<569 1238> 628 285<569 1180> 1194 289<569 1224>
VStem: 184 385<288 628 913 1194>
LayerCount: 3
Fore
SplineSet
1224 1483 m 1,0,-1
 1224 1194 l 1,1,-1
 569 1194 l 1,2,-1
 569 913 l 1,3,-1
 1180 913 l 1,4,-1
 1180 628 l 1,5,-1
 569 628 l 1,6,-1
 569 288 l 1,7,-1
 1238 288 l 1,8,-1
 1238 0 l 1,9,-1
 184 0 l 1,10,-1
 184 1483 l 1,11,-1
 1224 1483 l 1,0,-1
EndSplineSet
Layer: 2
SplineSet
1224 1483 m 1
 1224 1194 l 1
 569 1194 l 1
 569 913 l 1
 1180 913 l 1
 1180 628 l 1
 569 628 l 1
 569 288 l 1
 1238 288 l 1
 1238 0 l 1
 184 0 l 1
 184 1483 l 1
 1224 1483 l 1
EndSplineSet
EndChar

StartChar: F
Encoding: 39 70 41
Width: 1385
VWidth: 3555
Flags: W
HStem: 0 21G<184 569> 628 285<569 1180> 1194 289<569 1224>
VStem: 184 385<0 628 913 1194>
LayerCount: 3
Fore
SplineSet
1224 1483 m 1,0,-1
 1224 1194 l 1,1,-1
 569 1194 l 1,2,-1
 569 913 l 1,3,-1
 1180 913 l 1,4,-1
 1180 628 l 1,5,-1
 569 628 l 1,6,-1
 569 0 l 1,7,-1
 184 0 l 1,8,-1
 184 1483 l 1,9,-1
 1224 1483 l 1,0,-1
EndSplineSet
Layer: 2
SplineSet
1224 1483 m 1
 1224 1194 l 1
 569 1194 l 1
 569 913 l 1
 1180 913 l 1
 1180 628 l 1
 569 628 l 1
 569 0 l 1
 184 0 l 1
 184 1483 l 1
 1224 1483 l 1
EndSplineSet
EndChar

StartChar: G
Encoding: 40 71 42
Width: 1670
VWidth: 3555
Flags: W
HStem: -28 273<741.917 1156.29> 566 259<924 1160> 1234 273<745.018 1246.67>
VStem: 99 399<504.215 977.802> 1160 362<265.25 566>
LayerCount: 3
Fore
SplineSet
1522 115 m 1,0,1
 1234 -28 1234 -28 903 -28 c 259,2,3
 529 -28 529 -28 314 181 c 128,-1,4
 99 390 99 390 99 740 c 259,5,6
 99 1102 99 1102 317.5 1304.5 c 128,-1,7
 536 1507 536 1507 924 1507 c 259,8,9
 1231 1507 1231 1507 1465 1397 c 1,10,-1
 1465 1092 l 1,11,12
 1215 1234 1215 1234 970 1234 c 259,13,14
 743 1234 743 1234 620.5 1104 c 128,-1,15
 498 974 498 974 498 740 c 259,16,17
 498 505 498 505 617 375 c 128,-1,18
 736 245 736 245 953 245 c 259,19,20
 1078 245 1078 245 1160 281 c 1,21,-1
 1160 566 l 1,22,-1
 924 566 l 1,23,-1
 924 825 l 1,24,-1
 1522 825 l 1,25,-1
 1522 115 l 1,0,1
EndSplineSet
Layer: 2
SplineSet
498 740 m 259
 498 437 655 245 953 245 c 3
 1036 245 1105 257 1160 281 c 1
 1160 566 l 1
 924 566 l 1
 924 825 l 1
 1522 825 l 1
 1522 115 l 1
 1330 20 1124 -28 903 -28 c 3
 412 -28 99 251 99 740 c 3
 99 1235 422 1507 924 1507 c 3
 1129 1507 1309 1470 1465 1397 c 1
 1465 1092 l 1
 1298 1187 1133 1234 970 1234 c 3
 664 1234 498 1048 498 740 c 259
EndSplineSet
EndChar

StartChar: H
Encoding: 41 72 43
Width: 1697
VWidth: 3555
Flags: W
HStem: 0 21G<184 569 1134 1517> 628 285<569 1134> 1463 20G<184 569 1134 1517>
VStem: 184 385<0 628 913 1483> 1134 383<0 628 913 1483>
LayerCount: 3
Fore
SplineSet
569 1483 m 1,0,-1
 569 913 l 1,1,-1
 1134 913 l 1,2,-1
 1134 1483 l 1,3,-1
 1517 1483 l 1,4,-1
 1517 0 l 1,5,-1
 1134 0 l 1,6,-1
 1134 628 l 1,7,-1
 569 628 l 1,8,-1
 569 0 l 1,9,-1
 184 0 l 1,10,-1
 184 1483 l 1,11,-1
 569 1483 l 1,0,-1
EndSplineSet
Layer: 2
SplineSet
569 1483 m 1
 569 913 l 1
 1134 913 l 1
 1134 1483 l 1
 1517 1483 l 1
 1517 0 l 1
 1134 0 l 1
 1134 628 l 1
 569 628 l 1
 569 0 l 1
 184 0 l 1
 184 1483 l 1
 569 1483 l 1
EndSplineSet
EndChar

StartChar: I
Encoding: 42 73 44
Width: 756
VWidth: 3555
Flags: W
HStem: 0 21G<184 569> 1463 20G<184 569>
VStem: 184 385<0 1483>
LayerCount: 3
Fore
SplineSet
569 1483 m 1,0,-1
 569 0 l 1,1,-1
 184 0 l 1,2,-1
 184 1483 l 1,3,-1
 569 1483 l 1,0,-1
EndSplineSet
Layer: 2
SplineSet
569 1483 m 1
 569 0 l 1
 184 0 l 1
 184 1483 l 1
 569 1483 l 1
EndSplineSet
EndChar

StartChar: J
Encoding: 43 74 45
Width: 756
VWidth: 3555
Flags: W
HStem: -410 288<-118 84.8923> 1463 20G<184 569>
VStem: 184 385<-32.5678 1483>
LayerCount: 3
Fore
SplineSet
569 1483 m 1,0,-1
 569 146 l 2,1,2
 569 -135 569 -135 421.5 -272.5 c 128,-1,3
 274 -410 274 -410 -40 -410 c 2,4,-1
 -118 -410 l 1,5,-1
 -118 -122 l 1,6,-1
 -57 -122 l 2,7,8
 184 -122 184 -122 184 146 c 2,9,-1
 184 1483 l 1,10,-1
 569 1483 l 1,0,-1
EndSplineSet
Layer: 2
SplineSet
569 146 m 2
 569 -245 362 -410 -40 -410 c 2
 -118 -410 l 1
 -118 -122 l 1
 -57 -122 l 2
 104 -122 184 -33 184 146 c 2
 184 1483 l 1
 569 1483 l 1
 569 146 l 2
EndSplineSet
EndChar

StartChar: K
Encoding: 44 75 46
Width: 1574
VWidth: 3555
Flags: W
HStem: 0 21G<184 569 1139.73 1635> 1463 20G<184 569 1099.74 1564>
VStem: 184 385<0 583 939 1483> 1120 444<1039 1483> 1160 475<0 475>
DStem2: 569 939 854 783 0.712104 0.702074<93.426 774.298> 854 783 569 583 0.706202 -0.70801<0 770.47>
LayerCount: 3
Fore
SplineSet
569 1483 m 1,0,-1
 569 939 l 1,1,-1
 1120 1483 l 1,2,-1
 1564 1483 l 1,3,-1
 854 783 l 1,4,-1
 1635 0 l 1,5,-1
 1160 0 l 1,6,-1
 569 583 l 1,7,-1
 569 0 l 1,8,-1
 184 0 l 1,9,-1
 184 1483 l 1,10,-1
 569 1483 l 1,0,-1
EndSplineSet
Layer: 2
SplineSet
569 1483 m 1xe8
 569 939 l 1
 1120 1483 l 1
 1564 1483 l 1xf0
 854 783 l 1
 1635 0 l 1
 1160 0 l 1
 569 583 l 1
 569 0 l 1
 184 0 l 1
 184 1483 l 1
 569 1483 l 1xe8
EndSplineSet
EndChar

StartChar: L
Encoding: 45 76 47
Width: 1296
VWidth: 3555
Flags: W
HStem: 0 288<569 1238> 1463 20G<184 569>
VStem: 184 385<288 1483>
LayerCount: 3
Fore
SplineSet
569 1483 m 1,0,-1
 569 288 l 1,1,-1
 1238 288 l 1,2,-1
 1238 0 l 1,3,-1
 184 0 l 1,4,-1
 184 1483 l 1,5,-1
 569 1483 l 1,0,-1
EndSplineSet
Layer: 2
SplineSet
569 1483 m 1
 569 288 l 1
 1238 288 l 1
 1238 0 l 1
 184 0 l 1
 184 1483 l 1
 569 1483 l 1
EndSplineSet
EndChar

StartChar: M
Encoding: 46 77 48
Width: 2018
VWidth: 3555
Flags: W
HStem: 0 21G<184 543 1476 1838> 1463 20G<184 680.514 1338.51 1838>
VStem: 184 359<0 1085> 1476 362<0 1085>
DStem2: 672 1483 543 1085 0.396963 -0.917834<314.09 862.934> 1010 689 1134 285 0.393087 0.919501<0 547.301>
LayerCount: 3
Fore
SplineSet
672 1483 m 1,0,-1
 1010 689 l 1,1,-1
 1347 1483 l 1,2,-1
 1838 1483 l 1,3,-1
 1838 0 l 1,4,-1
 1476 0 l 1,5,-1
 1476 1085 l 1,6,-1
 1134 285 l 1,7,-1
 889 285 l 1,8,-1
 543 1085 l 1,9,-1
 543 0 l 1,10,-1
 184 0 l 1,11,-1
 184 1483 l 1,12,-1
 672 1483 l 1,0,-1
EndSplineSet
Layer: 2
SplineSet
672 1483 m 1
 1010 689 l 1
 1347 1483 l 1
 1838 1483 l 1
 1838 0 l 1
 1476 0 l 1
 1476 1085 l 1
 1134 285 l 1
 889 285 l 1
 543 1085 l 1
 543 0 l 1
 184 0 l 1
 184 1483 l 1
 672 1483 l 1
EndSplineSet
EndChar

StartChar: N
Encoding: 47 78 49
Width: 1697
VWidth: 3555
Flags: W
HStem: 0 21G<184 543 1077.28 1517> 1463 20G<184 621.707 1156 1517>
VStem: 184 359<0 1017> 1156 361<465 1483>
DStem2: 611 1483 543 1017 0.471981 -0.881609<378.735 1154.71>
LayerCount: 3
Fore
SplineSet
611 1483 m 1,0,-1
 1156 465 l 1,1,-1
 1156 1483 l 1,2,-1
 1517 1483 l 1,3,-1
 1517 0 l 1,4,-1
 1088 0 l 1,5,-1
 543 1017 l 1,6,-1
 543 0 l 1,7,-1
 184 0 l 1,8,-1
 184 1483 l 1,9,-1
 611 1483 l 1,0,-1
EndSplineSet
Layer: 2
SplineSet
611 1483 m 1
 1156 465 l 1
 1156 1483 l 1
 1517 1483 l 1
 1517 0 l 1
 1088 0 l 1
 543 1017 l 1
 543 0 l 1
 184 0 l 1
 184 1483 l 1
 611 1483 l 1
EndSplineSet
EndChar

StartChar: O
Encoding: 48 79 50
Width: 1727
VWidth: 3555
Flags: W
HStem: -28 273<692.759 1040.27> 1234 273<692.903 1040.27>
VStem: 99 399<470.148 1009.24> 1234 391<481.347 998.273>
LayerCount: 3
Fore
SplineSet
868 1234 m 259,0,1
 686 1234 686 1234 592 1104 c 128,-1,2
 498 974 498 974 498 740 c 259,3,4
 498 505 498 505 592 375 c 128,-1,5
 686 245 686 245 868 245 c 259,6,7
 1038 245 1038 245 1136 375 c 128,-1,8
 1234 505 1234 505 1234 740 c 259,9,10
 1234 974 1234 974 1136 1104 c 128,-1,11
 1038 1234 1038 1234 868 1234 c 259,0,1
868 1507 m 259,12,13
 1231 1507 1231 1507 1428 1304.5 c 128,-1,14
 1625 1102 1625 1102 1625 740 c 259,15,16
 1625 377 1625 377 1428 174.5 c 128,-1,17
 1231 -28 1231 -28 868 -28 c 259,18,19
 505 -28 505 -28 302 174.5 c 128,-1,20
 99 377 99 377 99 740 c 259,21,22
 99 1102 99 1102 302 1304.5 c 128,-1,23
 505 1507 505 1507 868 1507 c 259,12,13
EndSplineSet
Layer: 2
SplineSet
1234 740 m 259
 1234 1014 1123 1234 868 1234 c 3
 602 1234 498 1021 498 740 c 259
 498 458 602 245 868 245 c 3
 1123 245 1234 466 1234 740 c 259
99 740 m 259
 99 1222 386 1507 868 1507 c 259
 1351 1507 1625 1222 1625 740 c 259
 1625 257 1351 -28 868 -28 c 259
 385 -28 99 257 99 740 c 259
EndSplineSet
EndChar

StartChar: P
Encoding: 49 80 51
Width: 1489
VWidth: 3555
Flags: W
HStem: 0 21G<184 569> 516 277<569 932.534> 1205 278<569 932.794>
VStem: 184 385<0 516 793 1205> 1014 390<865.893 1130.65>
LayerCount: 3
Fore
SplineSet
821 1483 m 2,0,1
 1109 1483 1109 1483 1256.5 1358.5 c 128,-1,2
 1404 1234 1404 1234 1404 998 c 259,3,4
 1404 764 1404 764 1256.5 640 c 128,-1,5
 1109 516 1109 516 821 516 c 2,6,-1
 569 516 l 1,7,-1
 569 0 l 1,8,-1
 184 0 l 1,9,-1
 184 1483 l 1,10,-1
 821 1483 l 2,0,1
569 793 m 1,11,-1
 783 793 l 2,12,13
 889 793 889 793 951.5 844.5 c 128,-1,14
 1014 896 1014 896 1014 998 c 259,15,16
 1014 1099 1014 1099 951.5 1152 c 128,-1,17
 889 1205 889 1205 783 1205 c 2,18,-1
 569 1205 l 1,19,-1
 569 793 l 1,11,-1
EndSplineSet
Layer: 2
SplineSet
1404 998 m 259
 1404 661 1175 516 821 516 c 2
 569 516 l 1
 569 0 l 1
 184 0 l 1
 184 1483 l 1
 821 1483 l 2
 1176 1483 1404 1337 1404 998 c 259
1014 998 m 3
 1014 1135 921 1205 783 1205 c 2
 569 1205 l 1
 569 793 l 1
 783 793 l 2
 922 793 1014 860 1014 998 c 3
EndSplineSet
EndChar

StartChar: Q
Encoding: 50 81 52
Width: 1727
VWidth: 3555
Flags: W
HStem: -24 269<689.235 903> 1234 273<692.903 1040.56>
VStem: 99 399<469.975 1009.24> 1234 391<478.291 999.016>
LayerCount: 3
Fore
SplineSet
878 -24 m 2,0,1
 512 -24 512 -24 305.5 176.5 c 128,-1,2
 99 377 99 377 99 740 c 259,3,4
 99 1102 99 1102 302 1304.5 c 128,-1,5
 505 1507 505 1507 868 1507 c 259,6,7
 1231 1507 1231 1507 1428 1306.5 c 128,-1,8
 1625 1106 1625 1106 1625 740 c 259,9,10
 1625 491 1625 491 1520 311.5 c 128,-1,11
 1415 132 1415 132 1212 40 c 1,12,-1
 1510 -295 l 1,13,-1
 1149 -295 l 1,14,-1
 903 -24 l 1,15,-1
 878 -24 l 2,0,1
868 1234 m 259,16,17
 686 1234 686 1234 592 1104 c 128,-1,18
 498 974 498 974 498 740 c 259,19,20
 498 505 498 505 592 375 c 128,-1,21
 686 245 686 245 868 245 c 259,22,23
 1038 245 1038 245 1136 375 c 128,-1,24
 1234 505 1234 505 1234 740 c 259,25,26
 1234 974 1234 974 1136 1104 c 128,-1,27
 1038 1234 1038 1234 868 1234 c 259,16,17
EndSplineSet
Layer: 2
SplineSet
1625 740 m 3
 1625 386 1465 154 1212 40 c 1
 1510 -295 l 1
 1149 -295 l 1
 903 -24 l 1
 878 -24 l 2
 393 -24 99 255 99 740 c 259
 99 1222 386 1507 868 1507 c 259
 1353 1507 1625 1226 1625 740 c 3
1234 740 m 259
 1234 1014 1123 1234 868 1234 c 3
 602 1234 498 1021 498 740 c 259
 498 458 602 245 868 245 c 3
 1123 245 1234 466 1234 740 c 259
EndSplineSet
EndChar

StartChar: R
Encoding: 51 82 53
Width: 1564
VWidth: 3555
Flags: W
HStem: 0 21G<184 569 1106.27 1529> 562 263<569 829.812> 1205 278<569 890.66>
VStem: 184 385<0 562 825 1205> 953 380<877.848 1152.07>
DStem2: 1316 424 936 370 0.448899 -0.893583<-265.04 289.099>
LayerCount: 3
Fore
SplineSet
729 825 m 2,0,1
 854 825 854 825 903.5 869 c 128,-1,2
 953 913 953 913 953 1017 c 259,3,4
 953 1116 953 1116 903.5 1160.5 c 128,-1,5
 854 1205 854 1205 729 1205 c 2,6,-1
 569 1205 l 1,7,-1
 569 825 l 1,8,-1
 729 825 l 2,0,1
569 0 m 1,9,-1
 184 0 l 1,10,-1
 184 1483 l 1,11,-1
 767 1483 l 2,12,13
 1066 1483 1066 1483 1199.5 1383 c 128,-1,14
 1333 1283 1333 1283 1333 1078 c 259,15,16
 1333 783 1333 783 1049 693 c 1,17,18
 1198 659 1198 659 1316 424 c 2,19,-1
 1529 0 l 1,20,-1
 1116 0 l 1,21,-1
 936 370 l 2,22,23
 881 483 881 483 824 522.5 c 128,-1,24
 767 562 767 562 675 562 c 2,25,-1
 569 562 l 1,26,-1
 569 0 l 1,9,-1
EndSplineSet
Layer: 2
SplineSet
953 1017 m 3
 953 1161 883 1205 729 1205 c 2
 569 1205 l 1
 569 825 l 1
 729 825 l 2
 885 825 953 868 953 1017 c 3
569 0 m 1
 184 0 l 1
 184 1483 l 1
 767 1483 l 2
 1113 1483 1333 1393 1333 1078 c 3
 1333 881 1238 753 1049 693 c 1
 1181 664 1253 550 1316 424 c 2
 1529 0 l 1
 1116 0 l 1
 936 370 l 2
 876 493 829 562 675 562 c 2
 569 562 l 1
 569 0 l 1
EndSplineSet
EndChar

StartChar: S
Encoding: 52 83 54
Width: 1463
VWidth: 3555
Flags: W
HStem: -28 273<418.192 879.012> 1123 21G<1152 1224> 1234 273<546.597 1041.89>
VStem: 149 346<984.567 1185.59> 946 370<310.823 514.604>
DStem2: 693 929 573 615 0.976596 -0.215084<-197.168 320.967>
LayerCount: 3
Fore
SplineSet
696 1507 m 259,0,1
 958 1507 958 1507 1224 1432 c 1,2,-1
 1224 1123 l 1,3,4
 959 1234 959 1234 760 1234 c 259,5,6
 618 1234 618 1234 556.5 1197 c 128,-1,7
 495 1160 495 1160 495 1082 c 259,8,9
 495 1013 495 1013 538 983.5 c 128,-1,10
 581 954 581 954 693 929 c 2,11,-1
 861 892 l 2,12,13
 1105 838 1105 838 1210.5 746.5 c 128,-1,14
 1316 655 1316 655 1316 455 c 259,15,16
 1316 -28 1316 -28 726 -28 c 259,17,18
 444 -28 444 -28 160 78 c 1,19,-1
 160 398 l 1,20,21
 448 245 448 245 689 245 c 259,22,23
 814 245 814 245 880 290 c 128,-1,24
 946 335 946 335 946 413 c 259,25,26
 946 476 946 476 903.5 515 c 128,-1,27
 861 554 861 554 722 583 c 2,28,-1
 573 615 l 2,29,30
 349 663 349 663 249 769 c 128,-1,31
 149 875 149 875 149 1049 c 259,32,33
 149 1272 149 1272 290 1389.5 c 128,-1,34
 431 1507 431 1507 696 1507 c 259,0,1
EndSplineSet
Layer: 2
SplineSet
696 1507 m 3
 892 1507 1057 1479 1224 1432 c 1
 1224 1123 l 1
 1080 1183 940 1234 760 1234 c 3
 610 1234 495 1210 495 1082 c 3
 495 970 579 954 693 929 c 2
 861 892 l 2
 1138 830 1316 758 1316 455 c 3
 1316 133 1119 -28 726 -28 c 3
 538 -28 349 7 160 78 c 1
 160 398 l 1
 352 296 528 245 689 245 c 3
 827 245 946 290 946 413 c 3
 946 533 856 554 722 583 c 2
 573 615 l 2
 322 669 149 775 149 1049 c 3
 149 1366 367 1507 696 1507 c 3
EndSplineSet
EndChar

StartChar: T
Encoding: 53 84 55
Width: 1385
VWidth: 3555
Flags: W
HStem: 0 21G<505 882> 1194 289<10 505 882 1377>
VStem: 505 377<0 1194>
LayerCount: 3
Fore
SplineSet
1377 1483 m 1,0,-1
 1377 1194 l 1,1,-1
 882 1194 l 1,2,-1
 882 0 l 1,3,-1
 505 0 l 1,4,-1
 505 1194 l 1,5,-1
 10 1194 l 1,6,-1
 10 1483 l 1,7,-1
 1377 1483 l 1,0,-1
EndSplineSet
Layer: 2
SplineSet
1377 1483 m 1
 1377 1194 l 1
 882 1194 l 1
 882 0 l 1
 505 0 l 1
 505 1194 l 1
 10 1194 l 1
 10 1483 l 1
 1377 1483 l 1
EndSplineSet
EndChar

StartChar: U
Encoding: 54 85 56
Width: 1649
VWidth: 3555
Flags: W
HStem: -28 276<670.32 980.844> 1463 20G<184 569 1085 1465>
VStem: 184 385<366.847 1483> 1085 380<362.204 1483>
LayerCount: 3
Fore
SplineSet
569 1483 m 1,0,-1
 569 594 l 2,1,2
 569 413 569 413 629 330.5 c 128,-1,3
 689 248 689 248 825 248 c 259,4,5
 960 248 960 248 1022.5 330.5 c 128,-1,6
 1085 413 1085 413 1085 594 c 2,7,-1
 1085 1483 l 1,8,-1
 1465 1483 l 1,9,-1
 1465 594 l 2,10,11
 1465 281 1465 281 1310.5 126.5 c 128,-1,12
 1156 -28 1156 -28 825 -28 c 259,13,14
 184 -28 184 -28 184 594 c 2,15,-1
 184 1483 l 1,16,-1
 569 1483 l 1,0,-1
EndSplineSet
Layer: 2
SplineSet
1465 594 m 2
 1465 167 1258 -28 825 -28 c 3
 398 -28 184 179 184 594 c 2
 184 1483 l 1
 569 1483 l 1
 569 594 l 2
 569 378 624 248 825 248 c 259
 1025 248 1085 378 1085 594 c 2
 1085 1483 l 1
 1465 1483 l 1
 1465 594 l 2
EndSplineSet
EndChar

StartChar: V
Encoding: 55 86 57
Width: 1574
VWidth: 3555
Flags: W
HStem: 0 21G<551.596 1021.42> 1463 20G<10 398.281 1172.88 1564>
DStem2: 391 1483 10 1483 0.34717 -0.937802<0 1166.35> 790 387 1014 0 0.347726 0.937596<0 1163.22>
LayerCount: 3
Fore
SplineSet
391 1483 m 1,0,-1
 790 387 l 1,1,-1
 1180 1483 l 1,2,-1
 1564 1483 l 1,3,-1
 1014 0 l 1,4,-1
 559 0 l 1,5,-1
 10 1483 l 1,6,-1
 391 1483 l 1,0,-1
EndSplineSet
Layer: 2
SplineSet
391 1483 m 1
 790 387 l 1
 1180 1483 l 1
 1564 1483 l 1
 1014 0 l 1
 559 0 l 1
 10 1483 l 1
 391 1483 l 1
EndSplineSet
EndChar

StartChar: W
Encoding: 56 87 58
Width: 2239
VWidth: 3555
Flags: W
HStem: 0 21G<412.239 862.65 1382.26 1835.64> 1463 20G<64 435.64 931.305 1309.73 1813.25 2175>
VStem: 64 367<1116 1483> 1818 357<1126 1483>
DStem2: 431 1483 64 1483 0.231561 -0.97282<0 1110.71> 682 401 858 0 0.226437 0.974026<0 806.322> 1305 1483 1120 1127 0.230531 -0.973065<303.763 1111.87> 1561 401 1831 0 0.225963 0.974136<0 1112.09>
LayerCount: 3
Fore
SplineSet
431 1483 m 1,0,-1
 682 401 l 1,1,-1
 936 1483 l 1,2,-1
 1305 1483 l 1,3,-1
 1561 401 l 1,4,-1
 1818 1483 l 1,5,-1
 2175 1483 l 1,6,-1
 1831 0 l 1,7,-1
 1387 0 l 1,8,-1
 1120 1127 l 1,9,-1
 858 0 l 1,10,-1
 417 0 l 1,11,-1
 64 1483 l 1,12,-1
 431 1483 l 1,0,-1
EndSplineSet
Layer: 2
SplineSet
431 1483 m 1
 682 401 l 1
 936 1483 l 1
 1305 1483 l 1
 1561 401 l 1
 1818 1483 l 1
 2175 1483 l 1
 1831 0 l 1
 1387 0 l 1
 1120 1127 l 1
 858 0 l 1
 417 0 l 1
 64 1483 l 1
 431 1483 l 1
EndSplineSet
EndChar

StartChar: X
Encoding: 57 88 59
Width: 1567
VWidth: 3555
Flags: W
HStem: 0 21G<40 454.438 1113.48 1529> 1463 20G<61 471.655 1092.43 1507>
VStem: 40 401<0 401> 61 397<1086 1483> 1106 401<1082 1483> 1127 402<0 402>
DStem2: 40 0 441 0 0.556472 0.830866<223.145 836.37> 458 1483 61 1483 0.556284 -0.830992<0 576.345> 783 1007 1014 757 0.56178 0.827287<0 575.243> 1014 757 783 509 0.562489 -0.826805<75.1125 689.452>
LayerCount: 3
Fore
SplineSet
1529 0 m 1,0,-1
 1127 0 l 1,1,-1
 783 509 l 1,2,-1
 441 0 l 1,3,-1
 40 0 l 1,4,-1
 547 757 l 1,5,-1
 61 1483 l 1,6,-1
 458 1483 l 1,7,-1
 783 1007 l 1,8,-1
 1106 1483 l 1,9,-1
 1507 1483 l 1,10,-1
 1014 757 l 1,11,-1
 1529 0 l 1,0,-1
EndSplineSet
Layer: 2
SplineSet
1529 0 m 1xc4
 1127 0 l 1
 783 509 l 1
 441 0 l 1
 40 0 l 1xe4
 547 757 l 1
 61 1483 l 1
 458 1483 l 1
 783 1007 l 1
 1106 1483 l 1
 1507 1483 l 1xd8
 1014 757 l 1
 1529 0 l 1xc4
EndSplineSet
EndChar

StartChar: Y
Encoding: 58 89 60
Width: 1470
VWidth: 3555
Flags: W
HStem: 0 21G<540 929> 1463 20G<-17 410.755 1065.09 1493>
VStem: -17 415<1068 1483> 540 389<0 621> 1078 415<1068 1483>
DStem2: 398 1483 -17 1483 0.542726 -0.83991<0 628.594> 736 953 929 621 0.547511 0.836799<0 630.752>
LayerCount: 3
Fore
SplineSet
398 1483 m 1,0,-1
 736 953 l 1,1,-1
 1078 1483 l 1,2,-1
 1493 1483 l 1,3,-1
 929 621 l 1,4,-1
 929 0 l 1,5,-1
 540 0 l 1,6,-1
 540 621 l 1,7,-1
 -17 1483 l 1,8,-1
 398 1483 l 1,0,-1
EndSplineSet
Layer: 2
SplineSet
398 1483 m 1
 736 953 l 1
 1078 1483 l 1
 1493 1483 l 1
 929 621 l 1
 929 0 l 1
 540 0 l 1
 540 621 l 1
 -17 1483 l 1
 398 1483 l 1
EndSplineSet
EndChar

StartChar: Z
Encoding: 59 90 61
Width: 1473
VWidth: 3555
Flags: W
HStem: 0 288<566 1384> 1194 289<118 885>
DStem2: 92 231 566 288 0.635679 0.771953<345.313 1247.48>
LayerCount: 3
Fore
SplineSet
1358 1483 m 1,0,-1
 1358 1248 l 1,1,-1
 566 288 l 1,2,-1
 1384 288 l 1,3,-1
 1384 0 l 1,4,-1
 92 0 l 1,5,-1
 92 231 l 1,6,-1
 885 1194 l 1,7,-1
 118 1194 l 1,8,-1
 118 1483 l 1,9,-1
 1358 1483 l 1,0,-1
EndSplineSet
Layer: 2
SplineSet
1358 1483 m 1
 1358 1248 l 1
 566 288 l 1
 1384 288 l 1
 1384 0 l 1
 92 0 l 1
 92 231 l 1
 885 1194 l 1
 118 1194 l 1
 118 1483 l 1
 1358 1483 l 1
EndSplineSet
EndChar

StartChar: bracketleft
Encoding: 60 91 62
Width: 927
VWidth: 3555
Flags: W
HStem: -271 224<516 793> 1319 228<516 793>
VStem: 174 619<-271 -47 1319 1547> 174 342<-47 1319>
LayerCount: 3
Fore
SplineSet
793 1547 m 1,0,-1
 793 1319 l 1,1,-1
 516 1319 l 1,2,-1
 516 -47 l 1,3,-1
 793 -47 l 1,4,-1
 793 -271 l 1,5,-1
 174 -271 l 1,6,-1
 174 1547 l 1,7,-1
 793 1547 l 1,0,-1
EndSplineSet
Layer: 2
SplineSet
793 1547 m 1xe0
 793 1319 l 1xe0
 516 1319 l 1
 516 -47 l 1xd0
 793 -47 l 1
 793 -271 l 1
 174 -271 l 1
 174 1547 l 1
 793 1547 l 1xe0
EndSplineSet
EndChar

StartChar: backslash
Encoding: 61 92 63
Width: 743
VWidth: 3555
Flags: W
HStem: 1463 20G<0 226.256>
VStem: 0 220<1263 1483> 523 220<-189 31>
DStem2: 220 1483 0 1483 0.298535 -0.954399<0 1686.21>
LayerCount: 3
Fore
SplineSet
0 1483 m 1,0,-1
 220 1483 l 1,1,-1
 743 -189 l 1,2,-1
 523 -189 l 1,3,-1
 0 1483 l 1,0,-1
EndSplineSet
Layer: 2
SplineSet
0 1483 m 1
 220 1483 l 1
 743 -189 l 1
 523 -189 l 1
 0 1483 l 1
EndSplineSet
EndChar

StartChar: bracketright
Encoding: 62 93 64
Width: 927
VWidth: 3555
Flags: W
HStem: -271 224<139 420> 1319 228<139 420>
VStem: 139 614<-271 -47 1319 1547> 420 333<-47 1319>
LayerCount: 3
Fore
SplineSet
139 -271 m 1,0,-1
 139 -47 l 1,1,-1
 420 -47 l 1,2,-1
 420 1319 l 1,3,-1
 139 1319 l 1,4,-1
 139 1547 l 1,5,-1
 753 1547 l 1,6,-1
 753 -271 l 1,7,-1
 139 -271 l 1,0,-1
EndSplineSet
Layer: 2
SplineSet
139 -271 m 1xe0
 139 -47 l 1xe0
 420 -47 l 1
 420 1319 l 1xd0
 139 1319 l 1
 139 1547 l 1
 753 1547 l 1
 753 -271 l 1
 139 -271 l 1xe0
EndSplineSet
EndChar

StartChar: asciicircum
Encoding: 63 94 65
Width: 1701
VWidth: 3555
Flags: W
HStem: 929 554
LayerCount: 3
Fore
SplineSet
1496 929 m 1,0,-1
 1255 929 l 1,1,-1
 854 1231 l 1,2,-1
 448 929 l 1,3,-1
 207 929 l 1,4,-1
 729 1483 l 1,5,-1
 974 1483 l 1,6,-1
 1496 929 l 1,0,-1
EndSplineSet
Layer: 2
SplineSet
1496 929 m 1
 1255 929 l 1
 854 1231 l 1
 448 929 l 1
 207 929 l 1
 729 1483 l 1
 974 1483 l 1
 1496 929 l 1
EndSplineSet
EndChar

StartChar: underscore
Encoding: 64 95 66
Width: 1015
VWidth: 3555
Flags: W
HStem: -484 192<0 1017>
LayerCount: 3
Fore
SplineSet
1017 -484 m 1,0,-1
 0 -484 l 1,1,-1
 0 -292 l 1,2,-1
 1017 -292 l 1,3,-1
 1017 -484 l 1,0,-1
EndSplineSet
Layer: 2
SplineSet
1017 -484 m 1
 0 -484 l 1
 0 -292 l 1
 1017 -292 l 1
 1017 -484 l 1
EndSplineSet
EndChar

StartChar: grave
Encoding: 65 96 67
Width: 1015
VWidth: 3555
Flags: W
HStem: 1252 373
VStem: 92 562
LayerCount: 3
Fore
SplineSet
654 1252 m 1,0,-1
 462 1252 l 1,1,-1
 92 1625 l 1,2,-1
 373 1625 l 1,3,-1
 654 1252 l 1,0,-1
EndSplineSet
Layer: 2
SplineSet
654 1252 m 1
 462 1252 l 1
 92 1625 l 1
 373 1625 l 1
 654 1252 l 1
EndSplineSet
EndChar

StartChar: a
Encoding: 66 97 68
Width: 1371
VWidth: 3555
Flags: W
HStem: -28 235<361.5 687.935> 0 21G<858 1212> 502 210<497.866 858> 899 238<279.449 798.397>
VStem: 85 363<246.685 451.327> 858 354<0 163 313.441 502 712 844.68>
LayerCount: 3
Fore
SplineSet
668 502 m 2,0,1
 448 502 448 502 448 352 c 259,2,3
 448 285 448 285 490.5 246 c 128,-1,4
 533 207 533 207 615 207 c 259,5,6
 719 207 719 207 788.5 279.5 c 128,-1,7
 858 352 858 352 858 462 c 2,8,-1
 858 502 l 1,9,-1
 668 502 l 2,0,1
184 1085 m 1,10,11
 433 1137 433 1137 644 1137 c 259,12,13
 946 1137 946 1137 1079 1018 c 128,-1,14
 1212 899 1212 899 1212 634 c 2,15,-1
 1212 0 l 1,16,-1
 858 0 l 1,17,-1
 858 163 l 1,18,19
 783 64 783 64 692 18 c 128,-1,20
 601 -28 601 -28 472 -28 c 259,21,22
 302 -28 302 -28 193.5 73 c 128,-1,23
 85 174 85 174 85 335 c 259,24,25
 85 529 85 529 220.5 620.5 c 128,-1,26
 356 712 356 712 644 712 c 2,27,-1
 858 712 l 1,28,-1
 858 740 l 2,29,30
 858 825 858 825 790 862 c 128,-1,31
 722 899 722 899 580 899 c 259,32,33
 337 899 337 899 184 811 c 1,34,-1
 184 1085 l 1,10,11
EndSplineSet
Layer: 2
SplineSet
615 207 m 3xbc
 756 207 858 319 858 462 c 2
 858 502 l 1
 668 502 l 2
 521 502 448 452 448 352 c 3
 448 256 514 207 615 207 c 3xbc
644 1137 m 3
 1028 1137 1212 1006 1212 634 c 2
 1212 0 l 1
 858 0 l 1x7c
 858 163 l 1
 768 45 665 -28 472 -28 c 3
 251 -28 85 117 85 335 c 3
 85 633 316 712 644 712 c 2
 858 712 l 1
 858 740 l 2
 858 875 733 899 580 899 c 3
 415 899 293 874 184 811 c 1
 184 1085 l 1
 327 1115 479 1137 644 1137 c 3
EndSplineSet
Substitution2: "Single Substitution lookup 22 subtable" uni0E38
Substitution2: "Single Substitution lookup 22 subtable" uni0E38
EndChar

StartChar: b
Encoding: 67 98 69
Width: 1456
VWidth: 3555
Flags: W
HStem: -28 255<692.449 1050.24> 0 21G<170 529> 882 255<692.449 1051.24>
VStem: 170 359<0 160 330.465 778.357 950 1547> 998 363<334.076 768.704>
LayerCount: 3
Fore
SplineSet
760 227 m 259,0,1
 998 227 998 227 998 554 c 259,2,3
 998 882 998 882 760 882 c 259,4,5
 529 882 529 882 529 554 c 259,6,7
 529 227 529 227 760 227 c 259,0,1
529 950 m 1,8,9
 661 1137 661 1137 892 1137 c 259,10,11
 1098 1137 1098 1137 1229.5 974 c 128,-1,12
 1361 811 1361 811 1361 554 c 259,13,14
 1361 306 1361 306 1230.5 139 c 128,-1,15
 1100 -28 1100 -28 892 -28 c 259,16,17
 661 -28 661 -28 529 160 c 1,18,-1
 529 0 l 1,19,-1
 170 0 l 1,20,-1
 170 1547 l 1,21,-1
 529 1547 l 1,22,-1
 529 950 l 1,8,9
EndSplineSet
Layer: 2
SplineSet
760 227 m 3xb8
 919 227 998 336 998 554 c 259
 998 773 919 882 760 882 c 3
 606 882 529 773 529 554 c 256
 529 336 606 227 760 227 c 3xb8
529 950 m 1
 617 1075 738 1137 892 1137 c 3
 1202 1137 1361 869 1361 554 c 259
 1361 243 1200 -28 892 -28 c 3xb8
 738 -28 617 35 529 160 c 1
 529 0 l 1
 170 0 l 1x78
 170 1547 l 1
 529 1547 l 1
 529 950 l 1
EndSplineSet
Substitution2: "Single Substitution lookup 22 subtable" uni0E39
Substitution2: "Single Substitution lookup 22 subtable" uni0E39
EndChar

StartChar: c
Encoding: 68 99 70
Width: 1204
VWidth: 3555
Flags: W
HStem: -28 252<591.877 980.759> 882 255<588.196 983.962>
VStem: 85 373<358.461 749.86>
LayerCount: 3
Fore
SplineSet
1066 31 m 1,0,1
 910 -28 910 -28 729 -28 c 259,2,3
 427 -28 427 -28 256 125 c 128,-1,4
 85 278 85 278 85 554 c 259,5,6
 85 832 85 832 256 984.5 c 128,-1,7
 427 1137 427 1137 729 1137 c 259,8,9
 906 1137 906 1137 1066 1082 c 1,10,-1
 1066 790 l 1,11,12
 936 882 936 882 771 882 c 259,13,14
 618 882 618 882 538 798.5 c 128,-1,15
 458 715 458 715 458 554 c 259,16,17
 458 394 458 394 538 309 c 128,-1,18
 618 224 618 224 771 224 c 259,19,20
 941 224 941 224 1066 319 c 1,21,-1
 1066 31 l 1,0,1
EndSplineSet
Layer: 2
SplineSet
85 554 m 259
 85 936 340 1137 729 1137 c 3
 847 1137 959 1119 1066 1082 c 1
 1066 790 l 1
 985 847 898 882 771 882 c 3
 563 882 458 764 458 554 c 259
 458 345 564 224 771 224 c 3
 895 224 993 263 1066 319 c 1
 1066 31 l 1
 967 -6 857 -28 729 -28 c 3
 342 -28 85 174 85 554 c 259
EndSplineSet
Substitution2: "Single Substitution lookup 22 subtable" uni0E3A
Substitution2: "Single Substitution lookup 22 subtable" uni0E3A
EndChar

StartChar: d
Encoding: 69 100 71
Width: 1456
VWidth: 3555
Flags: W
HStem: -28 255<405.401 760.433> 0 21G<929 1283> 882 255<404.901 760.433>
VStem: 92 370<331.162 778.382> 929 354<0 160 336.293 772.514 950 1547>
LayerCount: 3
Fore
SplineSet
929 1547 m 1,0,-1
 1283 1547 l 1,1,-1
 1283 0 l 1,2,-1
 929 0 l 1,3,-1
 929 160 l 1,4,5
 786 -28 786 -28 562 -28 c 259,6,7
 356 -28 356 -28 224 138 c 128,-1,8
 92 304 92 304 92 554 c 259,9,10
 92 812 92 812 225 974.5 c 128,-1,11
 358 1137 358 1137 562 1137 c 259,12,13
 786 1137 786 1137 929 950 c 1,14,-1
 929 1547 l 1,0,-1
693 227 m 259,15,16
 929 227 929 227 929 554 c 259,17,18
 929 882 929 882 693 882 c 259,19,20
 462 882 462 882 462 554 c 259,21,22
 462 227 462 227 693 227 c 259,15,16
EndSplineSet
Layer: 2
SplineSet
929 1547 m 1xb8
 1283 1547 l 1
 1283 0 l 1
 929 0 l 1x78
 929 160 l 1
 834 35 711 -28 562 -28 c 3
 254 -28 92 243 92 554 c 259
 92 870 253 1137 562 1137 c 3
 711 1137 834 1075 929 950 c 1
 929 1547 l 1xb8
693 227 m 3xb8
 850 227 929 336 929 554 c 259
 929 773 850 882 693 882 c 3
 539 882 462 773 462 554 c 259
 462 336 539 227 693 227 c 3xb8
EndSplineSet
EndChar

StartChar: e
Encoding: 70 101 72
Width: 1378
VWidth: 3555
Flags: W
HStem: -28 235<567.084 1016.75> 458 217<455 913> 899 238<549.529 834.764>
VStem: 85 366<320.454 458 675 789.623>
LayerCount: 3
Fore
SplineSet
1231 68 m 1,0,1
 988 -28 988 -28 726 -28 c 259,2,3
 424 -28 424 -28 254.5 125 c 128,-1,4
 85 278 85 278 85 554 c 259,5,6
 85 832 85 832 251 984.5 c 128,-1,7
 417 1137 417 1137 705 1137 c 259,8,9
 963 1137 963 1137 1121 981 c 128,-1,10
 1279 825 1279 825 1279 559 c 2,11,-1
 1279 458 l 1,12,-1
 451 458 l 1,13,14
 472 207 472 207 757 207 c 259,15,16
 977 207 977 207 1231 342 c 1,17,-1
 1231 68 l 1,0,1
913 675 m 1,18,19
 913 779 913 779 856.5 839 c 128,-1,20
 800 899 800 899 705 899 c 259,21,22
 482 899 482 899 455 675 c 1,23,-1
 913 675 l 1,18,19
EndSplineSet
Layer: 2
SplineSet
705 1137 m 3
 1052 1137 1279 908 1279 559 c 2
 1279 458 l 1
 451 458 l 1
 465 291 567 207 757 207 c 3
 904 207 1062 252 1231 342 c 1
 1231 68 l 1
 1077 7 924 -28 726 -28 c 3
 338 -28 85 174 85 554 c 259
 85 929 328 1137 705 1137 c 3
913 675 m 1
 913 808 836 899 705 899 c 3
 551 899 472 818 455 675 c 1
 913 675 l 1
EndSplineSet
EndChar

StartChar: f
Encoding: 71 102 73
Width: 880
VWidth: 3555
Flags: W
HStem: 0 21G<214 569> 861 252<40 214 569 878> 1312 235<590.097 899>
VStem: 214 355<0 861 1113 1293.45>
LayerCount: 3
Fore
SplineSet
899 1312 m 1,0,-1
 708 1312 l 2,1,2
 628 1312 628 1312 598.5 1283.5 c 128,-1,3
 569 1255 569 1255 569 1191 c 2,4,-1
 569 1113 l 1,5,-1
 878 1113 l 1,6,-1
 878 861 l 1,7,-1
 569 861 l 1,8,-1
 569 0 l 1,9,-1
 214 0 l 1,10,-1
 214 861 l 1,11,-1
 40 861 l 1,12,-1
 40 1113 l 1,13,-1
 214 1113 l 1,14,-1
 214 1191 l 2,15,16
 214 1547 214 1547 628 1547 c 2,17,-1
 899 1547 l 1,18,-1
 899 1312 l 1,0,-1
EndSplineSet
Layer: 2
SplineSet
708 1312 m 2
 609 1312 569 1284 569 1191 c 2
 569 1113 l 1
 878 1113 l 1
 878 861 l 1
 569 861 l 1
 569 0 l 1
 214 0 l 1
 214 861 l 1
 40 861 l 1
 40 1113 l 1
 214 1113 l 1
 214 1191 l 2
 214 1428 352 1547 628 1547 c 2
 899 1547 l 1
 899 1312 l 1
 708 1312 l 2
EndSplineSet
EndChar

StartChar: g
Encoding: 72 103 74
Width: 1456
VWidth: 3555
Flags: W
HStem: -441 238<353.31 802.106> 0 260<411.617 759.01> 882 255<414.021 759.952> 1093 20G<929 1283>
VStem: 92 370<360.148 775.016> 929 354<-79.647 189 363.797 776.329 946 1113>
LayerCount: 3
Fore
SplineSet
227 -95 m 1,0,1
 398 -203 398 -203 590 -203 c 259,2,3
 764 -203 764 -203 846.5 -130 c 128,-1,4
 929 -57 929 -57 929 115 c 2,5,-1
 929 189 l 1,6,7
 786 0 786 0 562 0 c 259,8,9
 359 0 359 0 225.5 158 c 128,-1,10
 92 316 92 316 92 569 c 259,11,12
 92 821 92 821 225.5 979 c 128,-1,13
 359 1137 359 1137 562 1137 c 259,14,15
 790 1137 790 1137 929 946 c 1,16,-1
 929 1113 l 1,17,-1
 1283 1113 l 1,18,-1
 1283 115 l 2,19,20
 1283 -156 1283 -156 1114.5 -298.5 c 128,-1,21
 946 -441 946 -441 621 -441 c 259,22,23
 417 -441 417 -441 227 -373 c 1,24,-1
 227 -95 l 1,0,1
693 882 m 259,25,26
 583 882 583 882 522.5 800.5 c 128,-1,27
 462 719 462 719 462 569 c 259,28,29
 462 260 462 260 693 260 c 259,30,31
 807 260 807 260 868 340 c 128,-1,32
 929 420 929 420 929 569 c 259,33,34
 929 719 929 719 868 800.5 c 128,-1,35
 807 882 807 882 693 882 c 259,25,26
EndSplineSet
Layer: 2
SplineSet
590 -203 m 3xdc
 821 -203 929 -116 929 115 c 2
 929 189 l 1
 834 63 711 0 562 0 c 3
 271 0 92 260 92 569 c 259
 92 877 271 1137 562 1137 c 3xec
 714 1137 836 1073 929 946 c 1
 929 1113 l 1
 1283 1113 l 1
 1283 115 l 2
 1283 -271 1024 -441 621 -441 c 3
 485 -441 354 -418 227 -373 c 1
 227 -95 l 1
 329 -159 443 -203 590 -203 c 3xdc
929 569 m 259
 929 748 861 882 693 882 c 3
 529 882 462 745 462 569 c 3
 462 363 539 260 693 260 c 3
 861 260 929 391 929 569 c 259
EndSplineSet
EndChar

StartChar: h
Encoding: 73 104 75
Width: 1449
VWidth: 3555
Flags: W
HStem: 0 21G<170 529 932 1286> 871 266<699.734 1031.5>
VStem: 170 359<0 750.331 950 1547> 932 354<0 810.263>
LayerCount: 3
Fore
SplineSet
1286 0 m 1,0,-1
 932 0 l 1,1,-1
 932 519 l 2,2,3
 932 652 932 652 925.5 711 c 128,-1,4
 919 770 919 770 884.5 820.5 c 128,-1,5
 850 871 850 871 764 871 c 259,6,7
 654 871 654 871 591.5 783.5 c 128,-1,8
 529 696 529 696 529 543 c 2,9,-1
 529 0 l 1,10,-1
 170 0 l 1,11,-1
 170 1547 l 1,12,-1
 529 1547 l 1,13,-1
 529 950 l 1,14,15
 675 1137 675 1137 896 1137 c 259,16,17
 1088 1137 1088 1137 1187 1018 c 128,-1,18
 1286 899 1286 899 1286 675 c 2,19,-1
 1286 0 l 1,0,-1
EndSplineSet
Layer: 2
SplineSet
896 1137 m 3
 1167 1137 1286 955 1286 675 c 2
 1286 0 l 1
 932 0 l 1
 932 535 l 2
 932 724 930 871 764 871 c 3
 599 871 529 721 529 543 c 2
 529 0 l 1
 170 0 l 1
 170 1547 l 1
 529 1547 l 1
 529 950 l 1
 626 1075 749 1137 896 1137 c 3
EndSplineSet
EndChar

StartChar: i
Encoding: 74 105 76
Width: 692
VWidth: 3555
Flags: W
HStem: 0 21G<170 529> 1093 20G<170 529> 1252 295<170 529>
VStem: 170 359<0 1113 1252 1547>
LayerCount: 3
Fore
SplineSet
529 1113 m 1,0,-1
 529 0 l 1,1,-1
 170 0 l 1,2,-1
 170 1113 l 1,3,-1
 529 1113 l 1,0,-1
529 1547 m 1,4,-1
 529 1252 l 1,5,-1
 170 1252 l 1,6,-1
 170 1547 l 1,7,-1
 529 1547 l 1,4,-1
EndSplineSet
Layer: 2
SplineSet
529 1113 m 1
 529 0 l 1
 170 0 l 1
 170 1113 l 1
 529 1113 l 1
529 1547 m 1
 529 1252 l 1
 170 1252 l 1
 170 1547 l 1
 529 1547 l 1
EndSplineSet
EndChar

StartChar: j
Encoding: 75 106 77
Width: 692
VWidth: 3555
Flags: W
HStem: -441 234<-68 131.135> 1093 20G<170 529> 1252 295<170 529>
VStem: 170 359<-164.973 1113 1252 1547>
LayerCount: 3
Fore
SplineSet
529 1113 m 1,0,-1
 529 17 l 2,1,2
 529 -207 529 -207 419 -324 c 128,-1,3
 309 -441 309 -441 106 -441 c 2,4,-1
 -68 -441 l 1,5,-1
 -68 -207 l 1,6,-1
 -3 -207 l 2,7,8
 95 -207 95 -207 132.5 -162.5 c 128,-1,9
 170 -118 170 -118 170 17 c 2,10,-1
 170 1113 l 1,11,-1
 529 1113 l 1,0,-1
529 1547 m 1,12,-1
 529 1252 l 1,13,-1
 170 1252 l 1,14,-1
 170 1547 l 1,15,-1
 529 1547 l 1,12,-1
EndSplineSet
Layer: 2
SplineSet
-3 -207 m 2
 144 -207 170 -144 170 17 c 2
 170 1113 l 1
 529 1113 l 1
 529 17 l 2
 529 -270 387 -441 106 -441 c 2
 -68 -441 l 1
 -68 -207 l 1
 -3 -207 l 2
529 1547 m 1
 529 1252 l 1
 170 1252 l 1
 170 1547 l 1
 529 1547 l 1
EndSplineSet
EndChar

StartChar: k
Encoding: 76 107 78
Width: 1350
VWidth: 3555
Flags: W
HStem: 0 21G<170 529 941.342 1391> 1093 20G<916.049 1347>
VStem: 170 359<0 462 705 1547> 936 411<702 1113> 960 431<0 431>
DStem2: 529 705 807 601 0.72567 0.688043<130.18 576.069> 807 601 529 462 0.696891 -0.717177<0 537.648>
LayerCount: 3
Fore
SplineSet
529 1547 m 1,0,-1
 529 705 l 1,1,-1
 936 1113 l 1,2,-1
 1347 1113 l 1,3,-1
 807 601 l 1,4,-1
 1391 0 l 1,5,-1
 960 0 l 1,6,-1
 529 462 l 1,7,-1
 529 0 l 1,8,-1
 170 0 l 1,9,-1
 170 1547 l 1,10,-1
 529 1547 l 1,0,-1
EndSplineSet
Layer: 2
SplineSet
529 1547 m 1xe8
 529 705 l 1
 936 1113 l 1
 1347 1113 l 1xf0
 807 601 l 1
 1391 0 l 1
 960 0 l 1
 529 462 l 1
 529 0 l 1
 170 0 l 1
 170 1547 l 1
 529 1547 l 1xe8
EndSplineSet
EndChar

StartChar: l
Encoding: 77 108 79
Width: 692
VWidth: 3555
Flags: W
HStem: 0 21G<170 529>
VStem: 170 359<0 1547>
LayerCount: 3
Fore
SplineSet
529 1547 m 1,0,-1
 529 0 l 1,1,-1
 170 0 l 1,2,-1
 170 1547 l 1,3,-1
 529 1547 l 1,0,-1
EndSplineSet
Layer: 2
SplineSet
529 1547 m 1
 529 0 l 1
 170 0 l 1
 170 1547 l 1
 529 1547 l 1
EndSplineSet
EndChar

StartChar: m
Encoding: 78 109 80
Width: 2117
VWidth: 3555
Flags: W
HStem: 0 21G<170 529 882 1241 1601 1958> 871 266<680.211 948 1377.26 1701.5> 1093 20G<170 529>
VStem: 170 359<0 773.04 950 1113> 882 359<0 770.328> 1601 357<0 833.952>
LayerCount: 3
Fore
SplineSet
868 1137 m 259,0,1
 985 1137 985 1137 1074 1079 c 128,-1,2
 1163 1021 1163 1021 1201 929 c 1,3,4
 1260 1021 1260 1021 1352.5 1079 c 128,-1,5
 1445 1137 1445 1137 1564 1137 c 259,6,7
 1764 1137 1764 1137 1861 1016 c 128,-1,8
 1958 895 1958 895 1958 675 c 2,9,-1
 1958 0 l 1,10,-1
 1601 0 l 1,11,-1
 1601 648 l 2,12,13
 1601 754 1601 754 1573 812.5 c 128,-1,14
 1545 871 1545 871 1458 871 c 259,15,16
 1241 871 1241 871 1241 543 c 2,17,-1
 1241 0 l 1,18,-1
 882 0 l 1,19,-1
 882 622 l 2,20,21
 882 778 882 778 847.5 824.5 c 128,-1,22
 813 871 813 871 740 871 c 259,23,24
 529 871 529 871 529 543 c 2,25,-1
 529 0 l 1,26,-1
 170 0 l 1,27,-1
 170 1113 l 1,28,-1
 529 1113 l 1,29,-1
 529 950 l 1,30,31
 653 1137 653 1137 868 1137 c 259,0,1
EndSplineSet
Layer: 2
SplineSet
868 1137 m 3xdc
 1028 1137 1152 1048 1201 929 c 1
 1273 1042 1396 1137 1564 1137 c 3
 1839 1137 1958 958 1958 675 c 2
 1958 0 l 1
 1601 0 l 1
 1601 648 l 2
 1601 780 1578 871 1458 871 c 3
 1313 871 1241 762 1241 543 c 2
 1241 0 l 1
 882 0 l 1
 882 622 l 2
 882 758 876 871 740 871 c 3xdc
 599 871 529 762 529 543 c 2
 529 0 l 1
 170 0 l 1
 170 1113 l 1
 529 1113 l 1xbc
 529 950 l 1
 612 1075 725 1137 868 1137 c 3xdc
EndSplineSet
EndChar

StartChar: n
Encoding: 79 110 81
Width: 1449
VWidth: 3555
Flags: W
HStem: 0 21G<170 529 932 1286> 871 266<699.734 1031.5> 1093 20G<170 529>
VStem: 170 359<0 750.331 950 1113> 932 354<0 810.263>
LayerCount: 3
Fore
SplineSet
896 1137 m 259,0,1
 1093 1137 1093 1137 1189.5 1015 c 128,-1,2
 1286 893 1286 893 1286 675 c 2,3,-1
 1286 0 l 1,4,-1
 932 0 l 1,5,-1
 932 535 l 2,6,7
 932 745 932 745 894.5 808 c 128,-1,8
 857 871 857 871 764 871 c 259,9,10
 647 871 647 871 588 779 c 128,-1,11
 529 687 529 687 529 543 c 2,12,-1
 529 0 l 1,13,-1
 170 0 l 1,14,-1
 170 1113 l 1,15,-1
 529 1113 l 1,16,-1
 529 950 l 1,17,18
 674 1137 674 1137 896 1137 c 259,0,1
EndSplineSet
Layer: 2
SplineSet
896 1137 m 3xd8
 1167 1137 1286 955 1286 675 c 2
 1286 0 l 1
 932 0 l 1
 932 535 l 2
 932 724 930 871 764 871 c 3xd8
 599 871 529 721 529 543 c 2
 529 0 l 1
 170 0 l 1
 170 1113 l 1
 529 1113 l 1xb8
 529 950 l 1
 626 1075 749 1137 896 1137 c 3xd8
EndSplineSet
EndChar

StartChar: o
Encoding: 80 111 82
Width: 1395
VWidth: 3555
Flags: W
HStem: -28 252<560.352 833.72> 882 255<558.66 835.07>
VStem: 85 373<334.872 773.902> 939 370<333.858 774.102>
LayerCount: 3
Fore
SplineSet
696 224 m 259,0,1
 939 224 939 224 939 554 c 259,2,3
 939 882 939 882 696 882 c 259,4,5
 458 882 458 882 458 554 c 259,6,7
 458 224 458 224 696 224 c 259,0,1
696 1137 m 259,8,9
 984 1137 984 1137 1146.5 984.5 c 128,-1,10
 1309 832 1309 832 1309 554 c 259,11,12
 1309 278 1309 278 1146.5 125 c 128,-1,13
 984 -28 984 -28 696 -28 c 259,14,15
 410 -28 410 -28 247.5 125 c 128,-1,16
 85 278 85 278 85 554 c 259,17,18
 85 832 85 832 247.5 984.5 c 128,-1,19
 410 1137 410 1137 696 1137 c 259,8,9
EndSplineSet
Layer: 2
SplineSet
696 224 m 3
 875 224 939 363 939 554 c 3
 939 773 858 882 696 882 c 3
 537 882 458 773 458 554 c 3
 458 367 522 224 696 224 c 3
85 554 m 259
 85 928 320 1137 696 1137 c 259
 1074 1137 1309 929 1309 554 c 259
 1309 181 1073 -28 696 -28 c 259
 321 -28 85 182 85 554 c 259
EndSplineSet
EndChar

StartChar: p
Encoding: 81 112 83
Width: 1456
VWidth: 3555
Flags: W
HStem: -424 21G<170 529> -28 255<692.449 1050.24> 882 255<692.449 1051.24> 1093 20G<170 529>
VStem: 170 359<-424 160 330.465 778.357 950 1113> 998 363<334.076 768.704>
LayerCount: 3
Fore
SplineSet
529 -424 m 1,0,-1
 170 -424 l 1,1,-1
 170 1113 l 1,2,-1
 529 1113 l 1,3,-1
 529 950 l 1,4,5
 661 1137 661 1137 892 1137 c 259,6,7
 1098 1137 1098 1137 1229.5 974 c 128,-1,8
 1361 811 1361 811 1361 554 c 259,9,10
 1361 306 1361 306 1230.5 139 c 128,-1,11
 1100 -28 1100 -28 892 -28 c 259,12,13
 661 -28 661 -28 529 160 c 1,14,-1
 529 -424 l 1,0,-1
760 882 m 259,15,16
 529 882 529 882 529 554 c 259,17,18
 529 227 529 227 760 227 c 259,19,20
 998 227 998 227 998 554 c 259,21,22
 998 882 998 882 760 882 c 259,15,16
EndSplineSet
Layer: 2
SplineSet
529 -424 m 1xec
 170 -424 l 1
 170 1113 l 1
 529 1113 l 1xdc
 529 950 l 1
 617 1075 738 1137 892 1137 c 3
 1202 1137 1361 869 1361 554 c 259
 1361 243 1200 -28 892 -28 c 3
 738 -28 617 35 529 160 c 1
 529 -424 l 1xec
760 882 m 3xec
 606 882 529 773 529 554 c 259
 529 336 606 227 760 227 c 3
 919 227 998 336 998 554 c 259
 998 773 919 882 760 882 c 3xec
EndSplineSet
EndChar

StartChar: q
Encoding: 82 113 84
Width: 1456
VWidth: 3555
Flags: W
HStem: -424 21G<929 1283> -28 255<405.401 760.433> 882 255<404.901 761.375> 1093 20G<929 1283>
VStem: 92 370<331.162 778.382> 929 354<-424 160 336.293 772.514 946 1113>
LayerCount: 3
Fore
SplineSet
693 882 m 259,0,1
 462 882 462 882 462 554 c 259,2,3
 462 227 462 227 693 227 c 259,4,5
 929 227 929 227 929 554 c 259,6,7
 929 882 929 882 693 882 c 259,0,1
929 160 m 1,8,9
 786 -28 786 -28 562 -28 c 259,10,11
 356 -28 356 -28 224 138 c 128,-1,12
 92 304 92 304 92 554 c 259,13,14
 92 812 92 812 225 974.5 c 128,-1,15
 358 1137 358 1137 562 1137 c 259,16,17
 790 1137 790 1137 929 946 c 1,18,-1
 929 1113 l 1,19,-1
 1283 1113 l 1,20,-1
 1283 -424 l 1,21,-1
 929 -424 l 1,22,-1
 929 160 l 1,8,9
EndSplineSet
Layer: 2
SplineSet
693 882 m 3xec
 539 882 462 773 462 554 c 259
 462 336 539 227 693 227 c 3
 850 227 929 336 929 554 c 259
 929 773 850 882 693 882 c 3xec
929 160 m 1
 834 35 711 -28 562 -28 c 3
 254 -28 92 243 92 554 c 259
 92 870 253 1137 562 1137 c 3xec
 714 1137 836 1073 929 946 c 1
 929 1113 l 1
 1283 1113 l 1xdc
 1283 -424 l 1
 929 -424 l 1
 929 160 l 1
EndSplineSet
EndChar

StartChar: r
Encoding: 83 114 85
Width: 1001
VWidth: 3555
Flags: W
HStem: 0 21G<170 529> 854 283<699.524 995.62> 1093 20G<170 529>
VStem: 170 359<0 723.957 929 1113>
LayerCount: 3
Fore
SplineSet
896 1137 m 259,0,1
 926 1137 926 1137 998 1130 c 1,2,-1
 998 811 l 1,3,4
 900 854 900 854 811 854 c 259,5,6
 672 854 672 854 600.5 764.5 c 128,-1,7
 529 675 529 675 529 516 c 2,8,-1
 529 0 l 1,9,-1
 170 0 l 1,10,-1
 170 1113 l 1,11,-1
 529 1113 l 1,12,-1
 529 929 l 1,13,14
 654 1137 654 1137 896 1137 c 259,0,1
EndSplineSet
Layer: 2
SplineSet
896 1137 m 3xd0
 934 1137 954 1134 998 1130 c 1
 998 811 l 1
 940 836 887 854 811 854 c 3xd0
 616 854 529 716 529 516 c 2
 529 0 l 1
 170 0 l 1
 170 1113 l 1
 529 1113 l 1xb0
 529 929 l 1
 612 1068 735 1137 896 1137 c 3xd0
EndSplineSet
EndChar

StartChar: s
Encoding: 84 115 86
Width: 1208
VWidth: 3555
Flags: W
HStem: -28 235<273.422 744.914> 899 238<441.231 913.245>
VStem: 102 318<729.214 867.554> 779 334<241.696 397.755>
DStem2: 590 696 529 437 0.995767 -0.0919169<-153.77 205.956>
LayerCount: 3
Fore
SplineSet
590 -28 m 3,0,1
 331 -28 331 -28 125 43 c 1,2,-1
 125 309 l 1,3,4
 339 207 339 207 559 207 c 259,5,6
 779 207 779 207 779 319 c 3,7,8
 779 366 779 366 742 393.5 c 128,-1,9
 705 421 705 421 594 431 c 2,10,-1
 529 437 l 2,11,12
 294 459 294 459 198 547 c 128,-1,13
 102 635 102 635 102 793 c 3,14,15
 102 1137 102 1137 597 1137 c 3,16,17
 790 1137 790 1137 1038 1082 c 1,18,-1
 1038 807 l 1,19,20
 832 899 832 899 626 899 c 259,21,22
 420 899 420 899 420 800 c 3,23,24
 420 715 420 715 590 696 c 2,25,-1
 651 689 l 2,26,27
 926 658 926 658 1019.5 578.5 c 152,-1,28
 1113 499 1113 499 1113 326 c 3,29,30
 1113 -28 1113 -28 590 -28 c 3,0,1
EndSplineSet
Layer: 2
SplineSet
590 -28 m 3
 424 -28 259 -3 125 43 c 1
 125 309 l 1
 268 241 415 207 566 207 c 3
 708 207 779 244 779 319 c 3
 779 409 701 421 594 431 c 2
 529 437 l 2
 266 461 102 557 102 793 c 3
 102 1022 267 1137 597 1137 c 3
 726 1137 873 1119 1038 1082 c 1
 1038 807 l 1
 909 865 781 899 615 899 c 3
 485 899 420 866 420 800 c 3
 420 725 502 706 590 696 c 2
 651 689 l 2
 954 655 1113 590 1113 326 c 3
 1113 90 939 -28 590 -28 c 3
EndSplineSet
EndChar

StartChar: t
Encoding: 85 116 87
Width: 970
VWidth: 3555
Flags: W
HStem: 0 252<576.729 892> 861 252<24 203 559 924>
VStem: 203 356<274.247 861 1113 1425>
LayerCount: 3
Fore
SplineSet
559 1113 m 1,0,-1
 924 1113 l 1,1,-1
 924 861 l 1,2,-1
 559 861 l 1,3,-1
 559 384 l 2,4,5
 559 306 559 306 588.5 279 c 128,-1,6
 618 252 618 252 712 252 c 2,7,-1
 892 252 l 1,8,-1
 892 0 l 1,9,-1
 590 0 l 2,10,11
 377 0 377 0 290 85 c 128,-1,12
 203 170 203 170 203 384 c 2,13,-1
 203 861 l 1,14,-1
 24 861 l 1,15,-1
 24 1113 l 1,16,-1
 203 1113 l 1,17,-1
 203 1425 l 1,18,-1
 559 1425 l 1,19,-1
 559 1113 l 1,0,-1
EndSplineSet
Layer: 2
SplineSet
590 0 m 2
 304 0 203 98 203 384 c 2
 203 861 l 1
 24 861 l 1
 24 1113 l 1
 203 1113 l 1
 203 1425 l 1
 559 1425 l 1
 559 1113 l 1
 924 1113 l 1
 924 861 l 1
 559 861 l 1
 559 384 l 2
 559 272 594 252 712 252 c 2
 892 252 l 1
 892 0 l 1
 590 0 l 2
EndSplineSet
EndChar

StartChar: u
Encoding: 86 117 88
Width: 1449
VWidth: 3555
Flags: W
HStem: -28 266<414.5 746.335> 0 21G<917 1272> 1093 20G<160 516 917 1272>
VStem: 160 356<299.09 1113> 917 355<0 160 350.348 1113>
LayerCount: 3
Fore
SplineSet
547 -28 m 259,0,1
 354 -28 354 -28 257 95 c 128,-1,2
 160 218 160 218 160 434 c 2,3,-1
 160 1113 l 1,4,-1
 516 1113 l 1,5,-1
 516 539 l 2,6,7
 516 345 516 345 557 291.5 c 128,-1,8
 598 238 598 238 682 238 c 259,9,10
 801 238 801 238 859 328 c 128,-1,11
 917 418 917 418 917 562 c 2,12,-1
 917 1113 l 1,13,-1
 1272 1113 l 1,14,-1
 1272 0 l 1,15,-1
 917 0 l 1,16,-1
 917 160 l 1,17,18
 771 -28 771 -28 547 -28 c 259,0,1
EndSplineSet
Layer: 2
SplineSet
547 -28 m 3xb8
 282 -28 160 155 160 434 c 2
 160 1113 l 1
 516 1113 l 1
 516 539 l 2
 516 370 526 238 682 238 c 3xb8
 850 238 917 384 917 562 c 2
 917 1113 l 1
 1272 1113 l 1
 1272 0 l 1
 917 0 l 1x78
 917 160 l 1
 820 35 696 -28 547 -28 c 3xb8
EndSplineSet
EndChar

StartChar: v
Encoding: 87 118 89
Width: 1321
VWidth: 3555
Flags: W
HStem: 0 21G<457.147 868.871> 1093 20G<28 391.214 931.76 1299>
DStem2: 384 1113 28 1113 0.365471 -0.930823<0 816.107> 661 345 861 0 0.366196 0.930538<0 816.455>
LayerCount: 3
Fore
SplineSet
384 1113 m 1,0,-1
 661 345 l 1,1,-1
 939 1113 l 1,2,-1
 1299 1113 l 1,3,-1
 861 0 l 1,4,-1
 465 0 l 1,5,-1
 28 1113 l 1,6,-1
 384 1113 l 1,0,-1
EndSplineSet
Layer: 2
SplineSet
384 1113 m 1
 661 345 l 1
 939 1113 l 1
 1299 1113 l 1
 861 0 l 1
 465 0 l 1
 28 1113 l 1
 384 1113 l 1
EndSplineSet
EndChar

StartChar: w
Encoding: 88 119 90
Width: 1876
VWidth: 3555
Flags: W
HStem: 0 21G<360.771 757.869 1122.08 1522.18> 1093 20G<75 424.714 788 1092.86 1459.9 1805>
VStem: 75 345<768 1113> 1465 340<773 1113>
DStem2: 420 1113 75 1113 0.252953 -0.967479<0 788.808> 601 345 753 0 0.242536 0.970143<0 488.467> 1088 1113 939 764 0.238945 -0.971033<303.288 779.038> 1272 356 1517 0 0.250509 0.968114<0 781.211>
LayerCount: 3
Fore
SplineSet
420 1113 m 1,0,-1
 601 345 l 1,1,-1
 793 1113 l 1,2,-1
 1088 1113 l 1,3,-1
 1272 356 l 1,4,-1
 1465 1113 l 1,5,-1
 1805 1113 l 1,6,-1
 1517 0 l 1,7,-1
 1127 0 l 1,8,-1
 939 764 l 1,9,-1
 753 0 l 1,10,-1
 366 0 l 1,11,-1
 75 1113 l 1,12,-1
 420 1113 l 1,0,-1
EndSplineSet
Layer: 2
SplineSet
420 1113 m 1
 601 345 l 1
 793 1113 l 1
 1088 1113 l 1
 1272 356 l 1
 1465 1113 l 1
 1805 1113 l 1
 1517 0 l 1
 1127 0 l 1
 939 764 l 1
 753 0 l 1
 366 0 l 1
 75 1113 l 1
 420 1113 l 1
EndSplineSet
EndChar

StartChar: x
Encoding: 89 120 91
Width: 1310
VWidth: 3555
Flags: W
HStem: 0 21G<28 423.864 888.852 1279> 1093 20G<54 444.515 868.182 1259>
VStem: 28 382<0 382> 54 377<736 1113> 882 377<736 1113> 903 376<0 376>
DStem2: 654 783 861 569 0.590463 0.807065<0 400.957> 861 569 654 352 0.592039 -0.805909<52.3303 483.428>
LayerCount: 3
Fore
SplineSet
54 1113 m 1,0,-1
 431 1113 l 1,1,-1
 654 783 l 1,2,-1
 882 1113 l 1,3,-1
 1259 1113 l 1,4,-1
 861 569 l 1,5,-1
 1279 0 l 1,6,-1
 903 0 l 1,7,-1
 654 352 l 1,8,-1
 410 0 l 1,9,-1
 28 0 l 1,10,-1
 451 569 l 1,11,-1
 54 1113 l 1,0,-1
EndSplineSet
Layer: 2
SplineSet
54 1113 m 1xd0
 431 1113 l 1
 654 783 l 1
 882 1113 l 1
 1259 1113 l 1xd8
 861 569 l 1
 1279 0 l 1
 903 0 l 1
 654 352 l 1
 410 0 l 1
 28 0 l 1xe4
 451 569 l 1
 54 1113 l 1xd0
EndSplineSet
EndChar

StartChar: y
Encoding: 90 121 92
Width: 1321
VWidth: 3555
Flags: W
HStem: -441 234<203 457.572> 1093 20G<24 387.931 925.289 1286>
DStem2: 380 1113 24 1113 0.395161 -0.918612<0 810.786> 512 -75 821 -102 0.357433 0.933939<-136.47 30.082 465.021 1097.8>
LayerCount: 3
Fore
SplineSet
380 1113 m 1,0,-1
 679 359 l 1,1,-1
 932 1113 l 1,2,-1
 1286 1113 l 1,3,-1
 821 -102 l 2,4,5
 737 -321 737 -321 643.5 -381 c 128,-1,6
 550 -441 550 -441 413 -441 c 2,7,-1
 203 -441 l 1,8,-1
 203 -207 l 1,9,-1
 312 -207 l 2,10,11
 400 -207 400 -207 441.5 -178 c 128,-1,12
 483 -149 483 -149 512 -75 c 2,13,-1
 523 -47 l 1,14,-1
 24 1113 l 1,15,-1
 380 1113 l 1,0,-1
EndSplineSet
Layer: 2
SplineSet
380 1113 m 1
 679 359 l 1
 932 1113 l 1
 1286 1113 l 1
 821 -102 l 2
 741 -312 661 -441 413 -441 c 2
 203 -441 l 1
 203 -207 l 1
 312 -207 l 2
 434 -207 475 -169 512 -75 c 2
 523 -47 l 1
 24 1113 l 1
 380 1113 l 1
EndSplineSet
EndChar

StartChar: z
Encoding: 91 122 93
Width: 1182
VWidth: 3555
Flags: W
HStem: 0 252<502 1088> 861 252<118 675>
DStem2: 92 245 502 252 0.689244 0.724529<287.662 848.139>
LayerCount: 3
Fore
SplineSet
1088 1113 m 1,0,-1
 1088 868 l 1,1,-1
 502 252 l 1,2,-1
 1088 252 l 1,3,-1
 1088 0 l 1,4,-1
 92 0 l 1,5,-1
 92 245 l 1,6,-1
 675 861 l 1,7,-1
 118 861 l 1,8,-1
 118 1113 l 1,9,-1
 1088 1113 l 1,0,-1
EndSplineSet
Layer: 2
SplineSet
1088 1113 m 1
 1088 868 l 1
 502 252 l 1
 1088 252 l 1
 1088 0 l 1
 92 0 l 1
 92 245 l 1
 675 861 l 1
 118 861 l 1
 118 1113 l 1
 1088 1113 l 1
EndSplineSet
EndChar

StartChar: braceleft
Encoding: 92 123 94
Width: 1449
VWidth: 3555
Flags: W
HStem: -335 229<951.526 1194> 495 217<252 490.005> 1319 228<938.963 1194>
VStem: 562 337<-50.9306 420.185 778.605 1273>
LayerCount: 3
Fore
SplineSet
1194 -335 m 1,0,-1
 977 -335 l 2,1,2
 760 -335 760 -335 661 -247.5 c 128,-1,3
 562 -160 562 -160 562 31 c 2,4,-1
 562 224 l 2,5,6
 562 373 562 373 508.5 434 c 128,-1,7
 455 495 455 495 312 495 c 2,8,-1
 252 495 l 1,9,-1
 252 712 l 1,10,-1
 312 712 l 2,11,12
 455 712 455 712 508.5 768.5 c 128,-1,13
 562 825 562 825 562 974 c 2,14,-1
 562 1180 l 2,15,16
 562 1373 562 1373 661 1460 c 128,-1,17
 760 1547 760 1547 977 1547 c 2,18,-1
 1194 1547 l 1,19,-1
 1194 1319 l 1,20,-1
 1123 1319 l 2,21,22
 984 1319 984 1319 941.5 1276.5 c 128,-1,23
 899 1234 899 1234 899 1095 c 2,24,-1
 899 929 l 2,25,26
 899 767 899 767 855 700.5 c 128,-1,27
 811 634 811 634 705 608 c 1,28,29
 814 580 814 580 856.5 510.5 c 128,-1,30
 899 441 899 441 899 285 c 2,31,-1
 899 125 l 2,32,33
 899 -22 899 -22 941.5 -64 c 128,-1,34
 984 -106 984 -106 1123 -106 c 2,35,-1
 1194 -106 l 1,36,-1
 1194 -335 l 1,0,-1
EndSplineSet
Layer: 2
SplineSet
705 608 m 1
 859 569 899 485 899 285 c 2
 899 125 l 2
 899 -58 940 -106 1123 -106 c 2
 1194 -106 l 1
 1194 -335 l 1
 977 -335 l 2
 701 -335 562 -237 562 31 c 2
 562 224 l 2
 562 420 506 495 312 495 c 2
 252 495 l 1
 252 712 l 1
 312 712 l 2
 507 712 562 777 562 974 c 2
 562 1180 l 2
 562 1449 700 1547 977 1547 c 2
 1194 1547 l 1
 1194 1319 l 1
 1123 1319 l 2
 936 1319 899 1282 899 1095 c 2
 899 929 l 2
 899 726 859 646 705 608 c 1
EndSplineSet
EndChar

StartChar: bar
Encoding: 93 124 95
Width: 743
VWidth: 3555
Flags: W
VStem: 260 228<-484 1554>
LayerCount: 3
Fore
SplineSet
488 -484 m 1,0,-1
 260 -484 l 1,1,-1
 260 1554 l 1,2,-1
 488 1554 l 1,3,-1
 488 -484 l 1,0,-1
EndSplineSet
Layer: 2
SplineSet
488 -484 m 1
 260 -484 l 1
 260 1554 l 1
 488 1554 l 1
 488 -484 l 1
EndSplineSet
EndChar

StartChar: braceright
Encoding: 94 125 96
Width: 1449
VWidth: 3555
Flags: W
HStem: -335 229<252 494.468> 495 217<952.266 1194> 1319 228<252 494.556>
VStem: 543 339<-50.9306 426.19 777.979 1273>
LayerCount: 3
Fore
SplineSet
319 -106 m 2,0,1
 462 -106 462 -106 502.5 -64 c 128,-1,2
 543 -22 543 -22 543 125 c 2,3,-1
 543 285 l 2,4,5
 543 441 543 441 590 510.5 c 128,-1,6
 637 580 637 580 746 608 c 1,7,8
 637 634 637 634 590 700.5 c 128,-1,9
 543 767 543 767 543 929 c 2,10,-1
 543 1095 l 2,11,12
 543 1234 543 1234 503 1276.5 c 128,-1,13
 463 1319 463 1319 319 1319 c 2,14,-1
 252 1319 l 1,15,-1
 252 1547 l 1,16,-1
 469 1547 l 2,17,18
 686 1547 686 1547 784 1460 c 128,-1,19
 882 1373 882 1373 882 1180 c 2,20,-1
 882 974 l 2,21,22
 882 825 882 825 933 768.5 c 128,-1,23
 984 712 984 712 1134 712 c 2,24,-1
 1194 712 l 1,25,-1
 1194 495 l 1,26,-1
 1134 495 l 2,27,28
 984 495 984 495 933 434 c 128,-1,29
 882 373 882 373 882 224 c 2,30,-1
 882 31 l 2,31,32
 882 -160 882 -160 784 -247.5 c 128,-1,33
 686 -335 686 -335 469 -335 c 2,34,-1
 252 -335 l 1,35,-1
 252 -106 l 1,36,-1
 319 -106 l 2,0,1
EndSplineSet
Layer: 2
SplineSet
882 31 m 2
 882 -237 745 -335 469 -335 c 2
 252 -335 l 1
 252 -106 l 1
 319 -106 l 2
 503 -106 543 -59 543 125 c 2
 543 285 l 2
 543 485 592 569 746 608 c 1
 589 645 543 725 543 929 c 2
 543 1095 l 2
 543 1275 499 1319 319 1319 c 2
 252 1319 l 1
 252 1547 l 1
 469 1547 l 2
 746 1547 882 1449 882 1180 c 2
 882 974 l 2
 882 774 933 712 1134 712 c 2
 1194 712 l 1
 1194 495 l 1
 1134 495 l 2
 933 495 882 424 882 224 c 2
 882 31 l 2
EndSplineSet
EndChar

StartChar: asciitilde
Encoding: 95 126 97
Width: 1701
VWidth: 3555
Flags: W
HStem: 455 231<933.785 1321.39> 590 231<383.021 768.784>
LayerCount: 3
Fore
SplineSet
1486 601 m 1,0,1
 1392 529 1392 529 1305 492 c 128,-1,2
 1218 455 1218 455 1109 455 c 259,3,4
 994 455 994 455 791 538 c 280,5,6
 664 590 664 590 569 590 c 259,7,8
 392 590 392 590 214 434 c 1,9,-1
 214 672 l 1,10,11
 310 746 310 746 397 783.5 c 128,-1,12
 484 821 484 821 594 821 c 259,13,14
 693 821 693 821 870 754 c 256,15,16
 1053 686 1053 686 1134 686 c 259,17,18
 1237 686 1237 686 1316 726 c 128,-1,19
 1395 766 1395 766 1486 845 c 1,20,-1
 1486 601 l 1,0,1
EndSplineSet
Layer: 2
SplineSet
1486 601 m 1x80
 1376 517 1266 455 1109 455 c 3x80
 1004 455 895 500 791 538 c 0
 714 566 639 590 569 590 c 3
 427 590 310 518 214 434 c 1
 214 672 l 1
 326 758 435 821 594 821 c 3x40
 689 821 780 788 870 754 c 0
 960 720 1048 686 1134 686 c 259
 1284 686 1382 755 1486 845 c 1
 1486 601 l 1x80
EndSplineSet
EndChar

StartChar: Adieresis
Encoding: 132 196 98
Width: 1574
VWidth: 3555
Flags: W
HStem: 0 21G<10 398.38 1173.21 1564> 271 269<583 988> 1463 20G<551.596 1021.42> 1639 248<448 682 838 1073>
VStem: 448 234<1639 1887> 838 235<1639 1887>
DStem2: 1014 1483 790 1134 0.347726 -0.937596<249.33 875.112 1162.1 1427.86> 1564 0 988 540 0.347726 -0.937596<-1332.37 -706.592 -419.606 -133.527>
LayerCount: 3
Fore
SplineSet
491 271 m 1,0,-1
 391 0 l 1,1,-1
 10 0 l 1,2,-1
 559 1483 l 1,3,-1
 1014 1483 l 1,4,-1
 1564 0 l 1,5,-1
 1180 0 l 1,6,-1
 1088 271 l 1,7,-1
 491 271 l 1,0,-1
988 540 m 1,8,-1
 790 1134 l 1,9,-1
 583 540 l 1,10,-1
 988 540 l 1,8,-1
682 1887 m 1,11,-1
 682 1639 l 1,12,-1
 448 1639 l 1,13,-1
 448 1887 l 1,14,-1
 682 1887 l 1,11,-1
1073 1887 m 1,15,-1
 1073 1639 l 1,16,-1
 838 1639 l 1,17,-1
 838 1887 l 1,18,-1
 1073 1887 l 1,15,-1
EndSplineSet
Layer: 2
SplineSet
491 271 m 1
 391 0 l 1
 10 0 l 1
 559 1483 l 1
 1014 1483 l 1
 1564 0 l 1
 1180 0 l 1
 1088 271 l 1
 491 271 l 1
988 540 m 1
 790 1134 l 1
 583 540 l 1
 988 540 l 1
682 1887 m 1
 682 1639 l 1
 448 1639 l 1
 448 1887 l 1
 682 1887 l 1
1073 1887 m 1
 1073 1639 l 1
 838 1639 l 1
 838 1887 l 1
 1073 1887 l 1
EndSplineSet
EndChar

StartChar: Aring
Encoding: 133 197 99
Width: 1574
VWidth: 3555
Flags: W
HStem: 0 21G<10 398.38 1173.21 1564> 271 269<583 988> 1731 161<689.96 879.768>
VStem: 505 153<1507.56 1698.1> 913 153<1505.57 1696.89>
DStem2: 10 0 391 0 0.34397 0.938981<131.053 419.913 704.144 1333.1> 1564 0 988 540 0.347944 -0.937515<-1332.45 -706.674 -419.688 -133.61>
LayerCount: 3
Fore
SplineSet
543 1455 m 1,0,1
 505 1539 505 1539 505 1604 c 259,2,3
 505 1720 505 1720 587.5 1806 c 128,-1,4
 670 1892 670 1892 790 1892 c 259,5,6
 902 1892 902 1892 984 1803.5 c 128,-1,7
 1066 1715 1066 1715 1066 1604 c 259,8,9
 1066 1514 1066 1514 1024 1455 c 1,10,-1
 1564 0 l 1,11,-1
 1180 0 l 1,12,-1
 1088 271 l 1,13,-1
 491 271 l 1,14,-1
 391 0 l 1,15,-1
 10 0 l 1,16,-1
 543 1455 l 1,0,1
658 1604 m 259,17,18
 658 1550 658 1550 695.5 1513 c 128,-1,19
 733 1476 733 1476 790 1476 c 259,20,21
 842 1476 842 1476 877.5 1513 c 128,-1,22
 913 1550 913 1550 913 1604 c 259,23,24
 913 1656 913 1656 875.5 1693.5 c 128,-1,25
 838 1731 838 1731 790 1731 c 259,26,27
 733 1731 733 1731 695.5 1693.5 c 128,-1,28
 658 1656 658 1656 658 1604 c 259,17,18
988 540 m 1,29,-1
 790 1134 l 1,30,-1
 583 540 l 1,31,-1
 988 540 l 1,29,-1
EndSplineSet
Layer: 2
SplineSet
543 1455 m 1
 525 1495 505 1546 505 1604 c 3
 505 1767 627 1892 790 1892 c 3
 945 1892 1066 1759 1066 1604 c 3
 1066 1544 1052 1494 1024 1455 c 1
 1564 0 l 1
 1180 0 l 1
 1088 271 l 1
 491 271 l 1
 391 0 l 1
 10 0 l 1
 543 1455 l 1
790 1731 m 3
 717 1731 658 1675 658 1604 c 259
 658 1531 716 1476 790 1476 c 3
 860 1476 913 1534 913 1604 c 259
 913 1671 855 1731 790 1731 c 3
988 540 m 1
 790 1134 l 1
 583 540 l 1
 988 540 l 1
EndSplineSet
EndChar

StartChar: Ccedilla
Encoding: 135 199 100
Width: 1492
VWidth: 3555
Flags: W
HStem: -398 150<635.626 904.448> -373 153<628 781> -27 272<745.141 876.071> 1234 273<743.615 1184.74>
VStem: 99 399<505.932 977.47> 913 169<-235.988 -92.5497>
LayerCount: 3
Back
SplineSet
936 245 m 3
 1119 245 1241 302 1361 387 c 1
 1361 82 l 1
 1222 9 1070 -28 903 -28 c 3
 411.65186896 -28 99 250.732014569 99 740 c 259
 99 1228.12097489 413.403497662 1507 903 1507 c 3
 1070 1507 1222 1470 1361 1397 c 1
 1361 1092 l 1
 1240 1177 1119 1234 936 1234 c 3
 654 1234 498 1028 498 740 c 259
 498 451 654 245 936 245 c 3
967 0 m 1
 1044 -88 1082 -159 1082 -214 c 3
 1082 -337 999 -398 832 -398 c 3
 767 -398 688 -386 634 -373 c 1
 628 -220 l 1
 700 -239 756 -248 797 -248 c 3
 874 -248 913 -221 913 -167 c 3
 913 -134 886 -79 832 0 c 1
 967 0 l 1
EndSplineSet
Fore
SplineSet
936 245 m 259,0,1
 1065 245 1065 245 1163.5 281 c 128,-1,2
 1262 317 1262 317 1361 387 c 1,3,-1
 1361 82 l 1,4,5
 1187 -9 1187 -9 988 -25 c 1,6,7
 1082 -140 1082 -140 1082 -214 c 259,8,9
 1082 -398 1082 -398 832 -398 c 259,10,11
 738 -398 738 -398 634 -373 c 1,12,-1
 628 -220 l 1,13,14
 734 -248 734 -248 797 -248 c 259,15,16
 913 -248 913 -248 913 -167 c 259,17,18
 913 -124 913 -124 850 -27 c 1,19,20
 500 -12 500 -12 299.5 189 c 128,-1,21
 99 390 99 390 99 740 c 259,22,23
 99 1102 99 1102 315.5 1304.5 c 128,-1,24
 532 1507 532 1507 903 1507 c 259,25,26
 1152 1507 1152 1507 1361 1397 c 1,27,-1
 1361 1092 l 1,28,29
 1261 1162 1261 1162 1162.5 1198 c 128,-1,30
 1064 1234 1064 1234 936 1234 c 259,31,32
 729 1234 729 1234 613.5 1098 c 128,-1,33
 498 962 498 962 498 740 c 259,34,35
 498 518 498 518 613.5 381.5 c 128,-1,36
 729 245 729 245 936 245 c 259,0,1
EndSplineSet
Layer: 2
SplineSet
936 245 m 3xbc
 1119 245 1241 302 1361 387 c 1
 1361 82 l 1
 1246 22 1122 -14 988 -25 c 1
 1051 -102 1082 -164 1082 -214 c 3
 1082 -337 999 -398 832 -398 c 3xbc
 767 -398 688 -386 634 -373 c 1
 628 -220 l 1x7c
 700 -239 756 -248 797 -248 c 3
 874 -248 913 -221 913 -167 c 3
 913 -138 892 -92 850 -27 c 1
 389 -7 99 269 99 740 c 3
 99 1228 413 1507 903 1507 c 3
 1070 1507 1222 1470 1361 1397 c 1
 1361 1092 l 1
 1240 1177 1119 1234 936 1234 c 3
 654 1234 498 1028 498 740 c 3
 498 451 654 245 936 245 c 3xbc
EndSplineSet
EndChar

StartChar: Eacute
Encoding: 137 201 101
Width: 1385
VWidth: 3555
Flags: W
HStem: 0 288<569 1238> 628 285<569 1180> 1194 289<569 1224>
VStem: 184 385<288 628 913 1194>
LayerCount: 3
Fore
SplineSet
1224 1483 m 1,0,-1
 1224 1194 l 1,1,-1
 569 1194 l 1,2,-1
 569 913 l 1,3,-1
 1180 913 l 1,4,-1
 1180 628 l 1,5,-1
 569 628 l 1,6,-1
 569 288 l 1,7,-1
 1238 288 l 1,8,-1
 1238 0 l 1,9,-1
 184 0 l 1,10,-1
 184 1483 l 1,11,-1
 1224 1483 l 1,0,-1
1017 1887 m 1,12,-1
 736 1621 l 1,13,-1
 540 1621 l 1,14,-1
 736 1887 l 1,15,-1
 1017 1887 l 1,12,-1
EndSplineSet
Layer: 2
SplineSet
1224 1483 m 1
 1224 1194 l 1
 569 1194 l 1
 569 913 l 1
 1180 913 l 1
 1180 628 l 1
 569 628 l 1
 569 288 l 1
 1238 288 l 1
 1238 0 l 1
 184 0 l 1
 184 1483 l 1
 1224 1483 l 1
1017 1887 m 1
 736 1621 l 1
 540 1621 l 1
 736 1887 l 1
 1017 1887 l 1
EndSplineSet
EndChar

StartChar: Ntilde
Encoding: 145 209 102
Width: 1697
VWidth: 3555
Flags: W
HStem: 0 21G<184 543 1077.28 1517> 1463 20G<184 621.707 1156 1517> 1621 150<845.941 1008.13> 1738 149<617.28 775.162>
VStem: 184 359<0 1017> 469 137<1621 1731.06> 1022 139<1781.32 1887> 1156 361<465 1483>
DStem2: 611 1483 543 1017 0.471981 -0.881609<378.735 1154.71>
LayerCount: 3
Fore
SplineSet
1161 1856 m 2,0,1
 1161 1757 1161 1757 1106.5 1689 c 128,-1,2
 1052 1621 1052 1621 962 1621 c 259,3,4
 886 1621 886 1621 776 1693 c 0,5,6
 707 1738 707 1738 677 1738 c 259,7,8
 606 1738 606 1738 606 1625 c 2,9,-1
 606 1621 l 1,10,-1
 469 1621 l 1,11,-1
 469 1649 l 2,12,13
 469 1752 469 1752 520.5 1819.5 c 128,-1,14
 572 1887 572 1887 663 1887 c 259,15,16
 731 1887 731 1887 819 1831 c 0,17,18
 913 1771 913 1771 944 1771 c 259,19,20
 1022 1771 1022 1771 1022 1887 c 1,21,-1
 1161 1887 l 1,22,-1
 1161 1856 l 2,0,1
611 1483 m 1,23,-1
 1156 465 l 1,24,-1
 1156 1483 l 1,25,-1
 1517 1483 l 1,26,-1
 1517 0 l 1,27,-1
 1088 0 l 1,28,-1
 543 1017 l 1,29,-1
 543 0 l 1,30,-1
 184 0 l 1,31,-1
 184 1483 l 1,32,-1
 611 1483 l 1,23,-1
EndSplineSet
Layer: 2
SplineSet
1161 1856 m 2xd6
 1161 1728 1086 1621 962 1621 c 3xe6
 887 1621 827 1660 776 1693 c 0
 739 1717 707 1738 677 1738 c 3xd6
 630 1738 606 1700 606 1625 c 2
 606 1621 l 1
 469 1621 l 1xe6
 469 1649 l 2
 469 1781 537 1887 663 1887 c 3xd6
 720 1887 771 1861 816 1834 c 0
 867 1803 910 1771 944 1771 c 3xe6
 996 1771 1022 1810 1022 1887 c 1
 1161 1887 l 1
 1161 1856 l 2xd6
611 1483 m 1
 1156 465 l 1
 1156 1483 l 1
 1517 1483 l 1
 1517 0 l 1
 1088 0 l 1
 543 1017 l 1
 543 0 l 1
 184 0 l 1
 184 1483 l 1xc9
 611 1483 l 1
EndSplineSet
EndChar

StartChar: Odieresis
Encoding: 150 214 103
Width: 1727
VWidth: 3555
Flags: W
HStem: -28 273<692.759 1040.27> 1234 273<692.903 1040.27> 1639 248<529 764 920 1156>
VStem: 99 399<470.148 1009.24> 529 235<1639 1887> 920 236<1639 1887> 1234 391<481.347 998.273>
LayerCount: 3
Fore
SplineSet
868 1234 m 0,0,1
 686 1234 686 1234 592 1104 c 128,-1,2
 498 974 498 974 498 740 c 256,3,4
 498 505 498 505 592 375 c 128,-1,5
 686 245 686 245 868 245 c 0,6,7
 1038 245 1038 245 1136 375 c 128,-1,8
 1234 505 1234 505 1234 740 c 256,9,10
 1234 974 1234 974 1136 1104 c 128,-1,11
 1038 1234 1038 1234 868 1234 c 0,0,1
868 1507 m 256,12,13
 1231 1507 1231 1507 1428 1304.5 c 128,-1,14
 1625 1102 1625 1102 1625 740 c 256,15,16
 1625 377 1625 377 1428 174.5 c 128,-1,17
 1231 -28 1231 -28 868 -28 c 256,18,19
 505 -28 505 -28 302 174.5 c 128,-1,20
 99 377 99 377 99 740 c 256,21,22
 99 1102 99 1102 302 1304.5 c 128,-1,23
 505 1507 505 1507 868 1507 c 256,12,13
764 1887 m 1,24,-1
 764 1639 l 1,25,-1
 529 1639 l 1,26,-1
 529 1887 l 1,27,-1
 764 1887 l 1,24,-1
1156 1887 m 1,28,-1
 1156 1639 l 1,29,-1
 920 1639 l 1,30,-1
 920 1887 l 1,31,-1
 1156 1887 l 1,28,-1
EndSplineSet
Layer: 2
SplineSet
1234 740 m 259
 1234 1014 1123 1234 868 1234 c 3
 602 1234 498 1021 498 740 c 259
 498 458 602 245 868 245 c 3
 1123 245 1234 466 1234 740 c 259
99 740 m 259
 99 1222 386 1507 868 1507 c 259
 1351 1507 1625 1222 1625 740 c 259
 1625 257 1351 -28 868 -28 c 259
 385 -28 99 257 99 740 c 259
764 1887 m 1
 764 1639 l 1
 529 1639 l 1
 529 1887 l 1
 764 1887 l 1
1156 1887 m 1
 1156 1639 l 1
 920 1639 l 1
 920 1887 l 1
 1156 1887 l 1
EndSplineSet
EndChar

StartChar: Udieresis
Encoding: 156 220 104
Width: 1649
VWidth: 3555
Flags: W
HStem: -28 276<670.32 980.844> 1463 20G<184 569 1085 1465> 1639 248<488 722 878 1113>
VStem: 184 385<366.847 1483> 488 234<1639 1887> 878 235<1639 1887> 1085 380<362.204 1483>
LayerCount: 3
Fore
SplineSet
569 1483 m 1,0,-1
 569 594 l 2,1,2
 569 413 569 413 629 330.5 c 128,-1,3
 689 248 689 248 825 248 c 256,4,5
 960 248 960 248 1022.5 330.5 c 128,-1,6
 1085 413 1085 413 1085 594 c 2,7,-1
 1085 1483 l 1,8,-1
 1465 1483 l 1,9,-1
 1465 594 l 2,10,11
 1465 281 1465 281 1310.5 126.5 c 128,-1,12
 1156 -28 1156 -28 825 -28 c 0,13,14
 184 -28 184 -28 184 594 c 2,15,-1
 184 1483 l 1,16,-1
 569 1483 l 1,0,-1
722 1887 m 1,17,-1
 722 1639 l 1,18,-1
 488 1639 l 1,19,-1
 488 1887 l 1,20,-1
 722 1887 l 1,17,-1
1113 1887 m 1,21,-1
 1113 1639 l 1,22,-1
 878 1639 l 1,23,-1
 878 1887 l 1,24,-1
 1113 1887 l 1,21,-1
EndSplineSet
Layer: 2
SplineSet
1465 594 m 2xf2
 1465 167 1258 -28 825 -28 c 3
 398 -28 184 179 184 594 c 2
 184 1483 l 1
 569 1483 l 1
 569 594 l 2
 569 378 624 248 825 248 c 259
 1025 248 1085 378 1085 594 c 2
 1085 1483 l 1
 1465 1483 l 1
 1465 594 l 2xf2
722 1887 m 1xe8
 722 1639 l 1
 488 1639 l 1
 488 1887 l 1
 722 1887 l 1xe8
1113 1887 m 1xe4
 1113 1639 l 1
 878 1639 l 1
 878 1887 l 1
 1113 1887 l 1xe4
EndSplineSet
EndChar

StartChar: aacute
Encoding: 161 225 105
Width: 1371
VWidth: 3555
Flags: W
HStem: -28 235<361.5 687.935> 0 21G<858 1212> 502 210<497.866 858> 899 238<279.449 798.397>
VStem: 85 363<246.685 451.327> 858 354<0 163 313.441 502 712 844.68>
LayerCount: 3
Fore
SplineSet
668 502 m 1,0,1
 448 502 448 502 448 352 c 0,2,3
 448 285 448 285 490.5 246 c 128,-1,4
 533 207 533 207 615 207 c 0,5,6
 719 207 719 207 788.5 279.5 c 128,-1,7
 858 352 858 352 858 462 c 2,8,-1
 858 502 l 1,9,-1
 668 502 l 1,0,1
1212 0 m 1,10,-1
 858 0 l 1,11,-1
 858 163 l 1,12,13
 783 64 783 64 692 18 c 128,-1,14
 601 -28 601 -28 472 -28 c 0,15,16
 302 -28 302 -28 193.5 73 c 128,-1,17
 85 174 85 174 85 335 c 0,18,19
 85 529 85 529 220.5 620.5 c 128,-1,20
 356 712 356 712 644 712 c 2,21,-1
 858 712 l 1,22,-1
 858 740 l 2,23,24
 858 825 858 825 790 862 c 128,-1,25
 722 899 722 899 580 899 c 0,26,27
 465 899 465 899 368 880 c 128,-1,28
 271 861 271 861 184 811 c 1,29,-1
 184 1085 l 1,30,31
 299 1109 299 1109 414 1123 c 128,-1,32
 529 1137 529 1137 644 1137 c 0,33,34
 946 1137 946 1137 1079 1018 c 128,-1,35
 1212 899 1212 899 1212 634 c 2,36,-1
 1212 0 l 1,10,-1
1109 1625 m 1,37,-1
 743 1252 l 1,38,-1
 547 1252 l 1,39,-1
 828 1625 l 1,40,-1
 1109 1625 l 1,37,-1
EndSplineSet
Layer: 2
SplineSet
615 207 m 3xbc
 756 207 858 319 858 462 c 2
 858 502 l 1
 668 502 l 2
 521 502 448 452 448 352 c 3
 448 256 514 207 615 207 c 3xbc
644 1137 m 3
 1028 1137 1212 1006 1212 634 c 2
 1212 0 l 1
 858 0 l 1x7c
 858 163 l 1
 768 45 665 -28 472 -28 c 3
 251 -28 85 117 85 335 c 3
 85 633 316 712 644 712 c 2
 858 712 l 1
 858 740 l 2
 858 875 733 899 580 899 c 3
 415 899 293 874 184 811 c 1
 184 1085 l 1
 327 1115 479 1137 644 1137 c 3
1109 1625 m 1
 743 1252 l 1
 547 1252 l 1
 828 1625 l 1
 1109 1625 l 1
EndSplineSet
EndChar

StartChar: agrave
Encoding: 160 224 106
Width: 1371
VWidth: 3555
Flags: W
HStem: -28 235<361.5 687.935> 0 21G<858 1212> 502 210<497.866 858> 899 238<279.449 798.397>
VStem: 85 363<246.685 451.327> 858 354<0 163 313.441 502 712 844.68>
LayerCount: 3
Fore
SplineSet
668 502 m 1,0,1
 448 502 448 502 448 352 c 0,2,3
 448 285 448 285 490.5 246 c 128,-1,4
 533 207 533 207 615 207 c 0,5,6
 719 207 719 207 788.5 279.5 c 128,-1,7
 858 352 858 352 858 462 c 2,8,-1
 858 502 l 1,9,-1
 668 502 l 1,0,1
1212 0 m 1,10,-1
 858 0 l 1,11,-1
 858 163 l 1,12,13
 783 64 783 64 692 18 c 128,-1,14
 601 -28 601 -28 472 -28 c 0,15,16
 302 -28 302 -28 193.5 73 c 128,-1,17
 85 174 85 174 85 335 c 0,18,19
 85 529 85 529 220.5 620.5 c 128,-1,20
 356 712 356 712 644 712 c 2,21,-1
 858 712 l 1,22,-1
 858 740 l 2,23,24
 858 825 858 825 790 862 c 128,-1,25
 722 899 722 899 580 899 c 0,26,27
 465 899 465 899 368 880 c 128,-1,28
 271 861 271 861 184 811 c 1,29,-1
 184 1085 l 1,30,31
 299 1109 299 1109 414 1123 c 128,-1,32
 529 1137 529 1137 644 1137 c 0,33,34
 946 1137 946 1137 1079 1018 c 128,-1,35
 1212 899 1212 899 1212 634 c 2,36,-1
 1212 0 l 1,10,-1
838 1252 m 1,37,-1
 648 1252 l 1,38,-1
 278 1625 l 1,39,-1
 559 1625 l 1,40,-1
 838 1252 l 1,37,-1
EndSplineSet
Layer: 2
SplineSet
615 207 m 3xbc
 756 207 858 319 858 462 c 2
 858 502 l 1
 668 502 l 2
 521 502 448 452 448 352 c 3
 448 256 514 207 615 207 c 3xbc
644 1137 m 3
 1028 1137 1212 1006 1212 634 c 2
 1212 0 l 1
 858 0 l 1x7c
 858 163 l 1
 768 45 665 -28 472 -28 c 3
 251 -28 85 117 85 335 c 3
 85 633 316 712 644 712 c 2
 858 712 l 1
 858 740 l 2
 858 875 733 899 580 899 c 3
 415 899 293 874 184 811 c 1
 184 1085 l 1
 327 1115 479 1137 644 1137 c 3
838 1252 m 1
 648 1252 l 1
 278 1625 l 1
 559 1625 l 1
 838 1252 l 1
EndSplineSet
EndChar

StartChar: acircumflex
Encoding: 162 226 107
Width: 1371
VWidth: 3555
Flags: W
HStem: -28 235<361.5 687.935> 0 21G<858 1212> 502 210<497.866 858> 899 238<279.449 798.397>
VStem: 85 363<246.685 451.327> 858 354<0 163 313.441 502 712 844.68>
LayerCount: 3
Fore
SplineSet
668 502 m 1,0,1
 448 502 448 502 448 352 c 0,2,3
 448 285 448 285 490.5 246 c 128,-1,4
 533 207 533 207 615 207 c 0,5,6
 719 207 719 207 788.5 279.5 c 128,-1,7
 858 352 858 352 858 462 c 2,8,-1
 858 502 l 1,9,-1
 668 502 l 1,0,1
1212 0 m 1,10,-1
 858 0 l 1,11,-1
 858 163 l 1,12,13
 783 64 783 64 692 18 c 128,-1,14
 601 -28 601 -28 472 -28 c 0,15,16
 302 -28 302 -28 193.5 73 c 128,-1,17
 85 174 85 174 85 335 c 0,18,19
 85 529 85 529 220.5 620.5 c 128,-1,20
 356 712 356 712 644 712 c 2,21,-1
 858 712 l 1,22,-1
 858 740 l 2,23,24
 858 825 858 825 790 862 c 128,-1,25
 722 899 722 899 580 899 c 0,26,27
 465 899 465 899 368 880 c 128,-1,28
 271 861 271 861 184 811 c 1,29,-1
 184 1085 l 1,30,31
 299 1109 299 1109 414 1123 c 128,-1,32
 529 1137 529 1137 644 1137 c 0,33,34
 946 1137 946 1137 1079 1018 c 128,-1,35
 1212 899 1212 899 1212 634 c 2,36,-1
 1212 0 l 1,10,-1
814 1625 m 1,37,-1
 1066 1252 l 1,38,-1
 892 1252 l 1,39,-1
 696 1476 l 1,40,-1
 495 1252 l 1,41,-1
 319 1252 l 1,42,-1
 573 1625 l 1,43,-1
 814 1625 l 1,37,-1
EndSplineSet
Layer: 2
SplineSet
615 207 m 3xbc
 756 207 858 319 858 462 c 2
 858 502 l 1
 668 502 l 2
 521 502 448 452 448 352 c 3
 448 256 514 207 615 207 c 3xbc
644 1137 m 3
 1028 1137 1212 1006 1212 634 c 2
 1212 0 l 1
 858 0 l 1x7c
 858 163 l 1
 768 45 665 -28 472 -28 c 3
 251 -28 85 117 85 335 c 3
 85 633 316 712 644 712 c 2
 858 712 l 1
 858 740 l 2
 858 875 733 899 580 899 c 3
 415 899 293 874 184 811 c 1
 184 1085 l 1
 327 1115 479 1137 644 1137 c 3
814 1625 m 1
 1066 1252 l 1
 892 1252 l 1
 696 1476 l 1
 495 1252 l 1
 319 1252 l 1
 573 1625 l 1
 814 1625 l 1
EndSplineSet
EndChar

StartChar: adieresis
Encoding: 164 228 108
Width: 1371
VWidth: 3555
Flags: W
HStem: -28 235<361.5 687.935> 0 21G<858 1212> 502 210<497.866 858> 899 238<279.449 798.397> 1326 249<380 615 771 1007>
VStem: 85 363<246.685 451.327> 380 235<1326 1575> 771 236<1326 1575> 858 354<0 163 313.441 502 712 844.68>
LayerCount: 3
Fore
SplineSet
668 502 m 1,0,1
 448 502 448 502 448 352 c 0,2,3
 448 285 448 285 490.5 246 c 128,-1,4
 533 207 533 207 615 207 c 0,5,6
 719 207 719 207 788.5 279.5 c 128,-1,7
 858 352 858 352 858 462 c 2,8,-1
 858 502 l 1,9,-1
 668 502 l 1,0,1
1212 0 m 1,10,-1
 858 0 l 1,11,-1
 858 163 l 1,12,13
 783 64 783 64 692 18 c 128,-1,14
 601 -28 601 -28 472 -28 c 0,15,16
 302 -28 302 -28 193.5 73 c 128,-1,17
 85 174 85 174 85 335 c 0,18,19
 85 529 85 529 220.5 620.5 c 128,-1,20
 356 712 356 712 644 712 c 2,21,-1
 858 712 l 1,22,-1
 858 740 l 2,23,24
 858 825 858 825 790 862 c 128,-1,25
 722 899 722 899 580 899 c 0,26,27
 465 899 465 899 368 880 c 128,-1,28
 271 861 271 861 184 811 c 1,29,-1
 184 1085 l 1,30,31
 299 1109 299 1109 414 1123 c 128,-1,32
 529 1137 529 1137 644 1137 c 0,33,34
 946 1137 946 1137 1079 1018 c 128,-1,35
 1212 899 1212 899 1212 634 c 2,36,-1
 1212 0 l 1,10,-1
615 1575 m 1,37,-1
 615 1326 l 1,38,-1
 380 1326 l 1,39,-1
 380 1575 l 1,40,-1
 615 1575 l 1,37,-1
1007 1575 m 1,41,-1
 1007 1326 l 1,42,-1
 771 1326 l 1,43,-1
 771 1575 l 1,44,-1
 1007 1575 l 1,41,-1
EndSplineSet
Layer: 2
SplineSet
615 207 m 3xba
 756 207 858 319 858 462 c 2
 858 502 l 1
 668 502 l 2
 521 502 448 452 448 352 c 3xbc80
 448 256 514 207 615 207 c 3xba
644 1137 m 3
 1028 1137 1212 1006 1212 634 c 2
 1212 0 l 1
 858 0 l 1x7c80
 858 163 l 1
 768 45 665 -28 472 -28 c 3
 251 -28 85 117 85 335 c 3
 85 633 316 712 644 712 c 2
 858 712 l 1
 858 740 l 2
 858 875 733 899 580 899 c 3
 415 899 293 874 184 811 c 1
 184 1085 l 1
 327 1115 479 1137 644 1137 c 3
615 1575 m 1x3a
 615 1326 l 1
 380 1326 l 1
 380 1575 l 1
 615 1575 l 1x3a
1007 1575 m 1x39
 1007 1326 l 1
 771 1326 l 1
 771 1575 l 1
 1007 1575 l 1x39
EndSplineSet
EndChar

StartChar: atilde
Encoding: 163 227 109
Width: 1371
VWidth: 3555
Flags: W
HStem: -28 235<361.5 687.935> 0 21G<858 1212> 502 210<497.866 858> 899 238<279.449 798.397> 1299 156<729.859 887.348> 1425 156<499.651 655.077>
VStem: 85 363<246.685 451.327> 349 139<1302 1415.06> 858 354<0 163 313.441 502 712 844.68> 903 139<1464.51 1578>
DStem2: 750 1483 641 1391 0.778198 -0.628019<-111.714 75.2489>
LayerCount: 3
Fore
SplineSet
668 502 m 1,0,1
 448 502 448 502 448 352 c 0,2,3
 448 285 448 285 490.5 246 c 128,-1,4
 533 207 533 207 615 207 c 0,5,6
 719 207 719 207 788.5 279.5 c 128,-1,7
 858 352 858 352 858 462 c 2,8,-1
 858 502 l 1,9,-1
 668 502 l 1,0,1
1212 0 m 1,10,-1
 858 0 l 1,11,-1
 858 163 l 1,12,13
 783 64 783 64 692 18 c 128,-1,14
 601 -28 601 -28 472 -28 c 0,15,16
 302 -28 302 -28 193.5 73 c 128,-1,17
 85 174 85 174 85 335 c 0,18,19
 85 529 85 529 220.5 620.5 c 128,-1,20
 356 712 356 712 644 712 c 2,21,-1
 858 712 l 1,22,-1
 858 740 l 2,23,24
 858 825 858 825 790 862 c 128,-1,25
 722 899 722 899 580 899 c 0,26,27
 465 899 465 899 368 880 c 128,-1,28
 271 861 271 861 184 811 c 1,29,-1
 184 1085 l 1,30,31
 299 1109 299 1109 414 1123 c 128,-1,32
 529 1137 529 1137 644 1137 c 0,33,34
 946 1137 946 1137 1079 1018 c 128,-1,35
 1212 899 1212 899 1212 634 c 2,36,-1
 1212 0 l 1,10,-1
641 1391 m 1,37,-1
 634 1397 l 1,38,39
 583 1425 583 1425 559 1425 c 0,40,41
 488 1425 488 1425 488 1309 c 2,42,-1
 488 1302 l 1,43,-1
 349 1302 l 1,44,45
 349 1432 349 1432 400 1506.5 c 128,-1,46
 451 1581 451 1581 543 1581 c 0,47,48
 576 1581 576 1581 613.5 1567.5 c 128,-1,49
 651 1554 651 1554 693 1529 c 1,50,-1
 750 1483 l 2,51,52
 797 1455 797 1455 825 1455 c 0,53,54
 861 1455 861 1455 882 1486 c 128,-1,55
 903 1517 903 1517 903 1571 c 2,56,-1
 903 1578 l 1,57,-1
 1042 1578 l 1,58,59
 1042 1448 1042 1448 989 1373.5 c 128,-1,60
 936 1299 936 1299 842 1299 c 0,61,62
 804 1299 804 1299 773.5 1309 c 128,-1,63
 743 1319 743 1319 696 1351 c 2,64,-1
 641 1391 l 1,37,-1
EndSplineSet
Layer: 2
SplineSet
615 207 m 3xb280
 756 207 858 319 858 462 c 2
 858 502 l 1
 668 502 l 2
 521 502 448 452 448 352 c 3
 448 256 514 207 615 207 c 3xb280
644 1137 m 3
 1028 1137 1212 1006 1212 634 c 2
 1212 0 l 1
 858 0 l 1x7280
 858 163 l 1
 768 45 665 -28 472 -28 c 3
 251 -28 85 117 85 335 c 3
 85 633 316 712 644 712 c 2
 858 712 l 1
 858 740 l 2
 858 875 733 899 580 899 c 3
 415 899 293 874 184 811 c 1
 184 1085 l 1
 327 1115 479 1137 644 1137 c 3
1042 1578 m 1x3940
 1042 1427 983 1299 842 1299 c 3x3940
 773 1299 746 1315 696 1351 c 2
 641 1391 l 2
 613 1411 572 1425 559 1425 c 3
 509 1425 488 1382 488 1302 c 1
 349 1302 l 1
 349 1452 404 1581 543 1581 c 3x3540
 602 1581 653 1561 693 1529 c 2
 750 1483 l 2
 778 1460 806 1455 825 1455 c 3
 884 1455 903 1514 903 1578 c 1
 1042 1578 l 1x3940
EndSplineSet
EndChar

StartChar: aring
Encoding: 165 229 110
Width: 1371
VWidth: 3555
Flags: W
HStem: -28 235<361.5 687.935> 0 21G<858 1212> 502 210<497.866 858> 899 238<279.449 798.397> 1238 156<601.24 791.239> 1649 153<597.556 789.644>
VStem: 85 363<246.685 451.327> 410 156<1426.21 1615.91> 825 152<1428.49 1613.12> 858 354<0 163 313.441 502 712 844.68>
LayerCount: 3
Fore
SplineSet
668 502 m 1,0,1
 448 502 448 502 448 352 c 0,2,3
 448 285 448 285 490.5 246 c 128,-1,4
 533 207 533 207 615 207 c 0,5,6
 719 207 719 207 788.5 279.5 c 128,-1,7
 858 352 858 352 858 462 c 2,8,-1
 858 502 l 1,9,-1
 668 502 l 1,0,1
1212 0 m 1,10,-1
 858 0 l 1,11,-1
 858 163 l 1,12,13
 783 64 783 64 692 18 c 128,-1,14
 601 -28 601 -28 472 -28 c 0,15,16
 302 -28 302 -28 193.5 73 c 128,-1,17
 85 174 85 174 85 335 c 0,18,19
 85 529 85 529 220.5 620.5 c 128,-1,20
 356 712 356 712 644 712 c 2,21,-1
 858 712 l 1,22,-1
 858 740 l 2,23,24
 858 825 858 825 790 862 c 128,-1,25
 722 899 722 899 580 899 c 0,26,27
 465 899 465 899 368 880 c 128,-1,28
 271 861 271 861 184 811 c 1,29,-1
 184 1085 l 1,30,31
 299 1109 299 1109 414 1123 c 128,-1,32
 529 1137 529 1137 644 1137 c 0,33,34
 946 1137 946 1137 1079 1018 c 128,-1,35
 1212 899 1212 899 1212 634 c 2,36,-1
 1212 0 l 1,10,-1
566 1526 m 0,37,38
 566 1469 566 1469 603.5 1431.5 c 128,-1,39
 641 1394 641 1394 696 1394 c 0,40,41
 746 1394 746 1394 785.5 1431.5 c 128,-1,42
 825 1469 825 1469 825 1526 c 0,43,44
 825 1575 825 1575 785.5 1612 c 128,-1,45
 746 1649 746 1649 696 1649 c 0,46,47
 641 1649 641 1649 603.5 1612 c 128,-1,48
 566 1575 566 1575 566 1526 c 0,37,38
410 1526 m 0,49,50
 410 1639 410 1639 493 1720.5 c 128,-1,51
 576 1802 576 1802 696 1802 c 0,52,53
 750 1802 750 1802 802 1781 c 128,-1,54
 854 1760 854 1760 893 1723 c 128,-1,55
 932 1686 932 1686 954.5 1633.5 c 128,-1,56
 977 1581 977 1581 977 1526 c 0,57,58
 977 1404 977 1404 892 1321 c 128,-1,59
 807 1238 807 1238 696 1238 c 0,60,61
 576 1238 576 1238 493 1321 c 128,-1,62
 410 1404 410 1404 410 1526 c 0,49,50
EndSplineSet
Layer: 2
SplineSet
615 207 m 3xbe40
 756 207 858 319 858 462 c 2
 858 502 l 1
 668 502 l 2
 521 502 448 452 448 352 c 3
 448 256 514 207 615 207 c 3xbe40
644 1137 m 3
 1028 1137 1212 1006 1212 634 c 2
 1212 0 l 1
 858 0 l 1x7e40
 858 163 l 1
 768 45 665 -28 472 -28 c 3
 251 -28 85 117 85 335 c 3
 85 633 316 712 644 712 c 2
 858 712 l 1
 858 740 l 2
 858 875 733 899 580 899 c 3
 415 899 293 874 184 811 c 1
 184 1085 l 1
 327 1115 479 1137 644 1137 c 3
696 1649 m 3
 626 1649 566 1594 566 1526 c 3
 566 1452 622 1394 696 1394 c 3
 766 1394 825 1454 825 1526 c 3x3d80
 825 1591 761 1649 696 1649 c 3
696 1238 m 3
 536 1238 410 1366 410 1526 c 3
 410 1679 541 1802 696 1802 c 3
 855.648281392 1802 977 1684.18222046 977 1526 c 3
 977 1370.42183778 848.218552059 1238 696 1238 c 3
EndSplineSet
EndChar

StartChar: ccedilla
Encoding: 167 231 111
Width: 1204
VWidth: 3555
Flags: W
HStem: -398 150<443.648 713.03> -373 153<437 590> 882 255<588.196 983.962>
VStem: 85 373<364.038 749.86> 722 167<-233.264 -93.6715>
LayerCount: 3
Back
SplineSet
85 554 m 259
 85 936 340 1137 729 1137 c 3
 847 1137 959 1119 1066 1082 c 1
 1066 790 l 1
 985 847 898 882 771 882 c 3
 563 882 458 764 458 554 c 259
 458 345 564 224 771 224 c 3
 895 224 993 263 1066 319 c 1
 1066 31 l 1
 967 -6 857 -28 729 -28 c 3
 342 -28 85 174 85 554 c 259
774 0 m 1
 851 -88 889 -159 889 -214 c 3
 889 -337 806 -398 641 -398 c 3
 574 -398 498 -386 441 -373 c 1
 437 -220 l 1
 508 -239 563 -248 604 -248 c 3
 683 -248 722 -221 722 -167 c 3
 722 -134 695 -79 641 0 c 1
 774 0 l 1
EndSplineSet
Fore
SplineSet
85 554 m 259,0,1
 85 835 85 835 258 986 c 128,-1,2
 431 1137 431 1137 729 1137 c 259,3,4
 907 1137 907 1137 1066 1082 c 1,5,-1
 1066 790 l 1,6,7
 935 882 935 882 771 882 c 259,8,9
 616 882 616 882 537 797.5 c 128,-1,10
 458 713 458 713 458 554 c 259,11,12
 458 396 458 396 537.5 310 c 128,-1,13
 617 224 617 224 771 224 c 259,14,15
 942 224 942 224 1066 319 c 1,16,-1
 1066 31 l 1,17,18
 935 -18 935 -18 796 -26 c 1,19,20
 889 -140 889 -140 889 -214 c 259,21,22
 889 -398 889 -398 641 -398 c 259,23,24
 551 -398 551 -398 441 -373 c 1,25,-1
 437 -220 l 1,26,27
 542 -248 542 -248 604 -248 c 259,28,29
 722 -248 722 -248 722 -167 c 259,30,31
 722 -123 722 -123 658 -26 c 1,32,33
 392 -8 392 -8 238.5 142 c 128,-1,34
 85 292 85 292 85 554 c 259,0,1
EndSplineSet
Layer: 2
SplineSet
85 554 m 0xb8
 85 936 340 1137 729 1137 c 3
 847 1137 959 1119 1066 1082 c 1
 1066 790 l 1
 985 847 898 882 771 882 c 3
 563 882 458 764 458 554 c 3
 458 345 564 224 771 224 c 3
 895 224 993 263 1066 319 c 1
 1066 31 l 1
 985 1 896 -20 796 -26 c 1
 858 -102 889 -165 889 -214 c 3
 889 -337 806 -398 641 -398 c 3xb8
 574 -398 498 -386 441 -373 c 1
 437 -220 l 1x78
 508 -239 563 -248 604 -248 c 3
 683 -248 722 -221 722 -167 c 3
 722 -138 701 -91 658 -26 c 1
 311 -2 85 198 85 554 c 0xb8
EndSplineSet
EndChar

StartChar: eacute
Encoding: 169 233 112
Width: 1378
VWidth: 3555
Flags: W
HStem: -28 235<567.084 1016.75> 458 217<455 913> 899 238<549.529 834.764>
VStem: 85 366<320.454 458 675 789.623>
LayerCount: 3
Fore
SplineSet
1279 458 m 1,0,-1
 451 458 l 1,1,2
 472 207 472 207 757 207 c 0,3,4
 977 207 977 207 1231 342 c 1,5,-1
 1231 68 l 1,6,7
 1102 17 1102 17 978 -5.5 c 128,-1,8
 854 -28 854 -28 726 -28 c 0,9,10
 424 -28 424 -28 254.5 125 c 128,-1,11
 85 278 85 278 85 554 c 256,12,13
 85 832 85 832 251 984.5 c 128,-1,14
 417 1137 417 1137 705 1137 c 0,15,16
 963 1137 963 1137 1121 981 c 128,-1,17
 1279 825 1279 825 1279 559 c 2,18,-1
 1279 458 l 1,0,-1
913 675 m 1,19,20
 913 779 913 779 856.5 839 c 128,-1,21
 800 899 800 899 705 899 c 0,22,23
 597 899 597 899 533 844.5 c 128,-1,24
 469 790 469 790 455 675 c 1,25,-1
 913 675 l 1,19,20
1137 1625 m 1,26,-1
 771 1252 l 1,27,-1
 576 1252 l 1,28,-1
 858 1625 l 1,29,-1
 1137 1625 l 1,26,-1
EndSplineSet
Layer: 2
SplineSet
705 1137 m 3
 1052 1137 1279 908 1279 559 c 2
 1279 458 l 1
 451 458 l 1
 465 291 567 207 757 207 c 3
 904 207 1062 252 1231 342 c 1
 1231 68 l 1
 1077 7 924 -28 726 -28 c 3
 338 -28 85 174 85 554 c 259
 85 929 328 1137 705 1137 c 3
913 675 m 1
 913 808 836 899 705 899 c 3
 551 899 472 818 455 675 c 1
 913 675 l 1
1137 1625 m 1
 771 1252 l 1
 576 1252 l 1
 858 1625 l 1
 1137 1625 l 1
EndSplineSet
EndChar

StartChar: egrave
Encoding: 168 232 113
Width: 1378
VWidth: 3555
Flags: W
HStem: -28 235<567.084 1016.75> 458 217<455 913> 899 238<549.529 834.764>
VStem: 85 366<320.454 458 675 789.623>
LayerCount: 3
Fore
SplineSet
1279 458 m 1,0,-1
 451 458 l 1,1,2
 472 207 472 207 757 207 c 0,3,4
 977 207 977 207 1231 342 c 1,5,-1
 1231 68 l 1,6,7
 1102 17 1102 17 978 -5.5 c 128,-1,8
 854 -28 854 -28 726 -28 c 0,9,10
 424 -28 424 -28 254.5 125 c 128,-1,11
 85 278 85 278 85 554 c 256,12,13
 85 832 85 832 251 984.5 c 128,-1,14
 417 1137 417 1137 705 1137 c 0,15,16
 963 1137 963 1137 1121 981 c 128,-1,17
 1279 825 1279 825 1279 559 c 2,18,-1
 1279 458 l 1,0,-1
913 675 m 1,19,20
 913 779 913 779 856.5 839 c 128,-1,21
 800 899 800 899 705 899 c 0,22,23
 597 899 597 899 533 844.5 c 128,-1,24
 469 790 469 790 455 675 c 1,25,-1
 913 675 l 1,19,20
868 1252 m 1,26,-1
 675 1252 l 1,27,-1
 306 1625 l 1,28,-1
 587 1625 l 1,29,-1
 868 1252 l 1,26,-1
EndSplineSet
Layer: 2
SplineSet
705 1137 m 3
 1052 1137 1279 908 1279 559 c 2
 1279 458 l 1
 451 458 l 1
 465 291 567 207 757 207 c 3
 904 207 1062 252 1231 342 c 1
 1231 68 l 1
 1077 7 924 -28 726 -28 c 3
 338 -28 85 174 85 554 c 259
 85 929 328 1137 705 1137 c 3
913 675 m 1
 913 808 836 899 705 899 c 3
 551 899 472 818 455 675 c 1
 913 675 l 1
868 1252 m 1
 675 1252 l 1
 306 1625 l 1
 587 1625 l 1
 868 1252 l 1
EndSplineSet
EndChar

StartChar: ecircumflex
Encoding: 170 234 114
Width: 1378
VWidth: 3555
Flags: W
HStem: -28 235<567.084 1016.75> 458 217<455 913> 899 238<549.529 834.764>
VStem: 85 366<320.454 458 675 789.623>
LayerCount: 3
Fore
SplineSet
1279 458 m 1,0,-1
 451 458 l 1,1,2
 472 207 472 207 757 207 c 0,3,4
 977 207 977 207 1231 342 c 1,5,-1
 1231 68 l 1,6,7
 1102 17 1102 17 978 -5.5 c 128,-1,8
 854 -28 854 -28 726 -28 c 0,9,10
 424 -28 424 -28 254.5 125 c 128,-1,11
 85 278 85 278 85 554 c 256,12,13
 85 832 85 832 251 984.5 c 128,-1,14
 417 1137 417 1137 705 1137 c 0,15,16
 963 1137 963 1137 1121 981 c 128,-1,17
 1279 825 1279 825 1279 559 c 2,18,-1
 1279 458 l 1,0,-1
913 675 m 1,19,20
 913 779 913 779 856.5 839 c 128,-1,21
 800 899 800 899 705 899 c 0,22,23
 597 899 597 899 533 844.5 c 128,-1,24
 469 790 469 790 455 675 c 1,25,-1
 913 675 l 1,19,20
842 1625 m 1,26,-1
 1095 1252 l 1,27,-1
 920 1252 l 1,28,-1
 726 1476 l 1,29,-1
 523 1252 l 1,30,-1
 349 1252 l 1,31,-1
 601 1625 l 1,32,-1
 842 1625 l 1,26,-1
EndSplineSet
Layer: 2
SplineSet
705 1137 m 3
 1052 1137 1279 908 1279 559 c 2
 1279 458 l 1
 451 458 l 1
 465 291 567 207 757 207 c 3
 904 207 1062 252 1231 342 c 1
 1231 68 l 1
 1077 7 924 -28 726 -28 c 3
 338 -28 85 174 85 554 c 259
 85 929 328 1137 705 1137 c 3
913 675 m 1
 913 808 836 899 705 899 c 3
 551 899 472 818 455 675 c 1
 913 675 l 1
842 1625 m 1
 1095 1252 l 1
 920 1252 l 1
 726 1476 l 1
 523 1252 l 1
 349 1252 l 1
 601 1625 l 1
 842 1625 l 1
EndSplineSet
EndChar

StartChar: edieresis
Encoding: 171 235 115
Width: 1378
VWidth: 3555
Flags: W
HStem: -28 235<567.084 1016.75> 458 217<455 913> 899 238<549.529 834.764> 1326 249<410 644 800 1035>
VStem: 85 366<320.454 458 675 789.623> 410 234<1326 1575> 800 235<1326 1575>
LayerCount: 3
Fore
SplineSet
1279 458 m 1,0,-1
 451 458 l 1,1,2
 472 207 472 207 757 207 c 0,3,4
 977 207 977 207 1231 342 c 1,5,-1
 1231 68 l 1,6,7
 1102 17 1102 17 978 -5.5 c 128,-1,8
 854 -28 854 -28 726 -28 c 0,9,10
 424 -28 424 -28 254.5 125 c 128,-1,11
 85 278 85 278 85 554 c 256,12,13
 85 832 85 832 251 984.5 c 128,-1,14
 417 1137 417 1137 705 1137 c 0,15,16
 963 1137 963 1137 1121 981 c 128,-1,17
 1279 825 1279 825 1279 559 c 2,18,-1
 1279 458 l 1,0,-1
913 675 m 1,19,20
 913 779 913 779 856.5 839 c 128,-1,21
 800 899 800 899 705 899 c 0,22,23
 597 899 597 899 533 844.5 c 128,-1,24
 469 790 469 790 455 675 c 1,25,-1
 913 675 l 1,19,20
644 1575 m 1,26,-1
 644 1326 l 1,27,-1
 410 1326 l 1,28,-1
 410 1575 l 1,29,-1
 644 1575 l 1,26,-1
1035 1575 m 1,30,-1
 1035 1326 l 1,31,-1
 800 1326 l 1,32,-1
 800 1575 l 1,33,-1
 1035 1575 l 1,30,-1
EndSplineSet
Layer: 2
SplineSet
705 1137 m 3xfa
 1052 1137 1279 908 1279 559 c 2
 1279 458 l 1
 451 458 l 1
 465 291 567 207 757 207 c 3
 904 207 1062 252 1231 342 c 1
 1231 68 l 1
 1077 7 924 -28 726 -28 c 3
 338 -28 85 174 85 554 c 259
 85 929 328 1137 705 1137 c 3xfa
913 675 m 1
 913 808 836 899 705 899 c 3
 551 899 472 818 455 675 c 1
 913 675 l 1
644 1575 m 1xf6
 644 1326 l 1
 410 1326 l 1
 410 1575 l 1
 644 1575 l 1xf6
1035 1575 m 1
 1035 1326 l 1
 800 1326 l 1
 800 1575 l 1
 1035 1575 l 1
EndSplineSet
EndChar

StartChar: iacute
Encoding: 173 237 116
Width: 692
VWidth: 3555
Flags: W
HStem: 0 21G<170 529> 1093 20G<170 529>
VStem: 170 359<0 1113>
LayerCount: 3
Fore
SplineSet
529 1113 m 1,0,-1
 529 0 l 1,1,-1
 170 0 l 1,2,-1
 170 1113 l 1,3,-1
 529 1113 l 1,0,-1
800 1625 m 1,4,-1
 434 1252 l 1,5,-1
 238 1252 l 1,6,-1
 519 1625 l 1,7,-1
 800 1625 l 1,4,-1
EndSplineSet
Layer: 2
SplineSet
529 1113 m 1
 529 0 l 1
 170 0 l 1
 170 1113 l 1
 529 1113 l 1
800 1625 m 1
 434 1252 l 1
 238 1252 l 1
 519 1625 l 1
 800 1625 l 1
EndSplineSet
EndChar

StartChar: igrave
Encoding: 172 236 117
Width: 692
VWidth: 3555
Flags: W
HStem: 0 21G<170 529> 1093 20G<170 529>
VStem: 170 359<0 1113>
LayerCount: 3
Fore
SplineSet
529 1113 m 1,0,-1
 529 0 l 1,1,-1
 170 0 l 1,2,-1
 170 1113 l 1,3,-1
 529 1113 l 1,0,-1
529 1252 m 1,4,-1
 339 1252 l 1,5,-1
 -31 1625 l 1,6,-1
 248 1625 l 1,7,-1
 529 1252 l 1,4,-1
EndSplineSet
Layer: 2
SplineSet
529 1113 m 1
 529 0 l 1
 170 0 l 1
 170 1113 l 1
 529 1113 l 1
529 1252 m 1
 339 1252 l 1
 -31 1625 l 1
 248 1625 l 1
 529 1252 l 1
EndSplineSet
EndChar

StartChar: icircumflex
Encoding: 174 238 118
Width: 692
VWidth: 3555
Flags: W
HStem: 0 21G<170 529> 1093 20G<170 529>
VStem: 170 359<0 1113>
LayerCount: 3
Fore
SplineSet
529 1113 m 1,0,-1
 529 0 l 1,1,-1
 170 0 l 1,2,-1
 170 1113 l 1,3,-1
 529 1113 l 1,0,-1
505 1625 m 1,4,-1
 757 1252 l 1,5,-1
 583 1252 l 1,6,-1
 387 1476 l 1,7,-1
 184 1252 l 1,8,-1
 10 1252 l 1,9,-1
 264 1625 l 1,10,-1
 505 1625 l 1,4,-1
EndSplineSet
Layer: 2
SplineSet
529 1113 m 1
 529 0 l 1
 170 0 l 1
 170 1113 l 1
 529 1113 l 1
505 1625 m 1
 757 1252 l 1
 583 1252 l 1
 387 1476 l 1
 184 1252 l 1
 10 1252 l 1
 264 1625 l 1
 505 1625 l 1
EndSplineSet
EndChar

StartChar: idieresis
Encoding: 175 239 119
Width: 692
VWidth: 3555
Flags: W
HStem: 0 21G<170 529> 1093 20G<170 529> 1326 249<71 306 462 696>
VStem: 71 235<1326 1575> 170 359<0 1113> 462 234<1326 1575>
LayerCount: 3
Fore
SplineSet
529 1113 m 1,0,-1
 529 0 l 1,1,-1
 170 0 l 1,2,-1
 170 1113 l 1,3,-1
 529 1113 l 1,0,-1
306 1575 m 1,4,-1
 306 1326 l 1,5,-1
 71 1326 l 1,6,-1
 71 1575 l 1,7,-1
 306 1575 l 1,4,-1
696 1575 m 1,8,-1
 696 1326 l 1,9,-1
 462 1326 l 1,10,-1
 462 1575 l 1,11,-1
 696 1575 l 1,8,-1
EndSplineSet
Layer: 2
SplineSet
529 1113 m 1xe8
 529 0 l 1
 170 0 l 1
 170 1113 l 1
 529 1113 l 1xe8
306 1575 m 1xf0
 306 1326 l 1
 71 1326 l 1
 71 1575 l 1
 306 1575 l 1xf0
696 1575 m 1xe4
 696 1326 l 1
 462 1326 l 1
 462 1575 l 1
 696 1575 l 1xe4
EndSplineSet
EndChar

StartChar: ntilde
Encoding: 177 241 120
Width: 1449
VWidth: 3555
Flags: W
HStem: 0 21G<170 529 932 1286> 871 266<699.734 1031.5> 1093 20G<170 529> 1299 156<782.886 940.688> 1425 156<552.617 707.89>
VStem: 170 359<0 750.331 950 1113> 401 139<1302 1415.06> 932 354<0 810.263> 957 138<1464.94 1578>
LayerCount: 3
Fore
SplineSet
1286 0 m 1,0,-1
 932 0 l 1,1,-1
 932 115 l 1,2,-1
 932 519 l 2,3,4
 932 661 932 661 924.5 714 c 128,-1,5
 917 767 917 767 899 800 c 0,6,7
 858 871 858 871 764 871 c 0,8,9
 654 871 654 871 591.5 783.5 c 128,-1,10
 529 696 529 696 529 543 c 2,11,-1
 529 0 l 1,12,-1
 170 0 l 1,13,-1
 170 1113 l 1,14,-1
 529 1113 l 1,15,-1
 529 950 l 1,16,17
 675 1137 675 1137 896 1137 c 0,18,19
 1088 1137 1088 1137 1187 1018 c 128,-1,20
 1286 899 1286 899 1286 675 c 2,21,-1
 1286 0 l 1,0,-1
693 1391 m 1,22,-1
 686 1397 l 1,23,24
 637 1425 637 1425 611 1425 c 0,25,26
 540 1425 540 1425 540 1309 c 2,27,-1
 540 1302 l 1,28,-1
 401 1302 l 1,29,30
 401 1432 401 1432 453 1506.5 c 128,-1,31
 505 1581 505 1581 597 1581 c 0,32,33
 628 1581 628 1581 666.5 1567.5 c 128,-1,34
 705 1554 705 1554 746 1529 c 1,35,-1
 804 1483 l 2,36,37
 849 1455 849 1455 878 1455 c 0,38,39
 913 1455 913 1455 935 1486 c 128,-1,40
 957 1517 957 1517 957 1571 c 2,41,-1
 957 1578 l 1,42,-1
 1095 1578 l 1,43,44
 1095 1448 1095 1448 1041.5 1373.5 c 128,-1,45
 988 1299 988 1299 896 1299 c 0,46,47
 858 1299 858 1299 827.5 1309 c 128,-1,48
 797 1319 797 1319 750 1351 c 2,49,-1
 693 1391 l 1,22,-1
EndSplineSet
Layer: 2
SplineSet
896 1137 m 3xc5
 1167 1137 1286 955 1286 675 c 2
 1286 0 l 1
 932 0 l 1
 932 535 l 2
 932 724 930 871 764 871 c 3xc5
 599 871 529 721 529 543 c 2
 529 0 l 1
 170 0 l 1
 170 1113 l 1
 529 1113 l 1xa5
 529 950 l 1
 626 1075 749 1137 896 1137 c 3xc5
1095 1578 m 1x9280
 1095 1428 1035 1299 896 1299 c 3x9280
 827 1299 801 1316 750 1351 c 2
 693 1391 l 2
 666 1410 626 1425 611 1425 c 3
 561 1425 540 1382 540 1302 c 1
 401 1302 l 1
 401 1452 458 1581 597 1581 c 3x8a80
 653 1581 707 1560 746 1529 c 2
 804 1483 l 2
 832 1461 859 1455 878 1455 c 3
 936 1455 957 1515 957 1578 c 1
 1095 1578 l 1x9280
EndSplineSet
EndChar

StartChar: oacute
Encoding: 179 243 121
Width: 1395
VWidth: 3555
Flags: W
HStem: -28 252<560.352 833.72> 882 255<558.66 835.07>
VStem: 85 373<334.872 773.902> 939 370<333.858 774.102>
LayerCount: 3
Fore
SplineSet
696 882 m 0,0,1
 458 882 458 882 458 554 c 0,2,3
 458 394 458 394 519 309 c 128,-1,4
 580 224 580 224 696 224 c 0,5,6
 818 224 818 224 878.5 309 c 128,-1,7
 939 394 939 394 939 554 c 0,8,9
 939 882 939 882 696 882 c 0,0,1
696 1137 m 256,10,11
 984 1137 984 1137 1146.5 984.5 c 128,-1,12
 1309 832 1309 832 1309 554 c 256,13,14
 1309 278 1309 278 1146.5 125 c 128,-1,15
 984 -28 984 -28 696 -28 c 256,16,17
 410 -28 410 -28 247.5 125 c 128,-1,18
 85 278 85 278 85 554 c 256,19,20
 85 832 85 832 247.5 984.5 c 128,-1,21
 410 1137 410 1137 696 1137 c 256,10,11
1137 1625 m 1,22,-1
 771 1252 l 1,23,-1
 576 1252 l 1,24,-1
 858 1625 l 1,25,-1
 1137 1625 l 1,22,-1
EndSplineSet
Layer: 2
SplineSet
696 224 m 3
 875 224 939 363 939 554 c 3
 939 773 858 882 696 882 c 3
 537 882 458 773 458 554 c 3
 458 367 522 224 696 224 c 3
85 554 m 259
 85 928 320 1137 696 1137 c 259
 1074 1137 1309 929 1309 554 c 259
 1309 181 1073 -28 696 -28 c 259
 321 -28 85 182 85 554 c 259
1137 1625 m 1
 771 1252 l 1
 576 1252 l 1
 858 1625 l 1
 1137 1625 l 1
EndSplineSet
EndChar

StartChar: ograve
Encoding: 178 242 122
Width: 1395
VWidth: 3555
Flags: W
HStem: -28 252<560.352 833.72> 882 255<558.66 835.07>
VStem: 85 373<334.872 773.902> 939 370<333.858 774.102>
LayerCount: 3
Fore
SplineSet
696 882 m 0,0,1
 458 882 458 882 458 554 c 0,2,3
 458 394 458 394 519 309 c 128,-1,4
 580 224 580 224 696 224 c 0,5,6
 818 224 818 224 878.5 309 c 128,-1,7
 939 394 939 394 939 554 c 0,8,9
 939 882 939 882 696 882 c 0,0,1
696 1137 m 256,10,11
 984 1137 984 1137 1146.5 984.5 c 128,-1,12
 1309 832 1309 832 1309 554 c 256,13,14
 1309 278 1309 278 1146.5 125 c 128,-1,15
 984 -28 984 -28 696 -28 c 256,16,17
 410 -28 410 -28 247.5 125 c 128,-1,18
 85 278 85 278 85 554 c 256,19,20
 85 832 85 832 247.5 984.5 c 128,-1,21
 410 1137 410 1137 696 1137 c 256,10,11
868 1252 m 1,22,-1
 675 1252 l 1,23,-1
 306 1625 l 1,24,-1
 587 1625 l 1,25,-1
 868 1252 l 1,22,-1
EndSplineSet
Layer: 2
SplineSet
696 224 m 3
 875 224 939 363 939 554 c 3
 939 773 858 882 696 882 c 3
 537 882 458 773 458 554 c 3
 458 367 522 224 696 224 c 3
85 554 m 259
 85 928 320 1137 696 1137 c 259
 1074 1137 1309 929 1309 554 c 259
 1309 181 1073 -28 696 -28 c 259
 321 -28 85 182 85 554 c 259
868 1252 m 1
 675 1252 l 1
 306 1625 l 1
 587 1625 l 1
 868 1252 l 1
EndSplineSet
EndChar

StartChar: ocircumflex
Encoding: 180 244 123
Width: 1395
VWidth: 3555
Flags: W
HStem: -28 252<560.352 833.72> 882 255<558.66 835.07>
VStem: 85 373<334.872 773.902> 939 370<333.858 774.102>
LayerCount: 3
Fore
SplineSet
696 882 m 0,0,1
 458 882 458 882 458 554 c 0,2,3
 458 394 458 394 519 309 c 128,-1,4
 580 224 580 224 696 224 c 0,5,6
 818 224 818 224 878.5 309 c 128,-1,7
 939 394 939 394 939 554 c 0,8,9
 939 882 939 882 696 882 c 0,0,1
696 1137 m 256,10,11
 984 1137 984 1137 1146.5 984.5 c 128,-1,12
 1309 832 1309 832 1309 554 c 256,13,14
 1309 278 1309 278 1146.5 125 c 128,-1,15
 984 -28 984 -28 696 -28 c 256,16,17
 410 -28 410 -28 247.5 125 c 128,-1,18
 85 278 85 278 85 554 c 256,19,20
 85 832 85 832 247.5 984.5 c 128,-1,21
 410 1137 410 1137 696 1137 c 256,10,11
842 1625 m 1,22,-1
 1095 1252 l 1,23,-1
 920 1252 l 1,24,-1
 726 1476 l 1,25,-1
 523 1252 l 1,26,-1
 349 1252 l 1,27,-1
 601 1625 l 1,28,-1
 842 1625 l 1,22,-1
EndSplineSet
Layer: 2
SplineSet
696 224 m 3
 875 224 939 363 939 554 c 3
 939 773 858 882 696 882 c 3
 537 882 458 773 458 554 c 3
 458 367 522 224 696 224 c 3
85 554 m 259
 85 928 320 1137 696 1137 c 259
 1074 1137 1309 929 1309 554 c 259
 1309 181 1073 -28 696 -28 c 259
 321 -28 85 182 85 554 c 259
842 1625 m 1
 1095 1252 l 1
 920 1252 l 1
 726 1476 l 1
 523 1252 l 1
 349 1252 l 1
 601 1625 l 1
 842 1625 l 1
EndSplineSet
EndChar

StartChar: odieresis
Encoding: 182 246 124
Width: 1395
VWidth: 3555
Flags: W
HStem: -28 252<560.352 833.72> 882 255<558.66 835.07> 1326 249<410 644 800 1035>
VStem: 85 373<334.872 773.902> 410 234<1326 1575> 800 235<1326 1575> 939 370<333.858 774.102>
LayerCount: 3
Fore
SplineSet
696 882 m 0,0,1
 458 882 458 882 458 554 c 0,2,3
 458 394 458 394 519 309 c 128,-1,4
 580 224 580 224 696 224 c 0,5,6
 818 224 818 224 878.5 309 c 128,-1,7
 939 394 939 394 939 554 c 0,8,9
 939 882 939 882 696 882 c 0,0,1
696 1137 m 256,10,11
 984 1137 984 1137 1146.5 984.5 c 128,-1,12
 1309 832 1309 832 1309 554 c 256,13,14
 1309 278 1309 278 1146.5 125 c 128,-1,15
 984 -28 984 -28 696 -28 c 256,16,17
 410 -28 410 -28 247.5 125 c 128,-1,18
 85 278 85 278 85 554 c 256,19,20
 85 832 85 832 247.5 984.5 c 128,-1,21
 410 1137 410 1137 696 1137 c 256,10,11
644 1575 m 1,22,-1
 644 1326 l 1,23,-1
 410 1326 l 1,24,-1
 410 1575 l 1,25,-1
 644 1575 l 1,22,-1
1035 1575 m 1,26,-1
 1035 1326 l 1,27,-1
 800 1326 l 1,28,-1
 800 1575 l 1,29,-1
 1035 1575 l 1,26,-1
EndSplineSet
Layer: 2
SplineSet
696 224 m 3xf2
 875 224 939 363 939 554 c 3
 939 773 858 882 696 882 c 3
 537 882 458 773 458 554 c 3
 458 367 522 224 696 224 c 3xf2
85 554 m 259
 85 928 320 1137 696 1137 c 259
 1074 1137 1309 929 1309 554 c 259
 1309 181 1073 -28 696 -28 c 259
 321 -28 85 182 85 554 c 259
644 1575 m 1xe8
 644 1326 l 1
 410 1326 l 1
 410 1575 l 1
 644 1575 l 1xe8
1035 1575 m 1xe4
 1035 1326 l 1
 800 1326 l 1
 800 1575 l 1
 1035 1575 l 1xe4
EndSplineSet
EndChar

StartChar: otilde
Encoding: 181 245 125
Width: 1395
VWidth: 3555
Flags: W
HStem: -28 252<560.352 833.72> 882 255<558.66 835.07> 1299 156<758.227 915.886> 1425 156<528.357 683.616>
VStem: 85 373<334.872 773.902> 377 139<1302 1415.49> 932 137<1464.94 1578> 939 370<333.858 774.102>
LayerCount: 3
Fore
SplineSet
696 882 m 0,0,1
 458 882 458 882 458 554 c 0,2,3
 458 394 458 394 519 309 c 128,-1,4
 580 224 580 224 696 224 c 0,5,6
 818 224 818 224 878.5 309 c 128,-1,7
 939 394 939 394 939 554 c 0,8,9
 939 882 939 882 696 882 c 0,0,1
696 1137 m 256,10,11
 984 1137 984 1137 1146.5 984.5 c 128,-1,12
 1309 832 1309 832 1309 554 c 256,13,14
 1309 278 1309 278 1146.5 125 c 128,-1,15
 984 -28 984 -28 696 -28 c 256,16,17
 410 -28 410 -28 247.5 125 c 128,-1,18
 85 278 85 278 85 554 c 256,19,20
 85 832 85 832 247.5 984.5 c 128,-1,21
 410 1137 410 1137 696 1137 c 256,10,11
668 1391 m 1,22,-1
 661 1397 l 1,23,24
 611 1425 611 1425 587 1425 c 0,25,26
 516 1425 516 1425 516 1309 c 2,27,-1
 516 1302 l 1,28,-1
 377 1302 l 1,29,30
 377 1432 377 1432 428 1506.5 c 128,-1,31
 479 1581 479 1581 573 1581 c 0,32,33
 604 1581 604 1581 641.5 1567.5 c 128,-1,34
 679 1554 679 1554 722 1529 c 1,35,-1
 779 1483 l 2,36,37
 825 1455 825 1455 854 1455 c 0,38,39
 889 1455 889 1455 910.5 1486 c 128,-1,40
 932 1517 932 1517 932 1571 c 2,41,-1
 932 1578 l 1,42,-1
 1069 1578 l 1,43,44
 1069 1448 1069 1448 1016 1373.5 c 128,-1,45
 963 1299 963 1299 871 1299 c 0,46,47
 832 1299 832 1299 801.5 1309 c 128,-1,48
 771 1319 771 1319 726 1351 c 2,49,-1
 668 1391 l 1,22,-1
EndSplineSet
Layer: 2
SplineSet
696 224 m 3xc9
 875 224 939 363 939 554 c 3
 939 773 858 882 696 882 c 3
 537 882 458 773 458 554 c 3
 458 367 522 224 696 224 c 3xc9
85 554 m 259
 85 928 320 1137 696 1137 c 259
 1074 1137 1309 929 1309 554 c 259
 1309 181 1073 -28 696 -28 c 259
 321 -28 85 182 85 554 c 259
1069 1578 m 1xe6
 1069 1428 1010 1299 871 1299 c 3xe6
 801 1299 776 1316 726 1351 c 2
 668 1391 l 2
 641 1410 600 1425 587 1425 c 3
 537 1425 516 1382 516 1302 c 1
 377 1302 l 1
 377 1453 432 1581 573 1581 c 3xd6
 630 1581 683 1561 722 1529 c 2
 779 1483 l 2
 807 1460 835 1455 854 1455 c 3
 912 1455 932 1515 932 1578 c 1
 1069 1578 l 1xe6
EndSplineSet
EndChar

StartChar: uacute
Encoding: 186 250 126
Width: 1449
VWidth: 3555
Flags: W
HStem: -28 266<414.5 746.335> 0 21G<917 1272> 1093 20G<160 516 917 1272>
VStem: 160 356<299.09 1113> 917 355<0 160 350.348 1113>
LayerCount: 3
Fore
SplineSet
160 1113 m 1,0,-1
 519 1113 l 1,1,-1
 519 1003 l 2,2,3
 519 953 519 953 519 895.5 c 128,-1,4
 519 838 519 838 516 771 c 2,5,-1
 516 590 l 2,6,7
 516 458 516 458 522.5 400 c 128,-1,8
 529 342 529 342 540 309 c 1,9,10
 594 238 594 238 682 238 c 0,11,12
 797 238 797 238 857 325.5 c 128,-1,13
 917 413 917 413 917 562 c 2,14,-1
 917 1113 l 1,15,-1
 1272 1113 l 1,16,-1
 1272 0 l 1,17,-1
 917 0 l 1,18,-1
 917 160 l 1,19,20
 771 -28 771 -28 547 -28 c 0,21,22
 363 -28 363 -28 261.5 89.5 c 128,-1,23
 160 207 160 207 160 434 c 2,24,-1
 160 1113 l 1,0,-1
1163 1625 m 1,25,-1
 797 1252 l 1,26,-1
 601 1252 l 1,27,-1
 882 1625 l 1,28,-1
 1163 1625 l 1,25,-1
EndSplineSet
Layer: 2
SplineSet
547 -28 m 3xb8
 282 -28 160 155 160 434 c 2
 160 1113 l 1
 516 1113 l 1
 516 539 l 2
 516 370 526 238 682 238 c 3xb8
 850 238 917 384 917 562 c 2
 917 1113 l 1
 1272 1113 l 1
 1272 0 l 1
 917 0 l 1x78
 917 160 l 1
 820 35 696 -28 547 -28 c 3xb8
1163 1625 m 1
 797 1252 l 1
 601 1252 l 1
 882 1625 l 1
 1163 1625 l 1
EndSplineSet
EndChar

StartChar: ugrave
Encoding: 185 249 127
Width: 1449
VWidth: 3555
Flags: W
HStem: -28 266<414.5 746.335> 0 21G<917 1272> 1093 20G<160 516 917 1272>
VStem: 160 356<299.09 1113> 917 355<0 160 350.348 1113>
LayerCount: 3
Fore
SplineSet
160 1113 m 1,0,-1
 519 1113 l 1,1,-1
 519 1003 l 2,2,3
 519 953 519 953 519 895.5 c 128,-1,4
 519 838 519 838 516 771 c 2,5,-1
 516 590 l 2,6,7
 516 458 516 458 522.5 400 c 128,-1,8
 529 342 529 342 540 309 c 1,9,10
 594 238 594 238 682 238 c 0,11,12
 797 238 797 238 857 325.5 c 128,-1,13
 917 413 917 413 917 562 c 2,14,-1
 917 1113 l 1,15,-1
 1272 1113 l 1,16,-1
 1272 0 l 1,17,-1
 917 0 l 1,18,-1
 917 160 l 1,19,20
 771 -28 771 -28 547 -28 c 0,21,22
 363 -28 363 -28 261.5 89.5 c 128,-1,23
 160 207 160 207 160 434 c 2,24,-1
 160 1113 l 1,0,-1
892 1252 m 1,25,-1
 700 1252 l 1,26,-1
 330 1625 l 1,27,-1
 611 1625 l 1,28,-1
 892 1252 l 1,25,-1
EndSplineSet
Layer: 2
SplineSet
547 -28 m 3xb8
 282 -28 160 155 160 434 c 2
 160 1113 l 1
 516 1113 l 1
 516 539 l 2
 516 370 526 238 682 238 c 3xb8
 850 238 917 384 917 562 c 2
 917 1113 l 1
 1272 1113 l 1
 1272 0 l 1
 917 0 l 1x78
 917 160 l 1
 820 35 696 -28 547 -28 c 3xb8
892 1252 m 1
 700 1252 l 1
 330 1625 l 1
 611 1625 l 1
 892 1252 l 1
EndSplineSet
EndChar

StartChar: ucircumflex
Encoding: 187 251 128
Width: 1449
VWidth: 3555
Flags: W
HStem: -28 266<414.5 746.335> 0 21G<917 1272> 1093 20G<160 516 917 1272>
VStem: 160 356<299.09 1113> 917 355<0 160 350.348 1113>
LayerCount: 3
Fore
SplineSet
160 1113 m 1,0,-1
 519 1113 l 1,1,-1
 519 1003 l 2,2,3
 519 953 519 953 519 895.5 c 128,-1,4
 519 838 519 838 516 771 c 2,5,-1
 516 590 l 2,6,7
 516 458 516 458 522.5 400 c 128,-1,8
 529 342 529 342 540 309 c 1,9,10
 594 238 594 238 682 238 c 0,11,12
 797 238 797 238 857 325.5 c 128,-1,13
 917 413 917 413 917 562 c 2,14,-1
 917 1113 l 1,15,-1
 1272 1113 l 1,16,-1
 1272 0 l 1,17,-1
 917 0 l 1,18,-1
 917 160 l 1,19,20
 771 -28 771 -28 547 -28 c 0,21,22
 363 -28 363 -28 261.5 89.5 c 128,-1,23
 160 207 160 207 160 434 c 2,24,-1
 160 1113 l 1,0,-1
868 1625 m 1,25,-1
 1120 1252 l 1,26,-1
 946 1252 l 1,27,-1
 750 1476 l 1,28,-1
 547 1252 l 1,29,-1
 373 1252 l 1,30,-1
 625 1625 l 1,31,-1
 868 1625 l 1,25,-1
EndSplineSet
Layer: 2
SplineSet
547 -28 m 3xb8
 282 -28 160 155 160 434 c 2
 160 1113 l 1
 516 1113 l 1
 516 539 l 2
 516 370 526 238 682 238 c 3xb8
 850 238 917 384 917 562 c 2
 917 1113 l 1
 1272 1113 l 1
 1272 0 l 1
 917 0 l 1x78
 917 160 l 1
 820 35 696 -28 547 -28 c 3xb8
868 1625 m 1
 1120 1252 l 1
 946 1252 l 1
 750 1476 l 1
 547 1252 l 1
 373 1252 l 1
 625 1625 l 1
 868 1625 l 1
EndSplineSet
EndChar

StartChar: udieresis
Encoding: 188 252 129
Width: 1449
VWidth: 3555
Flags: W
HStem: -28 266<414.5 746.335> 0 21G<917 1272> 1093 20G<160 516 917 1272> 1326 249<434 668 825 1059>
VStem: 160 356<299.09 1113> 434 234<1326 1575> 825 234<1326 1575> 917 355<0 160 350.348 1113>
LayerCount: 3
Fore
SplineSet
160 1113 m 1,0,-1
 519 1113 l 1,1,-1
 519 1003 l 2,2,3
 519 953 519 953 519 895.5 c 128,-1,4
 519 838 519 838 516 771 c 2,5,-1
 516 590 l 2,6,7
 516 458 516 458 522.5 400 c 128,-1,8
 529 342 529 342 540 309 c 1,9,10
 594 238 594 238 682 238 c 0,11,12
 797 238 797 238 857 325.5 c 128,-1,13
 917 413 917 413 917 562 c 2,14,-1
 917 1113 l 1,15,-1
 1272 1113 l 1,16,-1
 1272 0 l 1,17,-1
 917 0 l 1,18,-1
 917 160 l 1,19,20
 771 -28 771 -28 547 -28 c 0,21,22
 363 -28 363 -28 261.5 89.5 c 128,-1,23
 160 207 160 207 160 434 c 2,24,-1
 160 1113 l 1,0,-1
668 1575 m 1,25,-1
 668 1326 l 1,26,-1
 434 1326 l 1,27,-1
 434 1575 l 1,28,-1
 668 1575 l 1,25,-1
1059 1575 m 1,29,-1
 1059 1326 l 1,30,-1
 825 1326 l 1,31,-1
 825 1575 l 1,32,-1
 1059 1575 l 1,29,-1
EndSplineSet
Layer: 2
SplineSet
547 -28 m 3xb9
 282 -28 160 155 160 434 c 2
 160 1113 l 1
 516 1113 l 1
 516 539 l 2
 516 370 526 238 682 238 c 3xb9
 850 238 917 384 917 562 c 2
 917 1113 l 1
 1272 1113 l 1
 1272 0 l 1
 917 0 l 1x79
 917 160 l 1
 820 35 696 -28 547 -28 c 3xb9
668 1575 m 1x34
 668 1326 l 1
 434 1326 l 1
 434 1575 l 1
 668 1575 l 1x34
1059 1575 m 1x32
 1059 1326 l 1
 825 1326 l 1
 825 1575 l 1
 1059 1575 l 1x32
EndSplineSet
EndChar

StartChar: dagger
Encoding: 329 8224 130
Width: 1015
VWidth: 3555
Flags: W
HStem: 871 235<54 342 668 957> 1463 20G<342 668>
VStem: 342 326<-196 871 1106 1483>
LayerCount: 3
Fore
SplineSet
668 1483 m 1,0,-1
 668 1106 l 1,1,-1
 957 1106 l 1,2,-1
 957 871 l 1,3,-1
 668 871 l 1,4,-1
 668 -196 l 1,5,-1
 342 -196 l 1,6,-1
 342 871 l 1,7,-1
 54 871 l 1,8,-1
 54 1106 l 1,9,-1
 342 1106 l 1,10,-1
 342 1483 l 1,11,-1
 668 1483 l 1,0,-1
EndSplineSet
Layer: 2
SplineSet
668 1483 m 1
 668 1106 l 1
 957 1106 l 1
 957 871 l 1
 668 871 l 1
 668 -196 l 1
 342 -196 l 1
 342 871 l 1
 54 871 l 1
 54 1106 l 1
 342 1106 l 1
 342 1483 l 1
 668 1483 l 1
EndSplineSet
EndChar

StartChar: degree
Encoding: 112 176 131
Width: 1015
VWidth: 3555
Flags: W
HStem: 865 159<392.333 624.421> 1361 165<395.761 620.943>
VStem: 177 162<1080.1 1306.16> 679 159<1080.31 1301.69>
LayerCount: 3
Fore
SplineSet
629.5 1311.5 m 128,-1,1
 580 1361 580 1361 508 1361 c 259,2,3
 436 1361 436 1361 387.5 1311.5 c 128,-1,4
 339 1262 339 1262 339 1191 c 259,5,6
 339 1120 339 1120 387.5 1072 c 128,-1,7
 436 1024 436 1024 508 1024 c 259,8,9
 580 1024 580 1024 629.5 1072 c 128,-1,10
 679 1120 679 1120 679 1191 c 259,11,0
 679 1262 679 1262 629.5 1311.5 c 128,-1,1
838 1196 m 259,12,13
 838 1052 838 1052 745 958.5 c 152,-1,14
 652 865 652 865 506 865 c 259,15,16
 366 865 366 865 271.5 957.5 c 128,-1,17
 177 1050 177 1050 177 1190 c 259,18,19
 177 1330 177 1330 273.5 1428 c 128,-1,20
 370 1526 370 1526 503 1526 c 259,21,22
 636 1526 636 1526 737 1430 c 128,-1,23
 838 1334 838 1334 838 1196 c 259,12,13
EndSplineSet
Layer: 2
SplineSet
679 1191 m 259
 679 1283 603 1361 512 1361 c 3
 415 1361 339 1287 339 1191 c 259
 339 1095 415 1024 512 1024 c 3
 603 1024 679 1099 679 1191 c 259
177 1191 m 3
 177 1376 326 1526 512 1526 c 3
 696 1526 838 1377 838 1191 c 3
 838 999 698 865 509 865 c 3
 320 865 177 1002 177 1191 c 3
EndSplineSet
EndChar

StartChar: cent
Encoding: 98 162 132
Width: 1414
VWidth: 3555
Flags: W
HStem: -28 252<861 1060.64> 882 255<861 1063.66>
VStem: 174 366<364.976 745.812> 693 168<-309 -28 260 854 1137 1422>
LayerCount: 3
Fore
SplineSet
693 854 m 1,0,1
 540 767 540 767 540 554 c 259,2,3
 540 340 540 340 693 260 c 1,4,-1
 693 854 l 1,0,1
861 1137 m 1,5,6
 999 1130 999 1130 1156 1082 c 1,7,-1
 1156 790 l 1,8,9
 1002 882 1002 882 861 882 c 1,10,-1
 861 224 l 1,11,12
 1023 229 1023 229 1156 319 c 1,13,-1
 1156 31 l 1,14,15
 982 -28 982 -28 861 -28 c 1,16,-1
 861 -309 l 1,17,-1
 693 -309 l 1,18,-1
 693 -24 l 1,19,20
 174 57 174 57 174 569 c 259,21,22
 174 822 174 822 309.5 962.5 c 128,-1,23
 445 1103 445 1103 693 1137 c 1,24,-1
 693 1422 l 1,25,-1
 861 1422 l 1,26,-1
 861 1137 l 1,5,6
EndSplineSet
Layer: 2
SplineSet
693 854 m 1
 591 796 540 696 540 554 c 3
 540 411 591 313 693 260 c 1
 693 854 l 1
861 1137 m 1
 966 1132 1065 1110 1156 1082 c 1
 1156 790 l 1
 1047 855 959 882 861 882 c 1
 861 224 l 1
 980 228 1080 268 1156 319 c 1
 1156 31 l 1
 1035 -10 945 -28 861 -28 c 1
 861 -309 l 1
 693 -309 l 1
 693 -24 l 1
 347 30 174 228 174 569 c 3
 174 917 374 1093 693 1137 c 1
 693 1422 l 1
 861 1422 l 1
 861 1137 l 1
EndSplineSet
EndChar

StartChar: sterling
Encoding: 99 163 133
Width: 1414
VWidth: 3555
Flags: W
HStem: 0 264<128 352 712 1245> 587 238<156 352 712 1085> 1245 262<793.97 1173.21>
VStem: 352 360<264 587 825 1160.56>
LayerCount: 3
Fore
SplineSet
1234 1174 m 1,0,1
 1099 1245 1099 1245 939 1245 c 259,2,3
 712 1245 712 1245 712 991 c 2,4,-1
 712 825 l 1,5,-1
 1085 825 l 1,6,-1
 1085 587 l 1,7,-1
 712 587 l 1,8,-1
 712 264 l 1,9,-1
 1245 264 l 1,10,-1
 1245 0 l 1,11,-1
 128 0 l 1,12,-1
 128 264 l 1,13,-1
 352 264 l 1,14,-1
 352 587 l 1,15,-1
 156 587 l 1,16,-1
 156 825 l 1,17,-1
 352 825 l 1,18,-1
 352 991 l 2,19,20
 352 1262 352 1262 476.5 1384.5 c 128,-1,21
 601 1507 601 1507 878 1507 c 259,22,23
 1055 1507 1055 1507 1234 1458 c 1,24,-1
 1234 1174 l 1,0,1
EndSplineSet
Layer: 2
SplineSet
352 991 m 2
 352 1356 511 1507 878 1507 c 3
 996 1507 1115 1491 1234 1458 c 1
 1234 1174 l 1
 1144 1221 1046 1245 939 1245 c 3
 788 1245 712 1160 712 991 c 2
 712 825 l 1
 1085 825 l 1
 1085 587 l 1
 712 587 l 1
 712 264 l 1
 1245 264 l 1
 1245 0 l 1
 128 0 l 1
 128 264 l 1
 352 264 l 1
 352 587 l 1
 156 587 l 1
 156 825 l 1
 352 825 l 1
 352 991 l 2
EndSplineSet
EndChar

StartChar: section
Encoding: 103 167 134
Width: 1015
VWidth: 3555
Flags: W
HStem: -193 207<238.633 585.468> 1305 202<439.368 792.038>
VStem: 14 281<587.233 792.703> 95 325<1146.48 1281.23> 608 324<40.1376 174.126> 733 277<524.937 719.64>
LayerCount: 3
Fore
SplineSet
526 1507 m 259,0,1
 681 1507 681 1507 882 1455 c 1,2,-1
 882 1231 l 1,3,4
 660 1305 660 1305 566 1305 c 259,5,6
 502 1305 502 1305 461 1281 c 128,-1,7
 420 1257 420 1257 420 1208 c 259,8,9
 420 1146 420 1146 601 1062 c 256,10,11
 867 939 867 939 938.5 871.5 c 128,-1,12
 1010 804 1010 804 1010 661 c 259,13,14
 1010 431 1010 431 783 342 c 1,15,16
 932 264 932 264 932 118 c 259,17,18
 932 -39 932 -39 800 -116 c 128,-1,19
 668 -193 668 -193 484 -193 c 259,20,21
 334 -193 334 -193 118 -139 c 1,22,-1
 118 99 l 1,23,24
 373 14 373 14 465 14 c 259,25,26
 520 14 520 14 564 37.5 c 128,-1,27
 608 61 608 61 608 102 c 259,28,29
 608 174 608 174 431 245 c 256,30,31
 206 332 206 332 110 422.5 c 128,-1,32
 14 513 14 513 14 661 c 259,33,34
 14 774 14 774 73 846.5 c 128,-1,35
 132 919 132 919 234 967 c 1,36,37
 164 1021 164 1021 129.5 1072 c 128,-1,38
 95 1123 95 1123 95 1205 c 259,39,40
 95 1363 95 1363 219.5 1435 c 128,-1,41
 344 1507 344 1507 526 1507 c 259,0,1
434 854 m 1,42,43
 295 793 295 793 295 693 c 259,44,45
 295 639 295 639 331 596 c 128,-1,46
 367 553 367 553 597 465 c 1,47,48
 733 526 733 526 733 618 c 259,49,50
 733 686 733 686 685.5 729 c 128,-1,51
 638 772 638 772 434 854 c 1,42,43
EndSplineSet
Layer: 2
SplineSet
526 1507 m 3xd0
 652 1507 774 1483 882 1455 c 1
 882 1231 l 1
 783 1263 671 1305 566 1305 c 3
 488 1305 420 1278 420 1208 c 3
 420 1165 484 1125 601 1062 c 0
 813 949 1010 921 1010 661 c 3xd4
 1010 508 934 401 783 342 c 1
 882 290 932 215 932 118 c 3
 932 -98 718 -193 484 -193 c 3
 349 -193 234 -168 118 -139 c 1
 118 99 l 1
 223 63 354 14 465 14 c 3
 531 14 608 44 608 102 c 3
 608 150 549 198 431 245 c 0
 218 328 14 419 14 661 c 3xe8
 14 823 114 910 234 967 c 1
 156 1027 95 1085 95 1205 c 3
 95 1420 293 1507 526 1507 c 3xd0
434 854 m 1
 341 813 295 760 295 693 c 3xe4
 295 559 448 519 597 465 c 1
 688 506 733 557 733 618 c 3
 733 752 574 801 434 854 c 1
EndSplineSet
EndChar

StartChar: bullet
Encoding: 331 8226 135
Width: 1300
VWidth: 3555
Flags: W
HStem: 398 715<482.215 816.762>
VStem: 292 715<582.011 921.988>
LayerCount: 3
Fore
SplineSet
651 1113 m 259,0,1
 751 1113 751 1113 833.5 1063 c 128,-1,2
 916 1013 916 1013 961.5 931.5 c 128,-1,3
 1007 850 1007 850 1007 757 c 259,4,5
 1007 602 1007 602 905 500 c 128,-1,6
 803 398 803 398 648 398 c 259,7,8
 502 398 502 398 397 500 c 128,-1,9
 292 602 292 602 292 757 c 259,10,11
 292 903 292 903 398.5 1008 c 128,-1,12
 505 1113 505 1113 651 1113 c 259,0,1
EndSplineSet
Layer: 2
SplineSet
651 1113 m 3
 856 1113 1007 943 1007 757 c 3
 1007 550 855 398 648 398 c 3
 458 398 292 546 292 757 c 3
 292 953 458 1113 651 1113 c 3
EndSplineSet
EndChar

StartChar: paragraph
Encoding: 118 182 136
Width: 1293
VWidth: 3555
Flags: W
HStem: 1333 150<740 929>
VStem: 132 608<863.823 1259.12> 547 193<-196 648.734> 929 187<-196 1333>
LayerCount: 3
Fore
SplineSet
1116 1483 m 1,0,-1
 1116 -196 l 1,1,-1
 929 -196 l 1,2,-1
 929 1333 l 1,3,-1
 740 1333 l 1,4,-1
 740 -196 l 1,5,-1
 547 -196 l 1,6,-1
 547 644 l 1,7,8
 345 668 345 668 238.5 775 c 128,-1,9
 132 882 132 882 132 1062 c 259,10,11
 132 1255 132 1255 258 1369 c 128,-1,12
 384 1483 384 1483 597 1483 c 2,13,-1
 1116 1483 l 1,0,-1
EndSplineSet
Layer: 2
SplineSet
132 1062 m 3xd0
 132 1328 325 1483 597 1483 c 2
 1116 1483 l 1
 1116 -196 l 1
 929 -196 l 1
 929 1333 l 1
 740 1333 l 1
 740 -196 l 1
 547 -196 l 1
 547 644 l 1xb0
 301 673 132 801 132 1062 c 3xd0
EndSplineSet
EndChar

StartChar: germandbls
Encoding: 159 223 137
Width: 1463
VWidth: 3555
Flags: W
HStem: -28 235<667.472 985.141> 0 21G<170 529> 1309 238<594.479 865.694>
VStem: 170 359<0 1244.57> 634 309<784.325 964.846> 1024 353<245.889 439.108>
LayerCount: 3
Fore
SplineSet
644 264 m 1,0,1
 734 207 734 207 868 207 c 259,2,3
 936 207 936 207 980 244 c 128,-1,4
 1024 281 1024 281 1024 339 c 259,5,6
 1024 371 1024 371 997.5 414.5 c 128,-1,7
 971 458 971 458 875 505 c 2,8,-1
 804 540 l 2,9,10
 634 623 634 623 634 818 c 259,11,12
 634 929 634 929 699 1008.5 c 128,-1,13
 764 1088 764 1088 913 1137 c 1,14,15
 910 1309 910 1309 729 1309 c 259,16,17
 529 1309 529 1309 529 1092 c 2,18,-1
 529 0 l 1,19,-1
 170 0 l 1,20,-1
 170 1106 l 2,21,22
 170 1547 170 1547 712 1547 c 259,23,24
 967 1547 967 1547 1100.5 1435 c 128,-1,25
 1234 1323 1234 1323 1234 1106 c 2,26,-1
 1234 1035 l 1,27,28
 943 1014 943 1014 943 878 c 259,29,30
 943 845 943 845 964.5 812 c 128,-1,31
 986 779 986 779 1085 729 c 2,32,-1
 1156 693 l 2,33,34
 1270 635 1270 635 1323.5 541.5 c 128,-1,35
 1377 448 1377 448 1377 345 c 259,36,37
 1377 -28 1377 -28 913 -28 c 259,38,39
 813 -28 813 -28 644 17 c 1,40,-1
 644 264 l 1,0,1
EndSplineSet
Layer: 2
SplineSet
868 207 m 3xbc
 952 207 1024 257 1024 339 c 3
 1024 427 962 463 875 505 c 2
 804 540 l 2
 702 590 634 677 634 818 c 3
 634 1002 754 1084 913 1137 c 1
 911 1252 850 1309 729 1309 c 3
 596 1309 529 1237 529 1092 c 2
 529 0 l 1
 170 0 l 1x7c
 170 1106 l 2
 170 1400 351 1547 712 1547 c 3
 1031 1547 1234 1413 1234 1106 c 2
 1234 1035 l 1
 1040 1021 943 969 943 878 c 3
 943 793 995 774 1085 729 c 2
 1156 693 l 2
 1284 629 1377 520 1377 345 c 3
 1377 96 1222 -28 913 -28 c 3
 817 -28 729 -6 644 17 c 1
 644 264 l 1
 703 226 780 207 868 207 c 3xbc
EndSplineSet
EndChar

StartChar: registered
Encoding: 110 174 138
Width: 2032
VWidth: 3555
Flags: W
HStem: 0 156<786.628 1240.81> 689 136<924 1004.68> 1028 139<924 1097.79> 1319 157<789.325 1227.04>
VStem: 281 153<503.355 960.849> 715 209<339 689 825 1028> 1116 228<849.234 1005.07> 1604 149<518.79 950.293>
DStem2: 1394 339 1059 543 0.458748 -0.888566<-443.724 -102.76>
LayerCount: 3
Fore
SplineSet
1017 1319 m 259,0,1
 774 1319 774 1319 604 1155.5 c 128,-1,2
 434 992 434 992 434 736 c 259,3,4
 434 481 434 481 597.5 318.5 c 128,-1,5
 761 156 761 156 1017 156 c 259,6,7
 1272 156 1272 156 1438 328.5 c 128,-1,8
 1604 501 1604 501 1604 736 c 259,9,10
 1604 972 1604 972 1432 1145.5 c 128,-1,11
 1260 1319 1260 1319 1017 1319 c 259,0,1
924 1028 m 1,12,-1
 924 825 l 1,13,-1
 960 825 l 2,14,15
 1116 825 1116 825 1116 929 c 259,16,17
 1116 1028 1116 1028 960 1028 c 2,18,-1
 924 1028 l 1,12,-1
1344 929 m 259,19,20
 1344 840 1344 840 1290 786.5 c 128,-1,21
 1236 733 1236 733 1149 715 c 1,22,23
 1224 668 1224 668 1283 554 c 2,24,-1
 1394 339 l 1,25,-1
 1170 339 l 1,26,-1
 1059 543 l 2,27,28
 1006 642 1006 642 987.5 665 c 128,-1,29
 969 688 969 688 924 689 c 1,30,-1
 924 339 l 1,31,-1
 715 339 l 1,32,-1
 715 1167 l 1,33,-1
 998 1167 l 2,34,35
 1344 1167 1344 1167 1344 929 c 259,19,20
1017 1476 m 259,36,37
 1313 1476 1313 1476 1533 1264 c 128,-1,38
 1753 1052 1753 1052 1753 736 c 259,39,40
 1753 436 1753 436 1542.5 218 c 128,-1,41
 1332 0 1332 0 1017 0 c 259,42,43
 702 0 702 0 491.5 218 c 128,-1,44
 281 436 281 436 281 736 c 259,45,46
 281 1053 281 1053 500 1264.5 c 128,-1,47
 719 1476 719 1476 1017 1476 c 259,36,37
EndSplineSet
Layer: 2
SplineSet
1017 1319 m 3
 698 1319 434 1080 434 736 c 3
 434 396 675 156 1017 156 c 259
 1360 156 1604 428 1604 736 c 3
 1604 1054 1336 1319 1017 1319 c 3
924 1028 m 1
 924 825 l 1
 960 825 l 2
 1064 825 1116 860 1116 929 c 3
 1116 995 1064 1028 960 1028 c 2
 924 1028 l 1
1344 929 m 3
 1344 804 1257 737 1149 715 c 1
 1199 684 1244 630 1283 554 c 2
 1394 339 l 1
 1170 339 l 1
 1059 543 l 2
 1021 612 1002 689 924 689 c 1
 924 339 l 1
 715 339 l 1
 715 1167 l 1
 998 1167 l 2
 1229 1167 1344 1088 1344 929 c 3
1017 1476 m 3
 1439 1476 1753 1135 1753 736 c 3
 1753 343 1439 0 1017 0 c 3
 593 0 281 342 281 736 c 3
 281 1163 627 1476 1017 1476 c 3
EndSplineSet
EndChar

StartChar: copyright
Encoding: 105 169 139
Width: 2032
VWidth: 3555
Flags: W
HStem: 0 156<786.628 1240.81> 309 189<933.361 1276.38> 974 189<943.548 1263.6> 1319 157<789.325 1227.21>
VStem: 281 153<503.355 960.849> 594 260<576.65 887.285> 1604 149<519.347 949.736>
LayerCount: 3
Fore
SplineSet
1055 1163 m 259,0,1
 1178 1163 1178 1163 1312 1116 c 1,2,-1
 1312 903 l 1,3,4
 1198 974 1198 974 1092 974 c 259,5,6
 977 974 977 974 915.5 909.5 c 128,-1,7
 854 845 854 845 854 736 c 259,8,9
 854 498 854 498 1092 498 c 259,10,11
 1224 498 1224 498 1312 566 c 1,12,-1
 1312 356 l 1,13,14
 1169 309 1169 309 1055 309 c 259,15,16
 842 309 842 309 718 424.5 c 128,-1,17
 594 540 594 540 594 736 c 259,18,19
 594 929 594 929 718 1046 c 128,-1,20
 842 1163 842 1163 1055 1163 c 259,0,1
1017 1319 m 259,21,22
 767 1319 767 1319 600.5 1151 c 152,-1,23
 434 983 434 983 434 736 c 259,24,25
 434 495 434 495 593 325.5 c 152,-1,26
 752 156 752 156 1017 156 c 259,27,28
 1267 156 1267 156 1435.5 326 c 152,-1,29
 1604 496 1604 496 1604 736 c 259,30,31
 1604 975 1604 975 1431 1147 c 152,-1,32
 1258 1319 1258 1319 1017 1319 c 259,21,22
1017 1476 m 259,33,34
 1309 1476 1309 1476 1531 1261 c 152,-1,35
 1753 1046 1753 1046 1753 736 c 259,36,37
 1753 430 1753 430 1533 215 c 152,-1,38
 1313 0 1313 0 1017 0 c 259,39,40
 719 0 719 0 500 214 c 152,-1,41
 281 428 281 428 281 736 c 259,42,43
 281 1047 281 1047 501 1261.5 c 152,-1,44
 721 1476 721 1476 1017 1476 c 259,33,34
EndSplineSet
Layer: 2
SplineSet
1055 1163 m 3
 1156 1163 1235 1143 1312 1116 c 1
 1312 903 l 1
 1236 950 1163 974 1092 974 c 3
 942 974 854 884 854 736 c 3
 854 577 933 498 1092 498 c 3
 1180 498 1253 521 1312 566 c 1
 1312 356 l 1
 1235 331 1152 309 1055 309 c 3
 781 309 594 467 594 736 c 3
 594 1002 783 1163 1055 1163 c 3
1017 1319 m 3
 698 1319 434 1080 434 736 c 3
 434 396 675 156 1017 156 c 259
 1360 156 1604 428 1604 736 c 3
 1604 1054 1336 1319 1017 1319 c 3
1017 1476 m 3
 1440 1476 1753 1132 1753 736 c 3
 1753 346 1439 0 1017 0 c 3
 593 0 281 342 281 736 c 3
 281 1163 627 1476 1017 1476 c 3
EndSplineSet
EndChar

StartChar: trademark
Encoding: 337 8482 140
Width: 2032
VWidth: 3555
Flags: W
HStem: 906 577<462 634 917 1092 1436 1608> 1340 143<292 462 634 807>
VStem: 462 172<906 1340> 917 175<906 1340> 1436 172<906 1340>
DStem2: 1149 1483 1092 1340 0.482985 -0.875628<97.6847 254.221> 1262 1255 1302 1088 0.469497 0.882934<0 156.742>
LayerCount: 3
Fore
SplineSet
1262 1255 m 1,0,-1
 1384 1483 l 1,1,-1
 1608 1483 l 1,2,-1
 1608 906 l 1,3,-1
 1436 906 l 1,4,-1
 1436 1340 l 1,5,-1
 1302 1088 l 1,6,-1
 1231 1088 l 1,7,-1
 1092 1340 l 1,8,-1
 1092 906 l 1,9,-1
 917 906 l 1,10,-1
 917 1483 l 1,11,-1
 1149 1483 l 1,12,-1
 1262 1255 l 1,0,-1
807 1340 m 1,13,-1
 634 1340 l 1,14,-1
 634 906 l 1,15,-1
 462 906 l 1,16,-1
 462 1340 l 1,17,-1
 292 1340 l 1,18,-1
 292 1483 l 1,19,-1
 807 1483 l 1,20,-1
 807 1340 l 1,13,-1
EndSplineSet
Layer: 2
SplineSet
1262 1255 m 1x78
 1384 1483 l 1x78
 1608 1483 l 1
 1608 906 l 1
 1436 906 l 1xb8
 1436 1340 l 1
 1302 1088 l 1
 1231 1088 l 1
 1092 1340 l 1x78
 1092 906 l 1
 917 906 l 1
 917 1483 l 1xb8
 1149 1483 l 1
 1262 1255 l 1x78
807 1340 m 1
 634 1340 l 1x78
 634 906 l 1
 462 906 l 1xb8
 462 1340 l 1
 292 1340 l 1
 292 1483 l 1
 807 1483 l 1
 807 1340 l 1
EndSplineSet
EndChar

StartChar: acute
Encoding: 116 180 141
Width: 1015
VWidth: 3555
Flags: W
HStem: 1252 373
VStem: 363 561
LayerCount: 3
Fore
SplineSet
924 1625 m 1,0,-1
 559 1252 l 1,1,-1
 363 1252 l 1,2,-1
 644 1625 l 1,3,-1
 924 1625 l 1,0,-1
EndSplineSet
Layer: 2
SplineSet
924 1625 m 1
 559 1252 l 1
 363 1252 l 1
 644 1625 l 1
 924 1625 l 1
EndSplineSet
EndChar

StartChar: dieresis
Encoding: 104 168 142
Width: 1015
VWidth: 3555
Flags: W
HStem: 1326 249<196 431 587 821>
VStem: 196 235<1326 1575> 587 234<1326 1575>
LayerCount: 3
Fore
SplineSet
431 1575 m 1,0,-1
 431 1326 l 1,1,-1
 196 1326 l 1,2,-1
 196 1575 l 1,3,-1
 431 1575 l 1,0,-1
821 1575 m 1,4,-1
 821 1326 l 1,5,-1
 587 1326 l 1,6,-1
 587 1575 l 1,7,-1
 821 1575 l 1,4,-1
EndSplineSet
Layer: 2
SplineSet
431 1575 m 1
 431 1326 l 1
 196 1326 l 1
 196 1575 l 1
 431 1575 l 1
821 1575 m 1
 821 1326 l 1
 587 1326 l 1
 587 1575 l 1
 821 1575 l 1
EndSplineSet
EndChar

StartChar: notequal
Encoding: 349 8800 143
Width: 1701
VWidth: 3555
Flags: W
HStem: -10 21G<431.719 471.556> 292 237<214 451 899 1486> 746 231<214 811 1252 1486>
DStem2: 306 118 455 -10 0.627128 0.778917<0 226.465 692.021 805.859 1262.35 1495.08>
LayerCount: 3
Fore
SplineSet
1003 977 m 1,0,-1
 1248 1279 l 1,1,-1
 1397 1160 l 1,2,-1
 1252 977 l 1,3,-1
 1486 977 l 1,4,-1
 1486 746 l 1,5,-1
 1078 746 l 1,6,-1
 899 529 l 1,7,-1
 1486 529 l 1,8,-1
 1486 292 l 1,9,-1
 705 292 l 1,10,-1
 455 -10 l 1,11,-1
 306 118 l 1,12,-1
 451 292 l 1,13,-1
 214 292 l 1,14,-1
 214 529 l 1,15,-1
 637 529 l 1,16,-1
 811 746 l 1,17,-1
 214 746 l 1,18,-1
 214 977 l 1,19,-1
 1003 977 l 1,0,-1
EndSplineSet
Layer: 2
SplineSet
1003 977 m 1
 1248 1279 l 1
 1397 1160 l 1
 1252 977 l 1
 1486 977 l 1
 1486 746 l 1
 1078 746 l 1
 899 529 l 1
 1486 529 l 1
 1486 292 l 1
 705 292 l 1
 455 -10 l 1
 306 118 l 1
 451 292 l 1
 214 292 l 1
 214 529 l 1
 637 529 l 1
 811 746 l 1
 214 746 l 1
 214 977 l 1
 1003 977 l 1
EndSplineSet
EndChar

StartChar: AE
Encoding: 134 198 144
Width: 2206
VWidth: 3555
Flags: W
HStem: 0 288<1387 2059> 349 269<628 1007> 628 285<1387 1995> 1194 289<1387 2038> 1231 252<882 1007>
VStem: 1007 380<288 349 618 628 913 1194>
DStem2: 0 0 370 0 0.38466 0.923059<142.324 520.632 812.016 1475.55>
LayerCount: 3
Fore
SplineSet
628 618 m 1,0,-1
 1007 618 l 1,1,-1
 1007 1231 l 1,2,-1
 882 1231 l 1,3,-1
 628 618 l 1,0,-1
2038 1483 m 1,4,-1
 2038 1194 l 1,5,-1
 1387 1194 l 1,6,-1
 1387 913 l 1,7,-1
 1995 913 l 1,8,-1
 1995 628 l 1,9,-1
 1387 628 l 1,10,-1
 1387 288 l 1,11,-1
 2059 288 l 1,12,-1
 2059 0 l 1,13,-1
 1007 0 l 1,14,-1
 1007 349 l 1,15,-1
 516 349 l 1,16,-1
 370 0 l 1,17,-1
 0 0 l 1,18,-1
 618 1483 l 1,19,-1
 2038 1483 l 1,4,-1
EndSplineSet
Layer: 2
SplineSet
628 618 m 1xec
 1007 618 l 1
 1007 1231 l 1
 882 1231 l 1
 628 618 l 1xec
2038 1483 m 1xf4
 2038 1194 l 1
 1387 1194 l 1xf4
 1387 913 l 1
 1995 913 l 1
 1995 628 l 1
 1387 628 l 1
 1387 288 l 1
 2059 288 l 1
 2059 0 l 1
 1007 0 l 1
 1007 349 l 1
 516 349 l 1
 370 0 l 1
 0 0 l 1
 618 1483 l 1xec
 2038 1483 l 1xf4
EndSplineSet
EndChar

StartChar: Oslash
Encoding: 152 216 145
Width: 1727
VWidth: 3555
Flags: W
HStem: -28 273<693.443 1040.27> 1234 273<692.903 1039.52>
VStem: 99 399<523.056 1009.24> 1234 391<481.347 966.805>
DStem2: 47 40 156 -75 0.70734 0.706874<0 288.099 677.408 1473.66 1853.97 2143.24>
LayerCount: 3
Fore
SplineSet
597 370 m 1,0,1
 700 245 700 245 868 245 c 259,2,3
 1038 245 1038 245 1136 375 c 128,-1,4
 1234 505 1234 505 1234 740 c 259,5,6
 1234 862 1234 862 1201 970 c 1,7,-1
 597 370 l 1,0,1
1123 1116 m 1,8,9
 1036 1234 1036 1234 868 1234 c 259,10,11
 686 1234 686 1234 592 1104 c 128,-1,12
 498 974 498 974 498 740 c 259,13,14
 498 611 498 611 526 519 c 1,15,-1
 1123 1116 l 1,8,9
1476 1241 m 1,16,17
 1625 1056 1625 1056 1625 740 c 259,18,19
 1625 377 1625 377 1428 174.5 c 128,-1,20
 1231 -28 1231 -28 868 -28 c 259,21,22
 562 -28 562 -28 359 132 c 1,23,-1
 156 -75 l 1,24,-1
 47 40 l 1,25,-1
 245 238 l 1,26,27
 99 448 99 448 99 740 c 259,28,29
 99 1102 99 1102 302 1304.5 c 128,-1,30
 505 1507 505 1507 868 1507 c 259,31,32
 1167 1507 1167 1507 1361 1354 c 1,33,-1
 1561 1557 l 1,34,-1
 1675 1443 l 1,35,-1
 1476 1241 l 1,16,17
EndSplineSet
Layer: 2
SplineSet
868 245 m 3
 1123 245 1234 466 1234 740 c 3
 1234 825 1220 906 1201 970 c 1
 597 370 l 1
 666 287 756 245 868 245 c 3
868 1234 m 3
 602 1234 498 1021 498 740 c 3
 498 654 507 580 526 519 c 1
 1123 1116 l 1
 1070 1188 986 1234 868 1234 c 3
1625 740 m 3
 1625 257 1351 -28 868 -28 c 3
 664 -28 494 25 359 132 c 1
 156 -75 l 1
 47 40 l 1
 245 238 l 1
 148 378 99 545 99 740 c 3
 99 1222 386 1507 868 1507 c 3
 1067 1507 1232 1456 1361 1354 c 1
 1561 1557 l 1
 1675 1443 l 1
 1476 1241 l 1
 1570 1124 1625 946 1625 740 c 3
EndSplineSet
EndChar

StartChar: infinity
Encoding: 346 8734 146
Width: 1690
VWidth: 3555
Flags: W
HStem: 184 250<379.641 613.321 1040.03 1326.01> 779 245<369.228 649.443 1083.97 1322.79>
VStem: 193 116<491.585 717.91> 1384 116<492.049 715.96>
LayerCount: 3
Fore
SplineSet
950 559 m 1,0,1
 1035 424 1035 424 1184 424 c 259,2,3
 1269 424 1269 424 1326.5 475 c 128,-1,4
 1384 526 1384 526 1384 601 c 259,5,6
 1384 679 1384 679 1331.5 729 c 128,-1,7
 1279 779 1279 779 1205 779 c 259,8,9
 1134 779 1134 779 1075.5 729 c 128,-1,10
 1017 679 1017 679 950 559 c 1,0,1
746 651 m 1,11,12
 661 786 661 786 516 786 c 259,13,14
 427 786 427 786 368 736 c 128,-1,15
 309 686 309 686 309 608 c 259,16,17
 309 529 309 529 363 481.5 c 128,-1,18
 417 434 417 434 495 434 c 259,19,20
 562 434 562 434 622 483.5 c 128,-1,21
 682 533 682 533 746 651 c 1,11,12
854 441 m 1,22,23
 710 184 710 184 529 184 c 256,24,25
 391 184 391 184 292 307 c 128,-1,26
 193 430 193 430 193 601 c 259,27,28
 193 788 193 788 280 906 c 128,-1,29
 367 1024 367 1024 509 1024 c 259,30,31
 594 1024 594 1024 670 965 c 128,-1,32
 746 906 746 906 845 767 c 1,33,34
 981 1024 981 1024 1170 1024 c 259,35,36
 1309 1024 1309 1024 1404.5 905 c 128,-1,37
 1500 786 1500 786 1500 604 c 259,38,39
 1500 420 1500 420 1413 302 c 128,-1,40
 1326 184 1326 184 1191 184 c 259,41,42
 1099 184 1099 184 1024.5 239.5 c 128,-1,43
 950 295 950 295 854 441 c 1,22,23
EndSplineSet
Layer: 2
SplineSet
1384 601 m 3
 1384 702 1305 779 1205 779 c 3
 1084 779 1013 671 950 559 c 1
 1007 469 1085 424 1184 424 c 3
 1291 424 1384 497 1384 601 c 3
309 608 m 259
 309 504 391 434 495 434 c 3
 612 434 686 542 746 651 c 1
 689 741 613 786 516 786 c 3
 404 786 309 717 309 608 c 259
1500 604 m 3
 1500 389 1393 184 1191 184 c 3
 1034 184 946 302 854 441 c 1
 759 270 651 184 529 184 c 3
 335 184 193 386 193 601 c 3
 193 825 300 1024 509 1024 c 3
 654 1024 753 896 845 767 c 1
 936 938 1044 1024 1170 1024 c 3
 1375 1024 1500 820 1500 604 c 3
EndSplineSet
EndChar

StartChar: plusminus
Encoding: 113 177 147
Width: 1701
VWidth: 3555
Flags: W
HStem: 0 234<214 1486> 689 235<214 733 967 1486>
VStem: 733 234<339 689 924 1272>
LayerCount: 3
Fore
SplineSet
967 924 m 1,0,-1
 1486 924 l 1,1,-1
 1486 689 l 1,2,-1
 967 689 l 1,3,-1
 967 339 l 1,4,-1
 733 339 l 1,5,-1
 733 689 l 1,6,-1
 214 689 l 1,7,-1
 214 924 l 1,8,-1
 733 924 l 1,9,-1
 733 1272 l 1,10,-1
 967 1272 l 1,11,-1
 967 924 l 1,0,-1
1486 234 m 1,12,-1
 1486 0 l 1,13,-1
 214 0 l 1,14,-1
 214 234 l 1,15,-1
 1486 234 l 1,12,-1
EndSplineSet
Layer: 2
SplineSet
967 924 m 1
 1486 924 l 1
 1486 689 l 1
 967 689 l 1
 967 339 l 1
 733 339 l 1
 733 689 l 1
 214 689 l 1
 214 924 l 1
 733 924 l 1
 733 1272 l 1
 967 1272 l 1
 967 924 l 1
1486 234 m 1
 1486 0 l 1
 214 0 l 1
 214 234 l 1
 1486 234 l 1
EndSplineSet
EndChar

StartChar: lessequal
Encoding: 350 8804 148
Width: 1701
VWidth: 3555
Flags: W
HStem: 0 234<214 1486> 285 244<1242 1486> 939 245<1241 1486>
DStem2: 214 854 597 733 0.967956 0.251121<340.341 1252.59> 597 733 214 615 0.967956 -0.251121<0 911.741>
LayerCount: 3
Fore
SplineSet
1486 0 m 1,0,-1
 214 0 l 1,1,-1
 214 234 l 1,2,-1
 1486 234 l 1,3,-1
 1486 0 l 1,0,-1
597 733 m 1,4,-1
 1486 529 l 1,5,-1
 1486 285 l 1,6,-1
 214 615 l 1,7,-1
 214 854 l 1,8,-1
 1486 1184 l 1,9,-1
 1486 939 l 1,10,-1
 597 733 l 1,4,-1
EndSplineSet
Layer: 2
SplineSet
1486 0 m 1
 214 0 l 1
 214 234 l 1
 1486 234 l 1
 1486 0 l 1
597 733 m 1
 1486 529 l 1
 1486 285 l 1
 214 615 l 1
 214 854 l 1
 1486 1184 l 1
 1486 939 l 1
 597 733 l 1
EndSplineSet
EndChar

StartChar: greaterequal
Encoding: 351 8805 149
Width: 1701
VWidth: 3555
Flags: W
HStem: 0 234<214 1486> 285 244<214 458> 939 245<214 459>
DStem2: 214 529 214 285 0.967956 0.251121<0 914.645>
LayerCount: 3
Fore
SplineSet
1486 234 m 1,0,-1
 1486 0 l 1,1,-1
 214 0 l 1,2,-1
 214 234 l 1,3,-1
 1486 234 l 1,0,-1
214 1184 m 1,4,-1
 1486 854 l 1,5,-1
 1486 615 l 1,6,-1
 214 285 l 1,7,-1
 214 529 l 1,8,-1
 1106 733 l 1,9,-1
 214 939 l 1,10,-1
 214 1184 l 1,4,-1
EndSplineSet
Layer: 2
SplineSet
1486 234 m 1
 1486 0 l 1
 214 0 l 1
 214 234 l 1
 1486 234 l 1
214 1184 m 1
 1486 854 l 1
 1486 615 l 1
 214 285 l 1
 214 529 l 1
 1106 733 l 1
 214 939 l 1
 214 1184 l 1
EndSplineSet
EndChar

StartChar: yen
Encoding: 101 165 150
Width: 1414
VWidth: 3555
Flags: W
HStem: 0 21G<519 896> 417 187<68 519 896 1347> 757 189<68 359 1055 1347> 1463 20G<24 436.375 978.669 1391>
VStem: 24 400<1083 1483> 519 377<0 417 604 672> 991 400<1083 1483>
CounterMasks: 1 0e
LayerCount: 3
Fore
SplineSet
896 417 m 1,0,-1
 896 0 l 1,1,-1
 519 0 l 1,2,-1
 519 417 l 1,3,-1
 68 417 l 1,4,-1
 68 604 l 1,5,-1
 519 604 l 1,6,-1
 519 672 l 1,7,-1
 469 757 l 1,8,-1
 68 757 l 1,9,-1
 68 946 l 1,10,-1
 359 946 l 1,11,-1
 24 1483 l 1,12,-1
 424 1483 l 1,13,-1
 708 1024 l 1,14,-1
 991 1483 l 1,15,-1
 1391 1483 l 1,16,-1
 1055 946 l 1,17,-1
 1347 946 l 1,18,-1
 1347 757 l 1,19,-1
 946 757 l 1,20,-1
 896 672 l 1,21,-1
 896 604 l 1,22,-1
 1347 604 l 1,23,-1
 1347 417 l 1,24,-1
 896 417 l 1,0,-1
EndSplineSet
Layer: 2
SplineSet
896 417 m 1
 896 0 l 1
 519 0 l 1
 519 417 l 1
 68 417 l 1
 68 604 l 1
 519 604 l 1
 519 672 l 1
 469 757 l 1
 68 757 l 1
 68 946 l 1
 359 946 l 1
 24 1483 l 1
 424 1483 l 1
 708 1024 l 1
 991 1483 l 1
 1391 1483 l 1
 1055 946 l 1
 1347 946 l 1
 1347 757 l 1
 946 757 l 1
 896 672 l 1
 896 604 l 1
 1347 604 l 1
 1347 417 l 1
 896 417 l 1
EndSplineSet
EndChar

StartChar: mu
Encoding: 117 181 151
Width: 1496
VWidth: 3555
Flags: W
HStem: -427 21G<174 529> -28 262<593.471 868.228 1176.5 1426.94> 1093 20G<174 529 932 1286>
VStem: 174 355<-427 68 299.194 1113> 932 354<299.194 1113>
LayerCount: 3
Fore
SplineSet
1361 238 m 259,0,1
 1400 238 1400 238 1429 264 c 1,2,-1
 1429 14 l 1,3,4
 1330 -28 1330 -28 1241 -28 c 259,5,6
 1156 -28 1156 -28 1099 9.5 c 128,-1,7
 1042 47 1042 47 1007 132 c 1,8,9
 913 -28 913 -28 740 -28 c 259,10,11
 590 -28 590 -28 529 68 c 1,12,-1
 529 -427 l 1,13,-1
 174 -427 l 1,14,-1
 174 1113 l 1,15,-1
 529 1113 l 1,16,-1
 529 465 l 2,17,18
 529 234 529 234 733 234 c 259,19,20
 932 234 932 234 932 465 c 2,21,-1
 932 1113 l 1,22,-1
 1286 1113 l 1,23,-1
 1286 370 l 2,24,25
 1286 238 1286 238 1361 238 c 259,0,1
EndSplineSet
Layer: 2
SplineSet
1241 -28 m 3
 1112 -28 1048 32 1007 132 c 1
 944 25 855 -28 740 -28 c 3
 640 -28 570 4 529 68 c 1
 529 -427 l 1
 174 -427 l 1
 174 1113 l 1
 529 1113 l 1
 529 465 l 2
 529 311 597 234 733 234 c 3
 866 234 932 311 932 465 c 2
 932 1113 l 1
 1286 1113 l 1
 1286 370 l 2
 1286 295 1298 238 1361 238 c 3
 1397 238 1407 245 1429 264 c 1
 1429 14 l 1
 1363 -14 1300 -28 1241 -28 c 3
EndSplineSet
EndChar

StartChar: partialdiff
Encoding: 338 8706 152
Width: 1104
VWidth: 3555
Flags: W
HStem: -24 78<379.559 559.825> 764 94<449.633 642.032> 1238 113<531.5 765.82>
VStem: 61 265<192.005 580.967> 804 241<691.756 1042.6>
LayerCount: 3
Fore
SplineSet
472 858 m 259,0,1
 578 858 578 858 645.5 811.5 c 128,-1,2
 713 765 713 765 760 679 c 1,3,4
 804 913 804 913 804 1031 c 259,5,6
 804 1105 804 1105 779 1171.5 c 128,-1,7
 754 1238 754 1238 708 1238 c 259,8,9
 674 1238 674 1238 573 1144 c 256,10,11
 478 1055 478 1055 394 1055 c 259,12,13
 347 1055 347 1055 316 1090 c 128,-1,14
 285 1125 285 1125 285 1174 c 259,15,16
 285 1222 285 1222 336.5 1264 c 128,-1,17
 388 1306 388 1306 459 1328.5 c 128,-1,18
 530 1351 530 1351 594 1351 c 259,19,20
 816 1351 816 1351 930.5 1184.5 c 128,-1,21
 1045 1018 1045 1018 1045 753 c 259,22,23
 1045 424 1045 424 886 200 c 128,-1,24
 727 -24 727 -24 469 -24 c 259,25,26
 289 -24 289 -24 175 91.5 c 128,-1,27
 61 207 61 207 61 387 c 259,28,29
 61 587 61 587 176.5 722.5 c 128,-1,30
 292 858 292 858 472 858 c 259,0,1
693 529 m 259,31,32
 693 632 693 632 658.5 698 c 128,-1,33
 624 764 624 764 547 764 c 259,34,35
 442 764 442 764 384 615 c 128,-1,36
 326 466 326 466 326 285 c 259,37,38
 326 54 326 54 469 54 c 259,39,40
 581 54 581 54 637 196.5 c 128,-1,41
 693 339 693 339 693 529 c 259,31,32
EndSplineSet
Layer: 2
SplineSet
472 858 m 3
 622 858 703 783 760 679 c 1
 789 833 804 950 804 1031 c 3
 804 1113 776 1238 708 1238 c 3
 686 1238 641 1207 573 1144 c 0
 510 1085 451 1055 394 1055 c 3
 331 1055 285 1110 285 1174 c 3
 285 1275 469 1351 594 1351 c 3
 907 1351 1045 1084 1045 753 c 3
 1045 356 847 -24 469 -24 c 3
 229 -24 61 148 61 387 c 3
 61 650 228 858 472 858 c 3
693 529 m 3
 693 652 658 764 547 764 c 3
 386 764 326 481 326 285 c 3
 326 131 374 54 469 54 c 3
 641 54 693 324 693 529 c 3
EndSplineSet
EndChar

StartChar: summation
Encoding: 341 8721 153
Width: 1459
VWidth: 3555
Flags: W
HStem: -387 259<495 1415> 1198 267<495 1361>
DStem2: 43 -220 495 -128 0.670735 0.741697<371.408 1028.72> 495 1198 68 1234 0.693421 -0.720532<0 636.983>
LayerCount: 3
Fore
SplineSet
1361 1465 m 1,0,-1
 1361 1198 l 1,1,-1
 495 1198 l 1,2,-1
 1109 559 l 1,3,-1
 495 -128 l 1,4,-1
 1415 -128 l 1,5,-1
 1415 -387 l 1,6,-1
 43 -387 l 1,7,-1
 43 -220 l 1,8,-1
 733 543 l 1,9,-1
 68 1234 l 1,10,-1
 68 1465 l 1,11,-1
 1361 1465 l 1,0,-1
EndSplineSet
Layer: 2
SplineSet
1361 1465 m 1
 1361 1198 l 1
 495 1198 l 1
 1109 559 l 1
 495 -128 l 1
 1415 -128 l 1
 1415 -387 l 1
 43 -387 l 1
 43 -220 l 1
 733 543 l 1
 68 1234 l 1
 68 1465 l 1
 1361 1465 l 1
EndSplineSet
EndChar

StartChar: product
Encoding: 340 8719 154
Width: 1598
VWidth: 3555
Flags: W
HStem: 1177 288<495 1106>
VStem: 153 342<-387 1177> 1106 345<-387 1177>
LayerCount: 3
Fore
SplineSet
1451 1465 m 1,0,-1
 1451 -387 l 1,1,-1
 1106 -387 l 1,2,-1
 1106 1177 l 1,3,-1
 495 1177 l 1,4,-1
 495 -387 l 1,5,-1
 153 -387 l 1,6,-1
 153 1465 l 1,7,-1
 1451 1465 l 1,0,-1
EndSplineSet
Layer: 2
SplineSet
1451 1465 m 1
 1451 -387 l 1
 1106 -387 l 1
 1106 1177 l 1
 495 1177 l 1
 495 -387 l 1
 153 -387 l 1
 153 1465 l 1
 1451 1465 l 1
EndSplineSet
EndChar

StartChar: pi
Encoding: 222 960 155
Width: 1307
VWidth: 3555
Flags: W
HStem: 0 21G<174 461.468 693 980.538> 865 220<213.406 319 608 845 1130 1305>
VStem: -31 208<733 837.897> 174 284<0 284> 693 284<0 284>
DStem2: 174 0 458 0 0.17086 0.985295<48.5244 877.055> 693 0 977 0 0.174175 0.984715<49.4657 878.253>
LayerCount: 3
Fore
SplineSet
1305 865 m 1,0,-1
 1130 865 l 1,1,-1
 977 0 l 1,2,-1
 693 0 l 1,3,-1
 845 865 l 1,4,-1
 608 865 l 1,5,-1
 458 0 l 1,6,-1
 174 0 l 1,7,-1
 319 865 l 1,8,-1
 299 865 l 2,9,10
 193 865 193 865 177 733 c 1,11,-1
 -31 733 l 1,12,13
 -2 926 -2 926 89.5 1005.5 c 128,-1,14
 181 1085 181 1085 394 1085 c 2,15,-1
 1344 1085 l 1,16,-1
 1305 865 l 1,0,-1
EndSplineSet
Layer: 2
SplineSet
1305 865 m 1xe8
 1130 865 l 1
 977 0 l 1
 693 0 l 1
 845 865 l 1
 608 865 l 1
 458 0 l 1
 174 0 l 1xd8
 319 865 l 1
 299 865 l 2
 228 865 188 821 177 733 c 1
 -31 733 l 1
 6 979 111 1085 394 1085 c 2
 1344 1085 l 1
 1305 865 l 1xe8
EndSplineSet
EndChar

StartChar: integral
Encoding: 347 8747 156
Width: 1236
VWidth: 3555
Flags: W
HStem: -370 129<218.5 398.04> 1422 125<845.516 1022>
VStem: 54 272<-237.407 -77.375> 476 284<131.255 1008.33> 913 278<1251.62 1418.6>
LayerCount: 3
Fore
SplineSet
359 -241 m 259,0,1
 408 -241 408 -241 442 -50 c 128,-1,2
 476 141 476 141 476 417 c 259,3,4
 476 1173 476 1173 679 1417 c 0,5,6
 787 1547 787 1547 957 1547 c 259,7,8
 1059 1547 1059 1547 1125 1496 c 128,-1,9
 1191 1445 1191 1445 1191 1354 c 259,10,11
 1191 1293 1191 1293 1149.5 1254 c 128,-1,12
 1108 1215 1108 1215 1045 1215 c 259,13,14
 913 1215 913 1215 913 1361 c 259,15,16
 913 1404 913 1404 905 1413 c 128,-1,17
 897 1422 897 1422 882 1422 c 259,18,19
 832 1422 832 1422 796 1200.5 c 128,-1,20
 760 979 760 979 760 711 c 259,21,22
 760 66 760 66 600 -188 c 0,23,24
 486 -370 486 -370 285 -370 c 256,25,26
 181 -370 181 -370 117.5 -320 c 128,-1,27
 54 -270 54 -270 54 -177 c 259,28,29
 54 -116 54 -116 96 -78 c 128,-1,30
 138 -40 138 -40 203 -40 c 259,31,32
 263 -40 263 -40 294.5 -77 c 128,-1,33
 326 -114 326 -114 326 -177 c 259,34,35
 326 -192 326 -192 323 -200 c 0,36,37
 323 -221 323 -221 330 -231 c 128,-1,38
 337 -241 337 -241 359 -241 c 259,0,1
EndSplineSet
Layer: 2
SplineSet
359 -241 m 3
 425 -241 476 50 476 417 c 3
 476 949 540 1547 957 1547 c 3
 1087 1547 1191 1480 1191 1354 c 3
 1191 1272 1128 1215 1045 1215 c 3
 957 1215 913 1264 913 1361 c 3
 913 1401 913 1422 882 1422 c 3
 813 1422 760 1054 760 711 c 3
 760 270 716 -370 285 -370 c 3
 152 -370 54 -305 54 -177 c 3
 54 -94 118 -40 203 -40 c 3
 285 -40 326 -95 326 -177 c 3
 326 -188 325 -195 323 -200 c 1
 323 -225 327 -241 359 -241 c 3
EndSplineSet
EndChar

StartChar: ordfeminine
Encoding: 106 170 157
Width: 1147
VWidth: 3555
Flags: W
HStem: 370 199<174 981> 689 165<419.225 642.715> 1078 130<437.048 726> 1344 163<293.101 700.12>
VStem: 156 245<872.834 1046.57> 729 262<926.789 1078 1208 1312.82> 750 241<712 838>
LayerCount: 3
Fore
SplineSet
981 569 m 1,0,-1
 981 370 l 1,1,-1
 174 370 l 1,2,-1
 174 569 l 1,3,-1
 981 569 l 1,0,-1
641 1078 m 2,4,5
 509 1078 509 1078 455 1049.5 c 128,-1,6
 401 1021 401 1021 401 960 c 259,7,8
 401 854 401 854 529 854 c 259,9,10
 611 854 611 854 670 908.5 c 128,-1,11
 729 963 729 963 729 1049 c 2,12,-1
 729 1078 l 1,13,-1
 641 1078 l 2,4,5
224 1455 m 1,14,15
 387 1507 387 1507 559 1507 c 259,16,17
 783 1507 783 1507 887 1420 c 128,-1,18
 991 1333 991 1333 991 1160 c 2,19,-1
 991 712 l 1,20,-1
 750 712 l 1,21,-1
 750 838 l 1,22,23
 693 760 693 760 626 724.5 c 128,-1,24
 559 689 559 689 462 689 c 259,25,26
 312 689 312 689 234 757 c 128,-1,27
 156 825 156 825 156 939 c 259,28,29
 156 1082 156 1082 261 1145 c 128,-1,30
 366 1208 366 1208 590 1208 c 2,31,-1
 726 1208 l 1,32,-1
 726 1234 l 2,33,34
 726 1344 726 1344 547 1344 c 259,35,36
 384 1344 384 1344 224 1272 c 1,37,-1
 224 1455 l 1,14,15
EndSplineSet
Layer: 2
SplineSet
981 569 m 1xf8
 981 370 l 1
 174 370 l 1
 174 569 l 1
 981 569 l 1xf8
641 1078 m 2
 509 1078 401 1067 401 960 c 3
 401 889 444 854 529 854 c 3
 640 854 729 937 729 1049 c 2
 729 1078 l 1xfc
 641 1078 l 2
559 1507 m 3
 830 1507 991 1414 991 1160 c 2
 991 712 l 1
 750 712 l 1
 750 838 l 1xfa
 683 746 609 689 462 689 c 3
 282 689 156 770 156 939 c 3
 156 1162 341 1208 590 1208 c 2
 726 1208 l 1
 726 1234 l 2
 726 1307 666 1344 547 1344 c 3
 438 1344 331 1320 224 1272 c 1
 224 1455 l 1
 325 1487 438 1507 559 1507 c 3
EndSplineSet
EndChar

StartChar: ordmasculine
Encoding: 122 186 158
Width: 1147
VWidth: 3555
Flags: W
HStem: 370 199<163 981> 693 172<462.289 687.37> 1340 167<462.445 685.048>
VStem: 118 280<930.556 1269> 746 285<922.789 1277.21>
LayerCount: 3
Fore
SplineSet
573 1507 m 259,0,1
 786 1507 786 1507 908.5 1398.5 c 128,-1,2
 1031 1290 1031 1290 1031 1099 c 259,3,4
 1031 906 1031 906 910.5 799.5 c 128,-1,5
 790 693 790 693 573 693 c 259,6,7
 359 693 359 693 238.5 799.5 c 128,-1,8
 118 906 118 906 118 1099 c 259,9,10
 118 1290 118 1290 238.5 1398.5 c 128,-1,11
 359 1507 359 1507 573 1507 c 259,0,1
981 569 m 1,12,-1
 981 370 l 1,13,-1
 163 370 l 1,14,-1
 163 569 l 1,15,-1
 981 569 l 1,12,-1
573 1340 m 259,16,17
 495 1340 495 1340 446.5 1277.5 c 128,-1,18
 398 1215 398 1215 398 1099 c 259,19,20
 398 984 398 984 446.5 924.5 c 128,-1,21
 495 865 495 865 573 865 c 259,22,23
 746 865 746 865 746 1099 c 259,24,25
 746 1340 746 1340 573 1340 c 259,16,17
EndSplineSet
Layer: 2
SplineSet
118 1099 m 259
 118 1364 301 1507 573 1507 c 259
 844 1507 1031 1364 1031 1099 c 259
 1031 830 849 693 573 693 c 3
 300 693 118 832 118 1099 c 259
981 569 m 1
 981 370 l 1
 163 370 l 1
 163 569 l 1
 981 569 l 1
398 1099 m 3
 398 967 452 865 573 865 c 3
 688 865 746 943 746 1099 c 3
 746 1260 688 1340 573 1340 c 3
 452 1340 398 1231 398 1099 c 3
EndSplineSet
EndChar

StartChar: Omega
Encoding: 221 937 159
Width: 1564
VWidth: 3555
Flags: W
HStem: 0 252<57 345 1224 1507> 1234 262<593.864 969.534>
VStem: 95 306<557.429 1020.63> 1160 305<556.351 1019.03>
LayerCount: 3
Fore
SplineSet
1465 814 m 259,0,1
 1465 503 1465 503 1224 252 c 1,2,-1
 1507 252 l 1,3,-1
 1507 0 l 1,4,-1
 899 0 l 1,5,-1
 899 288 l 1,6,7
 1028 373 1028 373 1094 505 c 128,-1,8
 1160 637 1160 637 1160 800 c 259,9,10
 1160 1003 1160 1003 1058.5 1118.5 c 128,-1,11
 957 1234 957 1234 783 1234 c 259,12,13
 601 1234 601 1234 501 1118.5 c 128,-1,14
 401 1003 401 1003 401 800 c 259,15,16
 401 637 401 637 467 505 c 128,-1,17
 533 373 533 373 658 288 c 1,18,-1
 658 0 l 1,19,-1
 57 0 l 1,20,-1
 57 252 l 1,21,-1
 345 252 l 1,22,23
 95 488 95 488 95 814 c 259,24,25
 95 1120 95 1120 281 1308 c 128,-1,26
 467 1496 467 1496 783 1496 c 259,27,28
 1094 1496 1094 1496 1279.5 1308.5 c 128,-1,29
 1465 1121 1465 1121 1465 814 c 259,0,1
EndSplineSet
Layer: 2
SplineSet
1465 814 m 3
 1465 564 1358 391 1224 252 c 1
 1507 252 l 1
 1507 0 l 1
 899 0 l 1
 899 288 l 1
 1053 390 1160 559 1160 800 c 3
 1160 1054 1028 1234 783 1234 c 3
 531 1234 401 1058 401 800 c 3
 401 561 508 390 658 288 c 1
 658 0 l 1
 57 0 l 1
 57 252 l 1
 345 252 l 1
 178 409 95 597 95 814 c 3
 95 1237 360 1496 783 1496 c 259
 1204 1496 1465 1233 1465 814 c 3
EndSplineSet
EndChar

StartChar: ae
Encoding: 166 230 160
Width: 2128
VWidth: 3555
Flags: W
HStem: -28 235<489.623 740.545 1318.42 1766.65> 458 217<1208 1668> 502 210<497.866 858> 899 238<280.375 803.491 1303.69 1587.39>
VStem: 85 363<248.152 451.327> 858 343<325.784 458 712 785.592>
LayerCount: 3
Fore
SplineSet
1668 675 m 1,0,1
 1668 779 1668 779 1609 839 c 128,-1,2
 1550 899 1550 899 1455 899 c 259,3,4
 1245 899 1245 899 1208 675 c 1,5,-1
 1668 675 l 1,0,1
668 502 m 2,6,7
 448 502 448 502 448 352 c 259,8,9
 448 285 448 285 490.5 246 c 128,-1,10
 533 207 533 207 615 207 c 259,11,12
 719 207 719 207 788.5 279.5 c 128,-1,13
 858 352 858 352 858 462 c 2,14,-1
 858 502 l 1,15,-1
 668 502 l 2,6,7
580 899 m 259,16,17
 337 899 337 899 184 811 c 1,18,-1
 184 1085 l 1,19,20
 440 1137 440 1137 618 1137 c 259,21,22
 918 1137 918 1137 1055 981 c 1,23,24
 1205 1137 1205 1137 1458 1137 c 259,25,26
 1717 1137 1717 1137 1875 981 c 128,-1,27
 2033 825 2033 825 2033 559 c 2,28,-1
 2033 458 l 1,29,-1
 1201 458 l 1,30,31
 1231 207 1231 207 1507 207 c 259,32,33
 1727 207 1727 207 1981 342 c 1,34,-1
 1981 68 l 1,35,36
 1738 -28 1738 -28 1476 -28 c 259,37,38
 1112 -28 1112 -28 963 177 c 1,39,40
 779 -28 779 -28 505 -28 c 259,41,42
 309 -28 309 -28 197 67.5 c 128,-1,43
 85 163 85 163 85 335 c 259,44,45
 85 529 85 529 220.5 620.5 c 128,-1,46
 356 712 356 712 644 712 c 2,47,-1
 858 712 l 1,48,-1
 858 740 l 2,49,50
 858 825 858 825 790 862 c 128,-1,51
 722 899 722 899 580 899 c 259,16,17
EndSplineSet
Layer: 2
SplineSet
1668 675 m 1xdc
 1668 808 1586 899 1455 899 c 3
 1315 899 1233 824 1208 675 c 1
 1668 675 l 1xdc
615 207 m 3
 756 207 858 319 858 462 c 2
 858 502 l 1
 668 502 l 2xbc
 521 502 448 452 448 352 c 3
 448 256 514 207 615 207 c 3
580 899 m 3
 415 899 293 874 184 811 c 1
 184 1085 l 1
 318 1112 471 1137 618 1137 c 3
 818 1137 961 1088 1055 981 c 1
 1155 1085 1289 1137 1458 1137 c 3
 1806 1137 2033 909 2033 559 c 2
 2033 458 l 1
 1201 458 l 1xdc
 1221 291 1323 207 1507 207 c 3
 1654 207 1812 252 1981 342 c 1
 1981 68 l 1
 1829 8 1671 -28 1476 -28 c 3
 1238 -28 1061 42 963 177 c 1
 840 40 688 -28 505 -28 c 3
 258 -28 85 95 85 335 c 3
 85 633 316 712 644 712 c 2
 858 712 l 1
 858 740 l 2
 858 875 733 899 580 899 c 3
EndSplineSet
EndChar

StartChar: oslash
Encoding: 184 248 161
Width: 1395
VWidth: 3555
Flags: W
HStem: -28 252<558.473 833.72> 882 255<558.66 846.563> 1188 20G<1186.13 1226.62>
VStem: 85 373<425.304 773.902> 939 370<333.858 689.343>
DStem2: 78 0 189 -92 0.682167 0.731196<8.45052 216.422 576.755 1083.83 1444.08 1652.09>
LayerCount: 3
Fore
SplineSet
854 832 m 1,0,1
 797 882 797 882 696 882 c 259,2,3
 458 882 458 882 458 554 c 259,4,5
 458 466 458 466 469 424 c 1,6,-1
 854 832 l 1,0,1
696 224 m 259,7,8
 939 224 939 224 939 554 c 259,9,10
 939 641 939 641 924 693 c 1,11,-1
 540 285 l 1,12,13
 601 224 601 224 696 224 c 259,7,8
696 -28 m 259,14,15
 475 -28 475 -28 339 64 c 1,16,-1
 189 -92 l 1,17,-1
 78 0 l 1,18,-1
 220 156 l 1,19,20
 85 312 85 312 85 572 c 259,21,22
 85 832 85 832 247.5 984.5 c 128,-1,23
 410 1137 410 1137 696 1137 c 259,24,25
 910 1137 910 1137 1055 1049 c 1,26,-1
 1205 1208 l 1,27,-1
 1312 1109 l 1,28,-1
 1174 960 l 1,29,30
 1309 804 1309 804 1309 541 c 259,31,32
 1309 278 1309 278 1146.5 125 c 128,-1,33
 984 -28 984 -28 696 -28 c 259,14,15
EndSplineSet
Layer: 2
SplineSet
854 832 m 1
 813 868 769 882 696 882 c 3
 537 882 458 773 458 554 c 3
 458 505 459 462 469 424 c 1
 854 832 l 1
696 224 m 3
 875 224 939 363 939 554 c 3
 939 612 934 658 924 693 c 1
 540 285 l 1
 581 244 633 224 696 224 c 3
696 -28 m 3
 545 -28 432 1 339 64 c 1
 189 -92 l 1
 78 0 l 1
 220 156 l 1
 130 260 85 393 85 554 c 3
 85 928 320 1137 696 1137 c 3
 839 1137 958 1108 1055 1049 c 1
 1205 1208 l 1
 1312 1109 l 1
 1174 960 l 1
 1264 856 1309 721 1309 554 c 3
 1309 181 1073 -28 696 -28 c 3
EndSplineSet
EndChar

StartChar: questiondown
Encoding: 127 191 162
Width: 1178
VWidth: 3555
Flags: W
HStem: -28 259<543.44 879.325> 1127 356<488 842>
VStem: 142 360<268.336 512.785> 488 354<820.052 977 1127 1483>
LayerCount: 3
Fore
SplineSet
1045 54 m 1,0,1
 829 -28 829 -28 637 -28 c 256,2,3
 142 -28 142 -28 142 359 c 259,4,5
 142 455 142 455 180 531 c 128,-1,6
 218 607 218 607 309 693 c 2,7,-1
 373 753 l 2,8,9
 443 819 443 819 465.5 854 c 128,-1,10
 488 889 488 889 488 936 c 2,11,-1
 488 977 l 1,12,-1
 842 977 l 1,13,-1
 842 932 l 2,14,15
 842 854 842 854 814.5 785.5 c 128,-1,16
 787 717 787 717 668 621 c 2,17,-1
 604 569 l 2,18,19
 502 486 502 486 502 380 c 259,20,21
 502 231 502 231 679 231 c 259,22,23
 845 231 845 231 1045 366 c 1,24,-1
 1045 54 l 1,0,1
488 1127 m 1,25,-1
 488 1483 l 1,26,-1
 842 1483 l 1,27,-1
 842 1127 l 1,28,-1
 488 1127 l 1,25,-1
EndSplineSet
Layer: 2
SplineSet
1045 54 m 1xe0
 915 5 794 -28 637 -28 c 3
 307 -28 142 101 142 359 c 3xe0
 142 522 210 600 309 693 c 2
 373 753 l 2
 440 816 488 844 488 936 c 2
 488 977 l 1
 842 977 l 1
 842 932 l 2xd0
 842 783 762 697 668 621 c 2
 604 569 l 2
 543 519 502 471 502 380 c 3
 502 281 561 231 679 231 c 3
 790 231 912 276 1045 366 c 1
 1045 54 l 1xe0
488 1127 m 1xd0
 488 1483 l 1
 842 1483 l 1
 842 1127 l 1
 488 1127 l 1xd0
EndSplineSet
EndChar

StartChar: exclamdown
Encoding: 97 161 163
Width: 927
VWidth: 3555
Flags: W
HStem: 0 21G<285 644> 1127 356<285 644>
VStem: 285 359<0 678.378 1127 1483>
LayerCount: 3
Fore
SplineSet
285 569 m 1,0,-1
 339 981 l 1,1,-1
 590 981 l 1,2,-1
 644 569 l 1,3,-1
 644 0 l 1,4,-1
 285 0 l 1,5,-1
 285 569 l 1,0,-1
285 1483 m 1,6,-1
 644 1483 l 1,7,-1
 644 1127 l 1,8,-1
 285 1127 l 1,9,-1
 285 1483 l 1,6,-1
EndSplineSet
Layer: 2
SplineSet
285 569 m 1
 339 981 l 1
 590 981 l 1
 644 569 l 1
 644 0 l 1
 285 0 l 1
 285 569 l 1
285 1483 m 1
 644 1483 l 1
 644 1127 l 1
 285 1127 l 1
 285 1483 l 1
EndSplineSet
EndChar

StartChar: logicalnot
Encoding: 108 172 164
Width: 1701
VWidth: 3555
Flags: W
HStem: 668 231<214 1252>
VStem: 1252 234<285 668>
LayerCount: 3
Fore
SplineSet
1486 899 m 1,0,-1
 1486 285 l 1,1,-1
 1252 285 l 1,2,-1
 1252 668 l 1,3,-1
 214 668 l 1,4,-1
 214 899 l 1,5,-1
 1486 899 l 1,0,-1
EndSplineSet
Layer: 2
SplineSet
1486 899 m 1
 1486 285 l 1
 1252 285 l 1
 1252 668 l 1
 214 668 l 1
 214 899 l 1
 1486 899 l 1
EndSplineSet
EndChar

StartChar: radical
Encoding: 345 8730 165
Width: 1354
VWidth: 3555
Flags: W
HStem: 1554 146<1262 1358>
DStem2: 434 998 252 800 0.345138 -0.938552<123.018 665.341> 654 370 679 -43 0.342923 0.939363<0 1320.7>
LayerCount: 3
Fore
SplineSet
1358 1700 m 1,0,-1
 1358 1554 l 1,1,-1
 1262 1554 l 1,2,-1
 679 -43 l 1,3,-1
 562 -43 l 1,4,-1
 252 800 l 1,5,-1
 115 746 l 1,6,-1
 78 875 l 1,7,-1
 434 998 l 1,8,-1
 654 370 l 1,9,-1
 1149 1700 l 1,10,-1
 1358 1700 l 1,0,-1
EndSplineSet
Layer: 2
SplineSet
1358 1700 m 1
 1358 1554 l 1
 1262 1554 l 1
 679 -43 l 1
 562 -43 l 1
 252 800 l 1
 115 746 l 1
 78 875 l 1
 434 998 l 1
 654 370 l 1
 1149 1700 l 1
 1358 1700 l 1
EndSplineSet
EndChar

StartChar: florin
Encoding: 212 402 166
Width: 1414
VWidth: 3555
Flags: W
HStem: -424 240<18.6036 301.705> 651 234<271 512 903 1191> 1309 238<1024.6 1300.55>
DStem2: 391 68 729 -14 0.19541 0.980722<-219.725 595.405 901.3 1298.18>
LayerCount: 3
Fore
SplineSet
1059 1547 m 259,0,1
 1208 1547 1208 1547 1323 1503 c 1,2,-1
 1323 1252 l 1,3,4
 1234 1309 1234 1309 1160 1309 c 259,5,6
 1056 1309 1056 1309 1012 1251 c 128,-1,7
 968 1193 968 1193 939 1055 c 2,8,-1
 903 885 l 1,9,-1
 1191 885 l 1,10,-1
 1191 651 l 1,11,-1
 861 651 l 1,12,-1
 729 -14 l 2,13,14
 648 -424 648 -424 271 -424 c 259,15,16
 172 -424 172 -424 3 -384 c 1,17,-1
 3 -132 l 1,18,19
 98 -184 98 -184 177 -184 c 259,20,21
 269 -184 269 -184 315 -129.5 c 128,-1,22
 361 -75 361 -75 391 68 c 2,23,-1
 512 651 l 1,24,-1
 271 651 l 1,25,-1
 271 885 l 1,26,-1
 554 885 l 1,27,-1
 604 1137 l 2,28,29
 685 1547 685 1547 1059 1547 c 259,0,1
EndSplineSet
Layer: 2
SplineSet
1059 1547 m 3
 1164 1547 1241 1534 1323 1503 c 1
 1323 1252 l 1
 1264 1290 1209 1309 1160 1309 c 3
 999 1309 972 1208 939 1055 c 2
 903 885 l 1
 1191 885 l 1
 1191 651 l 1
 861 651 l 1
 729 -14 l 2
 680 -262 552 -424 271 -424 c 3
 173 -424 89 -404 3 -384 c 1
 3 -132 l 1
 57 -162 107 -184 177 -184 c 3
 328 -184 360 -83 391 68 c 2
 512 651 l 1
 271 651 l 1
 271 885 l 1
 554 885 l 1
 604 1137 l 2
 658 1411 812 1547 1059 1547 c 3
EndSplineSet
EndChar

StartChar: approxequal
Encoding: 348 8776 167
Width: 1701
VWidth: 3555
Flags: W
HStem: 244 228<936.739 1321.96> 383 228<393.685 768.361> 394 238<1248 1486> 661 228<936.739 1321.96> 800 228<393.685 768.361> 811 238<1248 1486>
LayerCount: 3
Fore
SplineSet
1486 394 m 1,0,1
 1392 318 1392 318 1308.5 281 c 128,-1,2
 1225 244 1225 244 1109 244 c 259,3,4
 998 244 998 244 818 319 c 256,5,6
 666 383 666 383 569 383 c 259,7,8
 398 383 398 383 214 224 c 1,9,-1
 214 465 l 1,10,11
 417 611 417 611 594 611 c 259,12,13
 703 611 703 611 885 536 c 256,14,15
 1041 472 1041 472 1134 472 c 259,16,17
 1246 472 1246 472 1324.5 517.5 c 128,-1,18
 1403 563 1403 563 1486 632 c 1,19,-1
 1486 394 l 1,0,1
1486 811 m 1,20,21
 1392 735 1392 735 1308.5 698 c 128,-1,22
 1225 661 1225 661 1109 661 c 259,23,24
 998 661 998 661 818 736 c 256,25,26
 666 800 666 800 569 800 c 259,27,28
 398 800 398 800 214 641 c 1,29,-1
 214 882 l 1,30,31
 417 1028 417 1028 594 1028 c 259,32,33
 702 1028 702 1028 885 953 c 256,34,35
 1041 889 1041 889 1134 889 c 259,36,37
 1246 889 1246 889 1324.5 934 c 128,-1,38
 1403 979 1403 979 1486 1049 c 1,39,-1
 1486 811 l 1,20,21
EndSplineSet
Layer: 2
SplineSet
1486 394 m 1x20
 1376 305 1277 244 1109 244 c 3x80
 1021 244 909 281 818 319 c 0
 716 362 633 383 569 383 c 3
 455 383 337 330 214 224 c 1
 214 465 l 1
 349 562 476 611 594 611 c 3x40
 674 611 795 573 885 536 c 0
 990 493 1073 472 1134 472 c 3x80
 1291 472 1382 546 1486 632 c 1
 1486 394 l 1x20
1486 811 m 1x04
 1376 722 1277 661 1109 661 c 3x10
 1021 661 909 698 818 736 c 0
 716 779 633 800 569 800 c 3
 455 800 337 747 214 641 c 1
 214 882 l 1
 349 979 476 1028 594 1028 c 3x08
 674 1028 795 990 885 953 c 0
 990 910 1073 889 1134 889 c 3x10
 1291 889 1382 963 1486 1049 c 1
 1486 811 l 1x04
EndSplineSet
EndChar

StartChar: Delta
Encoding: 339 8710 168
Width: 1414
VWidth: 3555
Flags: W
HStem: 0 252<384 1031>
DStem2: 0 0 384 252 0.356499 0.934296<372.338 1282> 861 1465 708 1102 0.353711 -0.935355<285.416 1194.72>
LayerCount: 3
Fore
SplineSet
384 252 m 1,0,-1
 1031 252 l 1,1,-1
 708 1102 l 1,2,-1
 384 252 l 1,0,-1
861 1465 m 1,3,-1
 1415 0 l 1,4,-1
 0 0 l 1,5,-1
 559 1465 l 1,6,-1
 861 1465 l 1,3,-1
EndSplineSet
Layer: 2
SplineSet
384 252 m 1
 1031 252 l 1
 708 1102 l 1
 384 252 l 1
861 1465 m 1
 1415 0 l 1
 0 0 l 1
 559 1465 l 1
 861 1465 l 1
EndSplineSet
EndChar

StartChar: guillemotleft
Encoding: 107 171 169
Width: 1310
VWidth: 3555
Flags: W
HStem: 139 238<410 648 885 1123> 818 237<411 648 886 1123>
DStem2: 156 686 356 594 0.8 0.6<104.8 472.8> 356 594 156 505 0.802342 -0.596864<0 363.803> 634 686 832 594 0.798234 0.602348<102.634 469.846> 832 594 634 505 0.800589 -0.599214<0 363.001>
LayerCount: 3
Fore
SplineSet
648 818 m 1,0,-1
 356 594 l 1,1,-1
 648 377 l 1,2,-1
 648 139 l 1,3,-1
 156 505 l 1,4,-1
 156 686 l 1,5,-1
 648 1055 l 1,6,-1
 648 818 l 1,0,-1
1123 818 m 1,7,-1
 832 594 l 1,8,-1
 1123 377 l 1,9,-1
 1123 139 l 1,10,-1
 634 505 l 1,11,-1
 634 686 l 1,12,-1
 1123 1055 l 1,13,-1
 1123 818 l 1,7,-1
EndSplineSet
Layer: 2
SplineSet
648 818 m 1
 356 594 l 1
 648 377 l 1
 648 139 l 1
 156 505 l 1
 156 686 l 1
 648 1055 l 1
 648 818 l 1
1123 818 m 1
 832 594 l 1
 1123 377 l 1
 1123 139 l 1
 634 505 l 1
 634 686 l 1
 1123 1055 l 1
 1123 818 l 1
EndSplineSet
EndChar

StartChar: guillemotright
Encoding: 123 187 170
Width: 1310
VWidth: 3555
Flags: W
HStem: 139 238<193 431 668 906> 818 237<193 430 668 905>
DStem2: 193 1055 193 818 0.796446 -0.604709<143.316 510.537> 193 377 193 139 0.798815 0.601577<0 362.997> 668 1055 668 818 0.8 -0.6<142.2 507.8> 668 377 668 139 0.802342 0.596864<0 361.396>
LayerCount: 3
Fore
SplineSet
1160 686 m 1,0,-1
 1160 505 l 1,1,-1
 668 139 l 1,2,-1
 668 377 l 1,3,-1
 957 594 l 1,4,-1
 668 818 l 1,5,-1
 668 1055 l 1,6,-1
 1160 686 l 1,0,-1
679 686 m 1,7,-1
 679 505 l 1,8,-1
 193 139 l 1,9,-1
 193 377 l 1,10,-1
 484 594 l 1,11,-1
 193 818 l 1,12,-1
 193 1055 l 1,13,-1
 679 686 l 1,7,-1
EndSplineSet
Layer: 2
SplineSet
1160 686 m 1
 1160 505 l 1
 668 139 l 1
 668 377 l 1
 957 594 l 1
 668 818 l 1
 668 1055 l 1
 1160 686 l 1
679 686 m 1
 679 505 l 1
 193 139 l 1
 193 377 l 1
 484 594 l 1
 193 818 l 1
 193 1055 l 1
 679 686 l 1
EndSplineSet
EndChar

StartChar: ellipsis
Encoding: 332 8230 171
Width: 2032
VWidth: 3555
Flags: W
HStem: 0 384<160 519 838 1194 1517 1870>
VStem: 160 359<0 384> 838 356<0 384> 1517 353<0 384>
LayerCount: 3
Fore
SplineSet
1870 384 m 1,0,-1
 1870 0 l 1,1,-1
 1517 0 l 1,2,-1
 1517 384 l 1,3,-1
 1870 384 l 1,0,-1
519 384 m 1,4,-1
 519 0 l 1,5,-1
 160 0 l 1,6,-1
 160 384 l 1,7,-1
 519 384 l 1,4,-1
1194 384 m 1,8,-1
 1194 0 l 1,9,-1
 838 0 l 1,10,-1
 838 384 l 1,11,-1
 1194 384 l 1,8,-1
EndSplineSet
Layer: 2
SplineSet
1870 384 m 1
 1870 0 l 1
 1517 0 l 1
 1517 384 l 1
 1870 384 l 1
519 384 m 1
 519 0 l 1
 160 0 l 1
 160 384 l 1
 519 384 l 1
1194 384 m 1
 1194 0 l 1
 838 0 l 1
 838 384 l 1
 1194 384 l 1
EndSplineSet
EndChar

StartChar: Agrave
Encoding: 128 192 173
Width: 1574
VWidth: 3555
Flags: W
HStem: 0 21G<10 398.38 1173.21 1564> 271 269<583 988> 1463 20G<551.596 1021.42>
DStem2: 1014 1483 790 1134 0.347726 -0.937596<249.33 875.112 1162.1 1427.86> 1564 0 988 540 0.347726 -0.937596<-1332.37 -706.592 -419.606 -133.527>
LayerCount: 3
Fore
SplineSet
491 271 m 1,0,-1
 391 0 l 1,1,-1
 10 0 l 1,2,-1
 559 1483 l 1,3,-1
 1014 1483 l 1,4,-1
 1564 0 l 1,5,-1
 1180 0 l 1,6,-1
 1088 271 l 1,7,-1
 491 271 l 1,0,-1
988 540 m 1,8,-1
 790 1134 l 1,9,-1
 583 540 l 1,10,-1
 988 540 l 1,8,-1
906 1621 m 1,11,-1
 715 1621 l 1,12,-1
 431 1887 l 1,13,-1
 712 1887 l 1,14,-1
 906 1621 l 1,11,-1
EndSplineSet
Layer: 2
SplineSet
491 271 m 1
 391 0 l 1
 10 0 l 1
 559 1483 l 1
 1014 1483 l 1
 1564 0 l 1
 1180 0 l 1
 1088 271 l 1
 491 271 l 1
988 540 m 1
 790 1134 l 1
 583 540 l 1
 988 540 l 1
906 1621 m 1
 715 1621 l 1
 431 1887 l 1
 712 1887 l 1
 906 1621 l 1
EndSplineSet
EndChar

StartChar: Atilde
Encoding: 131 195 174
Width: 1574
VWidth: 3555
Flags: W
HStem: 0 21G<10 398.38 1173.21 1564> 271 269<583 988> 1463 20G<551.596 1021.42> 1621 150<793.941 956.125> 1738 149<565.28 723.162>
VStem: 417 137<1621 1731.06> 970 139<1781.32 1887>
DStem2: 1014 1483 790 1134 0.347726 -0.937596<249.33 875.112 1162.1 1427.86> 1564 0 988 540 0.347726 -0.937596<-1332.37 -706.592 -419.606 -133.527>
LayerCount: 3
Fore
SplineSet
491 271 m 1,0,-1
 391 0 l 1,1,-1
 10 0 l 1,2,-1
 559 1483 l 1,3,-1
 1014 1483 l 1,4,-1
 1564 0 l 1,5,-1
 1180 0 l 1,6,-1
 1088 271 l 1,7,-1
 491 271 l 1,0,-1
988 540 m 1,8,-1
 790 1134 l 1,9,-1
 583 540 l 1,10,-1
 988 540 l 1,8,-1
1109 1856 m 2,11,12
 1109 1757 1109 1757 1054.5 1689 c 128,-1,13
 1000 1621 1000 1621 910 1621 c 259,14,15
 834 1621 834 1621 724 1693 c 0,16,17
 655 1738 655 1738 625 1738 c 259,18,19
 554 1738 554 1738 554 1625 c 2,20,-1
 554 1621 l 1,21,-1
 417 1621 l 1,22,-1
 417 1649 l 2,23,24
 417 1752 417 1752 468.5 1819.5 c 128,-1,25
 520 1887 520 1887 611 1887 c 259,26,27
 681 1887 681 1887 764 1834 c 24,28,29
 863 1771 863 1771 892 1771 c 259,30,31
 970 1771 970 1771 970 1887 c 1,32,-1
 1109 1887 l 1,33,-1
 1109 1856 l 2,11,12
EndSplineSet
Layer: 2
SplineSet
491 271 m 1xe6
 391 0 l 1
 10 0 l 1
 559 1483 l 1
 1014 1483 l 1
 1564 0 l 1
 1180 0 l 1
 1088 271 l 1
 491 271 l 1xe6
988 540 m 1
 790 1134 l 1
 583 540 l 1
 988 540 l 1
1109 1856 m 2
 1109 1728 1034 1621 910 1621 c 3xf6
 835 1621 775 1660 724 1693 c 0
 687 1717 655 1738 625 1738 c 3xee
 578 1738 554 1700 554 1625 c 2
 554 1621 l 1
 417 1621 l 1xf6
 417 1649 l 2
 417 1781 485 1887 611 1887 c 3xee
 668 1887 719 1861 764 1834 c 0
 815 1803 858 1771 892 1771 c 3xf6
 944 1771 970 1810 970 1887 c 1
 1109 1887 l 1xee
 1109 1856 l 2
EndSplineSet
EndChar

StartChar: Otilde
Encoding: 149 213 175
Width: 1727
VWidth: 3555
Flags: W
HStem: -28 273<692.759 1040.27> 1234 273<692.903 1040.27> 1621 150<874.941 1037.13> 1738 149<646.28 804.162>
VStem: 99 399<470.148 1009.24> 498 137<1621 1731.06> 1051 139<1781.32 1887> 1234 391<481.347 998.273>
LayerCount: 3
Fore
SplineSet
868 1234 m 0,0,1
 686 1234 686 1234 592 1104 c 128,-1,2
 498 974 498 974 498 740 c 256,3,4
 498 505 498 505 592 375 c 128,-1,5
 686 245 686 245 868 245 c 0,6,7
 1038 245 1038 245 1136 375 c 128,-1,8
 1234 505 1234 505 1234 740 c 256,9,10
 1234 974 1234 974 1136 1104 c 128,-1,11
 1038 1234 1038 1234 868 1234 c 0,0,1
868 1507 m 256,12,13
 1231 1507 1231 1507 1428 1304.5 c 128,-1,14
 1625 1102 1625 1102 1625 740 c 256,15,16
 1625 377 1625 377 1428 174.5 c 128,-1,17
 1231 -28 1231 -28 868 -28 c 256,18,19
 505 -28 505 -28 302 174.5 c 128,-1,20
 99 377 99 377 99 740 c 256,21,22
 99 1102 99 1102 302 1304.5 c 128,-1,23
 505 1507 505 1507 868 1507 c 256,12,13
790 1703 m 2,24,25
 786 1706 786 1706 784.5 1706 c 128,-1,26
 783 1706 783 1706 779 1710 c 0,27,28
 729 1738 729 1738 708 1738 c 0,29,30
 637 1738 637 1738 637 1625 c 2,31,-1
 637 1621 l 1,32,-1
 498 1621 l 1,33,-1
 498 1649 l 2,34,35
 498 1757 498 1757 551 1822 c 128,-1,36
 604 1887 604 1887 693 1887 c 0,37,38
 753 1887 753 1887 842 1838 c 2,39,-1
 899 1798 l 2,40,41
 946 1771 946 1771 974 1771 c 0,42,43
 1052 1771 1052 1771 1052 1887 c 1,44,-1
 1191 1887 l 1,45,46
 1191 1880 1191 1880 1189 1869.5 c 128,-1,47
 1187 1859 1187 1859 1187 1856 c 0,48,49
 1187 1753 1187 1753 1134.5 1687 c 128,-1,50
 1082 1621 1082 1621 991 1621 c 0,51,52
 953 1621 953 1621 917.5 1631.5 c 128,-1,53
 882 1642 882 1642 845 1672 c 1,54,-1
 790 1703 l 2,24,25
EndSplineSet
Layer: 2
SplineSet
1190 1856 m 2xd7
 1190 1728 1115 1621 991 1621 c 3xe7
 916 1621 856 1660 805 1693 c 0
 768 1717 736 1738 706 1738 c 3xd7
 659 1738 635 1700 635 1625 c 2
 635 1621 l 1
 498 1621 l 1xe7
 498 1649 l 2
 498 1781 566 1887 692 1887 c 3xd7
 749 1887 800 1861 845 1834 c 0
 896 1803 939 1771 973 1771 c 3xe7
 1025 1771 1051 1810 1051 1887 c 1
 1190 1887 l 1
 1190 1856 l 2xd7
1234 740 m 259
 1234 1014 1123 1234 868 1234 c 3
 602 1234 498 1021 498 740 c 259xcb
 498 458 602 245 868 245 c 3
 1123 245 1234 466 1234 740 c 259
99 740 m 259
 99 1222 386 1507 868 1507 c 259
 1351 1507 1625 1222 1625 740 c 259
 1625 257 1351 -28 868 -28 c 259
 385 -28 99 257 99 740 c 259
EndSplineSet
EndChar

StartChar: OE
Encoding: 203 338 176
Width: 2371
VWidth: 3555
Flags: W
HStem: 0 288<769.022 1174 1554 2226> 628 285<1554 2161> 1194 289<770.357 1174 1554 2205>
VStem: 99 399<532.119 952.044> 1174 380<288 628 913 1194>
LayerCount: 3
Fore
SplineSet
1066 1194 m 2,0,1
 498 1194 498 1194 498 743 c 259,2,3
 498 288 498 288 1066 288 c 2,4,-1
 1174 288 l 1,5,-1
 1174 1194 l 1,6,-1
 1066 1194 l 2,0,1
2205 1483 m 1,7,-1
 2205 1194 l 1,8,-1
 1554 1194 l 1,9,-1
 1554 913 l 1,10,-1
 2161 913 l 1,11,-1
 2161 628 l 1,12,-1
 1554 628 l 1,13,-1
 1554 288 l 1,14,-1
 2226 288 l 1,15,-1
 2226 0 l 1,16,-1
 1010 0 l 2,17,18
 569 0 569 0 334 190 c 128,-1,19
 99 380 99 380 99 743 c 259,20,21
 99 1099 99 1099 334 1291 c 128,-1,22
 569 1483 569 1483 1010 1483 c 2,23,-1
 2205 1483 l 1,7,-1
EndSplineSet
Layer: 2
SplineSet
1066 1194 m 2
 687 1194 498 1044 498 743 c 3
 498 440 687 288 1066 288 c 2
 1174 288 l 1
 1174 1194 l 1
 1066 1194 l 2
99 743 m 3
 99 1257 471 1483 1010 1483 c 2
 2205 1483 l 1
 2205 1194 l 1
 1554 1194 l 1
 1554 913 l 1
 2161 913 l 1
 2161 628 l 1
 1554 628 l 1
 1554 288 l 1
 2226 288 l 1
 2226 0 l 1
 1010 0 l 2
 467 0 99 223 99 743 c 3
EndSplineSet
EndChar

StartChar: oe
Encoding: 204 339 177
Width: 2225
VWidth: 3555
Flags: W
HStem: -28 252<560.352 838.224> -28 235<1411.98 1857.68> 458 217<1302 1764> 882 255<558.66 838.221> 899 238<1397.77 1679.19>
VStem: 85 373<334.872 773.902> 939 360<336.812 458 675 772.514>
LayerCount: 3
Fore
SplineSet
1764 675 m 1,0,1
 1764 779 1764 779 1701.5 839 c 128,-1,2
 1639 899 1639 899 1547 899 c 259,3,4
 1448 899 1448 899 1382 844.5 c 128,-1,5
 1316 790 1316 790 1302 675 c 1,6,-1
 1764 675 l 1,0,1
2073 68 m 1,7,8
 1830 -28 1830 -28 1571 -28 c 256,9,10
 1401 -28 1401 -28 1297.5 13 c 128,-1,11
 1194 54 1194 54 1123 139 c 1,12,13
 950 -28 950 -28 696 -28 c 259,14,15
 410 -28 410 -28 247.5 125 c 128,-1,16
 85 278 85 278 85 554 c 259,17,18
 85 832 85 832 247.5 984.5 c 128,-1,19
 410 1137 410 1137 696 1137 c 259,20,21
 963 1137 963 1137 1116 970 c 1,22,23
 1198 1055 1198 1055 1297.5 1096 c 128,-1,24
 1397 1137 1397 1137 1533 1137 c 259,25,26
 1809 1137 1809 1137 1968 982.5 c 128,-1,27
 2127 828 2127 828 2127 559 c 2,28,-1
 2127 458 l 1,29,-1
 1299 458 l 1,30,31
 1319 207 1319 207 1604 207 c 259,32,33
 1812 207 1812 207 2073 342 c 1,34,-1
 2073 68 l 1,7,8
696 224 m 259,35,36
 939 224 939 224 939 554 c 259,37,38
 939 882 939 882 696 882 c 259,39,40
 458 882 458 882 458 554 c 259,41,42
 458 224 458 224 696 224 c 259,35,36
EndSplineSet
Layer: 2
SplineSet
1764 675 m 1x2e
 1764 807 1675 899 1547 899 c 3
 1401 899 1319 814 1302 675 c 1
 1764 675 l 1x2e
1533 1137 m 3
 1896 1137 2127 920 2127 559 c 2
 2127 458 l 1
 1299 458 l 1
 1312 291 1414 207 1604 207 c 3
 1743 207 1899 252 2073 342 c 1
 2073 68 l 1
 1922 8 1763 -28 1571 -28 c 3x6e
 1350 -28 1222 21 1123 139 c 1
 1008 28 865 -28 696 -28 c 3
 321 -28 85 182 85 554 c 259
 85 928 320 1137 696 1137 c 3xb6
 874 1137 1014 1081 1116 970 c 1
 1218 1075 1336 1137 1533 1137 c 3
696 224 m 3xb6
 875 224 939 363 939 554 c 3
 939 773 858 882 696 882 c 3
 537 882 458 773 458 554 c 3
 458 367 522 224 696 224 c 3xb6
EndSplineSet
EndChar

StartChar: endash
Encoding: 321 8211 178
Width: 1015
VWidth: 3555
Flags: W
HStem: 431 255<0 1017>
LayerCount: 3
Fore
SplineSet
1017 686 m 1,0,-1
 1017 431 l 1,1,-1
 0 431 l 1,2,-1
 0 686 l 1,3,-1
 1017 686 l 1,0,-1
EndSplineSet
Layer: 2
SplineSet
1017 686 m 1
 1017 431 l 1
 0 431 l 1
 0 686 l 1
 1017 686 l 1
EndSplineSet
EndChar

StartChar: emdash
Encoding: 322 8212 179
Width: 2032
VWidth: 3555
Flags: W
HStem: 431 255<0 2033>
LayerCount: 3
Fore
SplineSet
2033 686 m 1,0,-1
 2033 431 l 1,1,-1
 0 431 l 1,2,-1
 0 686 l 1,3,-1
 2033 686 l 1,0,-1
EndSplineSet
Layer: 2
SplineSet
2033 686 m 1
 2033 431 l 1
 0 431 l 1
 0 686 l 1
 2033 686 l 1
EndSplineSet
EndChar

StartChar: quotedblleft
Encoding: 326 8220 180
Width: 1333
VWidth: 3555
Flags: W
HStem: 854 629<-62 44 437 550>
VStem: 210 333<854 1134> 712 337<854 1130>
LayerCount: 3
Fore
SplineSet
712 854 m 1,0,-1
 712 1130 l 1,1,-1
 936 1483 l 1,2,-1
 1153 1483 l 1,3,-1
 1049 1130 l 1,4,-1
 1049 854 l 1,5,-1
 712 854 l 1,0,-1
210 854 m 1,6,-1
 210 1134 l 1,7,-1
 437 1483 l 1,8,-1
 648 1483 l 1,9,-1
 543 1134 l 1,10,-1
 543 854 l 1,11,-1
 210 854 l 1,6,-1
EndSplineSet
Layer: 2
SplineSet
712 854 m 1
 712 1130 l 1
 936 1483 l 1
 1153 1483 l 1
 1049 1130 l 1
 1049 854 l 1
 712 854 l 1
210 854 m 1
 210 1134 l 1
 437 1483 l 1
 648 1483 l 1
 543 1134 l 1
 543 854 l 1
 210 854 l 1
EndSplineSet
EndChar

StartChar: quotedblright
Encoding: 327 8221 181
Width: 1333
VWidth: 3555
Flags: W
HStem: 854 629<288 398 790 899>
VStem: 288 333<1198 1483> 790 337<1198 1483>
LayerCount: 3
Fore
SplineSet
621 1483 m 1,0,-1
 621 1198 l 1,1,-1
 398 854 l 1,2,-1
 184 854 l 1,3,-1
 288 1198 l 1,4,-1
 288 1483 l 1,5,-1
 621 1483 l 1,0,-1
1127 1483 m 1,6,-1
 1127 1198 l 1,7,-1
 899 854 l 1,8,-1
 689 854 l 1,9,-1
 790 1198 l 1,10,-1
 790 1483 l 1,11,-1
 1127 1483 l 1,6,-1
EndSplineSet
Layer: 2
SplineSet
621 1483 m 1
 621 1198 l 1
 398 854 l 1
 184 854 l 1
 288 1198 l 1
 288 1483 l 1
 621 1483 l 1
1127 1483 m 1
 1127 1198 l 1
 899 854 l 1
 689 854 l 1
 790 1198 l 1
 790 1483 l 1
 1127 1483 l 1
EndSplineSet
EndChar

StartChar: quoteleft
Encoding: 323 8216 182
Width: 770
VWidth: 3555
Flags: W
HStem: 854 629<437 543>
VStem: 210 333<854 1134>
LayerCount: 3
Fore
SplineSet
210 854 m 1,0,-1
 210 1134 l 1,1,-1
 437 1483 l 1,2,-1
 648 1483 l 1,3,-1
 543 1134 l 1,4,-1
 543 854 l 1,5,-1
 210 854 l 1,0,-1
EndSplineSet
Layer: 2
SplineSet
210 854 m 1
 210 1134 l 1
 437 1483 l 1
 648 1483 l 1
 543 1134 l 1
 543 854 l 1
 210 854 l 1
EndSplineSet
EndChar

